<svg width="450" height="102" viewBox="0 0 450 102" fill="none" xmlns="http://www.w3.org/2000/svg">
<rect x="0.25" y="0.25" width="99.5" height="29.5" rx="4.75" stroke="#D97706" stroke-width="0.5"/>
<rect x="200.25" y="36.25" width="99.5" height="29.5" rx="4.75" stroke="#2563EB" stroke-width="0.5"/>
<rect x="0.25" y="72.25" width="99.5" height="29.5" rx="4.75" stroke="#D97706" stroke-width="0.5"/>
<path d="M18.6818 14C18.6193 13.8087 18.5369 13.6373 18.4347 13.4858C18.3343 13.3324 18.214 13.2017 18.0739 13.0938C17.9356 12.9858 17.7784 12.9034 17.6023 12.8466C17.4261 12.7898 17.233 12.7614 17.0227 12.7614C16.678 12.7614 16.3646 12.8504 16.0824 13.0284C15.8002 13.2064 15.5758 13.4688 15.4091 13.8153C15.2424 14.1619 15.1591 14.5871 15.1591 15.0909C15.1591 15.5947 15.2434 16.0199 15.4119 16.3665C15.5805 16.7131 15.8087 16.9754 16.0966 17.1534C16.3845 17.3314 16.7083 17.4205 17.0682 17.4205C17.4015 17.4205 17.6951 17.3494 17.9489 17.2074C18.2045 17.0634 18.4034 16.8608 18.5455 16.5994C18.6894 16.3362 18.7614 16.0265 18.7614 15.6705L18.9773 15.7159H17.2273V15.0909H19.4432V15.7159C19.4432 16.1951 19.3409 16.6117 19.1364 16.9659C18.9337 17.3201 18.6534 17.5947 18.2955 17.7898C17.9394 17.983 17.5303 18.0795 17.0682 18.0795C16.553 18.0795 16.1004 17.9583 15.7102 17.7159C15.322 17.4735 15.0189 17.1288 14.8011 16.6818C14.5852 16.2348 14.4773 15.7045 14.4773 15.0909C14.4773 14.6307 14.5388 14.2169 14.6619 13.8494C14.7869 13.4801 14.9631 13.1657 15.1903 12.9062C15.4176 12.6468 15.6866 12.4479 15.9972 12.3097C16.3078 12.1714 16.6496 12.1023 17.0227 12.1023C17.3295 12.1023 17.6155 12.1487 17.8807 12.2415C18.1477 12.3324 18.3854 12.4621 18.5938 12.6307C18.804 12.7973 18.9792 12.9972 19.1193 13.2301C19.2595 13.4612 19.3561 13.7178 19.4091 14H18.6818ZM22.3885 18.0909C21.968 18.0909 21.6054 17.9981 21.3004 17.8125C20.9974 17.625 20.7635 17.3636 20.5987 17.0284C20.4358 16.6913 20.3544 16.2992 20.3544 15.8523C20.3544 15.4053 20.4358 15.0114 20.5987 14.6705C20.7635 14.3277 20.9927 14.0606 21.2862 13.8693C21.5817 13.6761 21.9264 13.5795 22.3203 13.5795C22.5476 13.5795 22.772 13.6174 22.9936 13.6932C23.2152 13.7689 23.4169 13.892 23.5987 14.0625C23.7805 14.2311 23.9254 14.4545 24.0334 14.733C24.1413 15.0114 24.1953 15.3542 24.1953 15.7614V16.0455H20.8317V15.4659H23.5135C23.5135 15.2197 23.4643 15 23.3658 14.8068C23.2692 14.6136 23.1309 14.4612 22.951 14.3494C22.773 14.2377 22.5627 14.1818 22.3203 14.1818C22.0533 14.1818 21.8222 14.2481 21.6271 14.3807C21.4339 14.5114 21.2853 14.6818 21.1811 14.892C21.0769 15.1023 21.0249 15.3277 21.0249 15.5682V15.9545C21.0249 16.2841 21.0817 16.5634 21.1953 16.7926C21.3108 17.0199 21.4709 17.1932 21.6754 17.3125C21.88 17.4299 22.1177 17.4886 22.3885 17.4886C22.5646 17.4886 22.7237 17.464 22.8658 17.4148C23.0097 17.3636 23.1338 17.2879 23.2379 17.1875C23.3421 17.0852 23.4226 16.9583 23.4794 16.8068L24.1271 16.9886C24.0589 17.2083 23.9444 17.4015 23.7834 17.5682C23.6224 17.733 23.4235 17.8617 23.1868 17.9545C22.95 18.0455 22.6839 18.0909 22.3885 18.0909ZM27.1129 13.6364V14.2045H24.8516V13.6364H27.1129ZM25.5107 12.5909H26.1811V16.75C26.1811 16.9394 26.2086 17.0814 26.2635 17.1761C26.3203 17.2689 26.3923 17.3314 26.4794 17.3636C26.5684 17.3939 26.6622 17.4091 26.7607 17.4091C26.8345 17.4091 26.8951 17.4053 26.9425 17.3977C26.9898 17.3883 27.0277 17.3807 27.0561 17.375L27.1925 17.9773C27.147 17.9943 27.0836 18.0114 27.0021 18.0284C26.9207 18.0473 26.8175 18.0568 26.6925 18.0568C26.5031 18.0568 26.3175 18.0161 26.1357 17.9347C25.9557 17.8532 25.8061 17.7292 25.6868 17.5625C25.5694 17.3958 25.5107 17.1856 25.5107 16.9318V12.5909ZM32.0192 18.0909C31.6555 18.0909 31.3345 17.9991 31.0561 17.8153C30.7777 17.6297 30.5599 17.3684 30.4027 17.0312C30.2455 16.6922 30.1669 16.2917 30.1669 15.8295C30.1669 15.3712 30.2455 14.9735 30.4027 14.6364C30.5599 14.2992 30.7786 14.0388 31.0589 13.8551C31.3393 13.6714 31.6631 13.5795 32.0305 13.5795C32.3146 13.5795 32.5391 13.6269 32.7038 13.7216C32.8705 13.8144 32.9974 13.9205 33.0845 14.0398C33.1735 14.1572 33.2427 14.2538 33.2919 14.3295H33.3487V12.1818H34.0192V18H33.3714V17.3295H33.2919C33.2427 17.4091 33.1726 17.5095 33.0817 17.6307C32.9908 17.75 32.861 17.857 32.6925 17.9517C32.5239 18.0445 32.2995 18.0909 32.0192 18.0909ZM32.1101 17.4886C32.379 17.4886 32.6063 17.4186 32.7919 17.2784C32.9775 17.1364 33.1186 16.9403 33.2152 16.6903C33.3118 16.4384 33.3601 16.1477 33.3601 15.8182C33.3601 15.4924 33.3127 15.2074 33.218 14.9631C33.1233 14.7169 32.9832 14.5256 32.7976 14.3892C32.612 14.2509 32.3828 14.1818 32.1101 14.1818C31.826 14.1818 31.5893 14.2547 31.3999 14.4006C31.2124 14.5445 31.0713 14.7405 30.9766 14.9886C30.8838 15.2348 30.8374 15.5114 30.8374 15.8182C30.8374 16.1288 30.8847 16.411 30.9794 16.6648C31.076 16.9167 31.218 17.1174 31.4055 17.267C31.5949 17.4148 31.8298 17.4886 32.1101 17.4886ZM36.6243 18.1023C36.3478 18.1023 36.0968 18.0502 35.8714 17.946C35.6461 17.84 35.4671 17.6875 35.3345 17.4886C35.2019 17.2879 35.1357 17.0455 35.1357 16.7614C35.1357 16.5114 35.1849 16.3087 35.2834 16.1534C35.3819 15.9962 35.5135 15.8731 35.6783 15.7841C35.843 15.6951 36.0249 15.6288 36.2237 15.5852C36.4245 15.5398 36.6262 15.5038 36.8288 15.4773C37.094 15.4432 37.3089 15.4176 37.4737 15.4006C37.6404 15.3816 37.7616 15.3504 37.8374 15.3068C37.915 15.2633 37.9538 15.1875 37.9538 15.0795V15.0568C37.9538 14.7765 37.8771 14.5587 37.7237 14.4034C37.5722 14.2481 37.3421 14.1705 37.0334 14.1705C36.7133 14.1705 36.4624 14.2405 36.2805 14.3807C36.0987 14.5208 35.9709 14.6705 35.897 14.8295L35.2607 14.6023C35.3743 14.3371 35.5258 14.1307 35.7152 13.983C35.9065 13.8333 36.1148 13.7292 36.3402 13.6705C36.5675 13.6098 36.791 13.5795 37.0107 13.5795C37.1508 13.5795 37.3118 13.5966 37.4936 13.6307C37.6773 13.6629 37.8544 13.7301 38.0249 13.8324C38.1972 13.9347 38.3402 14.089 38.4538 14.2955C38.5675 14.5019 38.6243 14.7784 38.6243 15.125V18H37.9538V17.4091H37.9197C37.8743 17.5038 37.7985 17.6051 37.6925 17.7131C37.5864 17.821 37.4453 17.9129 37.2692 17.9886C37.093 18.0644 36.8781 18.1023 36.6243 18.1023ZM36.7266 17.5C36.9917 17.5 37.2152 17.4479 37.397 17.3438C37.5807 17.2396 37.719 17.1051 37.8118 16.9403C37.9065 16.7756 37.9538 16.6023 37.9538 16.4205V15.8068C37.9254 15.8409 37.8629 15.8722 37.7663 15.9006C37.6716 15.9271 37.5618 15.9508 37.4368 15.9716C37.3137 15.9905 37.1934 16.0076 37.076 16.0227C36.9605 16.036 36.8667 16.0473 36.7947 16.0568C36.6205 16.0795 36.4576 16.1165 36.3061 16.1676C36.1565 16.2169 36.0353 16.2917 35.9425 16.392C35.8516 16.4905 35.8061 16.625 35.8061 16.7955C35.8061 17.0284 35.8923 17.2045 36.0646 17.3239C36.2389 17.4413 36.4595 17.5 36.7266 17.5ZM41.7457 13.6364V14.2045H39.4844V13.6364H41.7457ZM40.1435 12.5909H40.8139V16.75C40.8139 16.9394 40.8414 17.0814 40.8963 17.1761C40.9531 17.2689 41.0251 17.3314 41.1122 17.3636C41.2012 17.3939 41.295 17.4091 41.3935 17.4091C41.4673 17.4091 41.5279 17.4053 41.5753 17.3977C41.6226 17.3883 41.6605 17.3807 41.6889 17.375L41.8253 17.9773C41.7798 17.9943 41.7164 18.0114 41.6349 18.0284C41.5535 18.0473 41.4503 18.0568 41.3253 18.0568C41.1359 18.0568 40.9503 18.0161 40.7685 17.9347C40.5885 17.8532 40.4389 17.7292 40.3196 17.5625C40.2022 17.3958 40.1435 17.1856 40.1435 16.9318V12.5909ZM44.0384 18.1023C43.7618 18.1023 43.5109 18.0502 43.2855 17.946C43.0601 17.84 42.8812 17.6875 42.7486 17.4886C42.616 17.2879 42.5497 17.0455 42.5497 16.7614C42.5497 16.5114 42.599 16.3087 42.6974 16.1534C42.7959 15.9962 42.9276 15.8731 43.0923 15.7841C43.2571 15.6951 43.4389 15.6288 43.6378 15.5852C43.8385 15.5398 44.0402 15.5038 44.2429 15.4773C44.508 15.4432 44.723 15.4176 44.8878 15.4006C45.0545 15.3816 45.1757 15.3504 45.2514 15.3068C45.3291 15.2633 45.3679 15.1875 45.3679 15.0795V15.0568C45.3679 14.7765 45.2912 14.5587 45.1378 14.4034C44.9863 14.2481 44.7562 14.1705 44.4474 14.1705C44.1274 14.1705 43.8764 14.2405 43.6946 14.3807C43.5128 14.5208 43.3849 14.6705 43.3111 14.8295L42.6747 14.6023C42.7884 14.3371 42.9399 14.1307 43.1293 13.983C43.3205 13.8333 43.5289 13.7292 43.7543 13.6705C43.9815 13.6098 44.205 13.5795 44.4247 13.5795C44.5649 13.5795 44.7259 13.5966 44.9077 13.6307C45.0914 13.6629 45.2685 13.7301 45.4389 13.8324C45.6113 13.9347 45.7543 14.089 45.8679 14.2955C45.9815 14.5019 46.0384 14.7784 46.0384 15.125V18H45.3679V17.4091H45.3338C45.2884 17.5038 45.2126 17.6051 45.1065 17.7131C45.0005 17.821 44.8594 17.9129 44.6832 17.9886C44.5071 18.0644 44.2921 18.1023 44.0384 18.1023ZM44.1406 17.5C44.4058 17.5 44.6293 17.4479 44.8111 17.3438C44.9948 17.2396 45.133 17.1051 45.2259 16.9403C45.3205 16.7756 45.3679 16.6023 45.3679 16.4205V15.8068C45.3395 15.8409 45.277 15.8722 45.1804 15.9006C45.0857 15.9271 44.9759 15.9508 44.8509 15.9716C44.7277 15.9905 44.6075 16.0076 44.4901 16.0227C44.3745 16.036 44.2808 16.0473 44.2088 16.0568C44.0346 16.0795 43.8717 16.1165 43.7202 16.1676C43.5705 16.2169 43.4493 16.2917 43.3565 16.392C43.2656 16.4905 43.2202 16.625 43.2202 16.7955C43.2202 17.0284 43.3063 17.2045 43.4787 17.3239C43.6529 17.4413 43.8736 17.5 44.1406 17.5ZM51.4553 13.6364V14.2045H49.103V13.6364H51.4553ZM49.8075 18V13.0341C49.8075 12.7841 49.8662 12.5758 49.9837 12.4091C50.1011 12.2424 50.2536 12.1174 50.4411 12.0341C50.6286 11.9508 50.8265 11.9091 51.0348 11.9091C51.1996 11.9091 51.334 11.9223 51.4382 11.9489C51.5424 11.9754 51.62 12 51.6712 12.0227L51.478 12.6023C51.4439 12.5909 51.3965 12.5767 51.3359 12.5597C51.2772 12.5426 51.1996 12.5341 51.103 12.5341C50.8814 12.5341 50.7214 12.59 50.6229 12.7017C50.5263 12.8134 50.478 12.9773 50.478 13.1932V18H49.8075ZM52.3949 18V13.6364H53.0426V14.2955H53.0881C53.1676 14.0795 53.3116 13.9044 53.5199 13.7699C53.7282 13.6354 53.9631 13.5682 54.2244 13.5682C54.2737 13.5682 54.3352 13.5691 54.4091 13.571C54.483 13.5729 54.5388 13.5758 54.5767 13.5795V14.2614C54.554 14.2557 54.5019 14.2472 54.4205 14.2358C54.3409 14.2225 54.2566 14.2159 54.1676 14.2159C53.9555 14.2159 53.7661 14.2604 53.5994 14.3494C53.4347 14.4366 53.304 14.5578 53.2074 14.7131C53.1127 14.8665 53.0653 15.0417 53.0653 15.2386V18H52.3949ZM57.0114 18.0909C56.6174 18.0909 56.2718 17.9972 55.9744 17.8097C55.679 17.6222 55.4479 17.3598 55.2812 17.0227C55.1165 16.6856 55.0341 16.2917 55.0341 15.8409C55.0341 15.3864 55.1165 14.9896 55.2812 14.6506C55.4479 14.3116 55.679 14.0483 55.9744 13.8608C56.2718 13.6733 56.6174 13.5795 57.0114 13.5795C57.4053 13.5795 57.75 13.6733 58.0455 13.8608C58.3428 14.0483 58.5739 14.3116 58.7386 14.6506C58.9053 14.9896 58.9886 15.3864 58.9886 15.8409C58.9886 16.2917 58.9053 16.6856 58.7386 17.0227C58.5739 17.3598 58.3428 17.6222 58.0455 17.8097C57.75 17.9972 57.4053 18.0909 57.0114 18.0909ZM57.0114 17.4886C57.3106 17.4886 57.5568 17.4119 57.75 17.2585C57.9432 17.1051 58.0862 16.9034 58.179 16.6534C58.2718 16.4034 58.3182 16.1326 58.3182 15.8409C58.3182 15.5492 58.2718 15.2775 58.179 15.0256C58.0862 14.7737 57.9432 14.5701 57.75 14.4148C57.5568 14.2595 57.3106 14.1818 57.0114 14.1818C56.7121 14.1818 56.4659 14.2595 56.2727 14.4148C56.0795 14.5701 55.9366 14.7737 55.8438 15.0256C55.7509 15.2775 55.7045 15.5492 55.7045 15.8409C55.7045 16.1326 55.7509 16.4034 55.8438 16.6534C55.9366 16.9034 56.0795 17.1051 56.2727 17.2585C56.4659 17.4119 56.7121 17.4886 57.0114 17.4886ZM60.0121 18V13.6364H60.6598V14.3182H60.7166C60.8075 14.0852 60.9543 13.9044 61.157 13.7756C61.3596 13.6449 61.603 13.5795 61.8871 13.5795C62.175 13.5795 62.4145 13.6449 62.6058 13.7756C62.799 13.9044 62.9496 14.0852 63.0575 14.3182H63.103C63.2147 14.0928 63.3823 13.9138 63.6058 13.7812C63.8293 13.6468 64.0973 13.5795 64.4098 13.5795C64.8 13.5795 65.1191 13.7017 65.3672 13.946C65.6153 14.1884 65.7393 14.5663 65.7393 15.0795V18H65.0689V15.0795C65.0689 14.7576 64.9808 14.5275 64.8047 14.3892C64.6286 14.2509 64.4212 14.1818 64.1825 14.1818C63.8757 14.1818 63.638 14.2746 63.4695 14.4602C63.3009 14.6439 63.2166 14.8769 63.2166 15.1591V18H62.5348V15.0114C62.5348 14.7633 62.4543 14.5634 62.2933 14.4119C62.1323 14.2585 61.925 14.1818 61.6712 14.1818C61.4969 14.1818 61.334 14.2282 61.1825 14.321C61.0329 14.4138 60.9117 14.5426 60.8189 14.7074C60.728 14.8703 60.6825 15.0587 60.6825 15.2727V18H60.0121ZM73.9879 14H73.2834C73.2417 13.7973 73.1688 13.6193 73.0646 13.4659C72.9624 13.3125 72.8374 13.1837 72.6896 13.0795C72.5438 12.9735 72.3819 12.8939 72.2038 12.8409C72.0258 12.7879 71.8402 12.7614 71.647 12.7614C71.2947 12.7614 70.9756 12.8504 70.6896 13.0284C70.4055 13.2064 70.1792 13.4688 70.0107 13.8153C69.844 14.1619 69.7607 14.5871 69.7607 15.0909C69.7607 15.5947 69.844 16.0199 70.0107 16.3665C70.1792 16.7131 70.4055 16.9754 70.6896 17.1534C70.9756 17.3314 71.2947 17.4205 71.647 17.4205C71.8402 17.4205 72.0258 17.3939 72.2038 17.3409C72.3819 17.2879 72.5438 17.2093 72.6896 17.1051C72.8374 16.9991 72.9624 16.8693 73.0646 16.7159C73.1688 16.5606 73.2417 16.3826 73.2834 16.1818H73.9879C73.9349 16.4792 73.8383 16.7453 73.6982 16.9801C73.558 17.215 73.3838 17.4148 73.1754 17.5795C72.9671 17.7424 72.7332 17.8665 72.4737 17.9517C72.2161 18.0369 71.9406 18.0795 71.647 18.0795C71.1508 18.0795 70.7095 17.9583 70.3232 17.7159C69.9368 17.4735 69.6328 17.1288 69.4112 16.6818C69.1896 16.2348 69.0788 15.7045 69.0788 15.0909C69.0788 14.4773 69.1896 13.947 69.4112 13.5C69.6328 13.053 69.9368 12.7083 70.3232 12.4659C70.7095 12.2235 71.1508 12.1023 71.647 12.1023C71.9406 12.1023 72.2161 12.1449 72.4737 12.2301C72.7332 12.3153 72.9671 12.4403 73.1754 12.6051C73.3838 12.768 73.558 12.9669 73.6982 13.2017C73.8383 13.4347 73.9349 13.7008 73.9879 14ZM75.1264 18V12.1818H77.0923C77.5469 12.1818 77.92 12.2595 78.2116 12.4148C78.5033 12.5682 78.7192 12.7794 78.8594 13.0483C78.9995 13.3172 79.0696 13.6231 79.0696 13.9659C79.0696 14.3087 78.9995 14.6127 78.8594 14.8778C78.7192 15.143 78.5043 15.3513 78.2145 15.5028C77.9247 15.6525 77.5545 15.7273 77.1037 15.7273H75.5128V15.0909H77.081C77.3916 15.0909 77.6416 15.0455 77.831 14.9545C78.0223 14.8636 78.1605 14.7348 78.2457 14.5682C78.3329 14.3996 78.3764 14.1989 78.3764 13.9659C78.3764 13.733 78.3329 13.5294 78.2457 13.3551C78.1586 13.1809 78.0194 13.0464 77.8281 12.9517C77.6368 12.8551 77.384 12.8068 77.0696 12.8068H75.831V18H75.1264ZM77.8651 15.3864L79.2969 18H78.4787L77.0696 15.3864H77.8651ZM80.2436 12.1818H81.0845L83.0618 17.0114H83.13L85.1072 12.1818H85.9482V18H85.2891V13.5795H85.2322L83.4141 18H82.7777L80.9595 13.5795H80.9027V18H80.2436V12.1818Z" fill="#D97706"/>
<path d="M228.705 48.1818H229.545L231.523 53.0114H231.591L233.568 48.1818H234.409V54H233.75V49.5795H233.693L231.875 54H231.239L229.42 49.5795H229.364V54H228.705V48.1818ZM237.56 54.0909C237.14 54.0909 236.777 53.9981 236.472 53.8125C236.169 53.625 235.935 53.3636 235.771 53.0284C235.608 52.6913 235.526 52.2992 235.526 51.8523C235.526 51.4053 235.608 51.0114 235.771 50.6705C235.935 50.3277 236.165 50.0606 236.458 49.8693C236.754 49.6761 237.098 49.5795 237.492 49.5795C237.719 49.5795 237.944 49.6174 238.165 49.6932C238.387 49.7689 238.589 49.892 238.771 50.0625C238.952 50.2311 239.097 50.4545 239.205 50.733C239.313 51.0114 239.367 51.3542 239.367 51.7614V52.0455H236.004V51.4659H238.685C238.685 51.2197 238.636 51 238.538 50.8068C238.441 50.6136 238.303 50.4612 238.123 50.3494C237.945 50.2377 237.735 50.1818 237.492 50.1818C237.225 50.1818 236.994 50.2481 236.799 50.3807C236.606 50.5114 236.457 50.6818 236.353 50.892C236.249 51.1023 236.197 51.3277 236.197 51.5682V51.9545C236.197 52.2841 236.254 52.5634 236.367 52.7926C236.483 53.0199 236.643 53.1932 236.847 53.3125C237.052 53.4299 237.29 53.4886 237.56 53.4886C237.737 53.4886 237.896 53.464 238.038 53.4148C238.182 53.3636 238.306 53.2879 238.41 53.1875C238.514 53.0852 238.594 52.9583 238.651 52.8068L239.299 52.9886C239.231 53.2083 239.116 53.4015 238.955 53.5682C238.794 53.733 238.595 53.8617 238.359 53.9545C238.122 54.0455 237.856 54.0909 237.56 54.0909ZM240.387 54V49.6364H241.035V50.2955H241.08C241.16 50.0795 241.304 49.9044 241.512 49.7699C241.72 49.6354 241.955 49.5682 242.217 49.5682C242.266 49.5682 242.327 49.5691 242.401 49.571C242.475 49.5729 242.531 49.5758 242.569 49.5795V50.2614C242.546 50.2557 242.494 50.2472 242.413 50.2358C242.333 50.2225 242.249 50.2159 242.16 50.2159C241.948 50.2159 241.758 50.2604 241.592 50.3494C241.427 50.4366 241.296 50.5578 241.2 50.7131C241.105 50.8665 241.058 51.0417 241.058 51.2386V54H240.387ZM244.992 55.7273C244.668 55.7273 244.39 55.6856 244.157 55.6023C243.924 55.5208 243.73 55.4129 243.575 55.2784C243.421 55.1458 243.299 55.0038 243.208 54.8523L243.742 54.4773C243.803 54.5568 243.879 54.6477 243.972 54.75C244.065 54.8542 244.192 54.9441 244.353 55.0199C244.516 55.0975 244.729 55.1364 244.992 55.1364C245.344 55.1364 245.635 55.0511 245.864 54.8807C246.094 54.7102 246.208 54.4432 246.208 54.0795V53.1932H246.151C246.102 53.2727 246.032 53.3712 245.941 53.4886C245.852 53.6042 245.723 53.7074 245.555 53.7983C245.388 53.8873 245.163 53.9318 244.879 53.9318C244.526 53.9318 244.21 53.8485 243.93 53.6818C243.651 53.5152 243.431 53.2727 243.268 52.9545C243.107 52.6364 243.026 52.25 243.026 51.7955C243.026 51.3485 243.105 50.9593 243.262 50.6278C243.419 50.2945 243.638 50.0369 243.918 49.8551C244.199 49.6714 244.522 49.5795 244.89 49.5795C245.174 49.5795 245.399 49.6269 245.566 49.7216C245.735 49.8144 245.863 49.9205 245.952 50.0398C246.043 50.1572 246.113 50.2538 246.163 50.3295H246.231V49.6364H246.879V54.125C246.879 54.5 246.793 54.8049 246.623 55.0398C246.454 55.2765 246.227 55.4498 245.941 55.5597C245.657 55.6714 245.341 55.7273 244.992 55.7273ZM244.969 53.3295C245.238 53.3295 245.466 53.268 245.651 53.1449C245.837 53.0218 245.978 52.8447 246.075 52.6136C246.171 52.3826 246.219 52.1061 246.219 51.7841C246.219 51.4697 246.172 51.1922 246.077 50.9517C245.983 50.7112 245.843 50.5227 245.657 50.3864C245.471 50.25 245.242 50.1818 244.969 50.1818C244.685 50.1818 244.449 50.2538 244.259 50.3977C244.072 50.5417 243.931 50.7348 243.836 50.9773C243.743 51.2197 243.697 51.4886 243.697 51.7841C243.697 52.0871 243.744 52.3551 243.839 52.5881C243.935 52.8191 244.077 53.0009 244.265 53.1335C244.454 53.2642 244.689 53.3295 244.969 53.3295ZM249.935 54.0909C249.515 54.0909 249.152 53.9981 248.847 53.8125C248.544 53.625 248.31 53.3636 248.146 53.0284C247.983 52.6913 247.901 52.2992 247.901 51.8523C247.901 51.4053 247.983 51.0114 248.146 50.6705C248.31 50.3277 248.54 50.0606 248.833 49.8693C249.129 49.6761 249.473 49.5795 249.867 49.5795C250.094 49.5795 250.319 49.6174 250.54 49.6932C250.762 49.7689 250.964 49.892 251.146 50.0625C251.327 50.2311 251.472 50.4545 251.58 50.733C251.688 51.0114 251.742 51.3542 251.742 51.7614V52.0455H248.379V51.4659H251.06C251.06 51.2197 251.011 51 250.913 50.8068C250.816 50.6136 250.678 50.4612 250.498 50.3494C250.32 50.2377 250.11 50.1818 249.867 50.1818C249.6 50.1818 249.369 50.2481 249.174 50.3807C248.981 50.5114 248.832 50.6818 248.728 50.892C248.624 51.1023 248.572 51.3277 248.572 51.5682V51.9545C248.572 52.2841 248.629 52.5634 248.742 52.7926C248.858 53.0199 249.018 53.1932 249.222 53.3125C249.427 53.4299 249.665 53.4886 249.935 53.4886C250.112 53.4886 250.271 53.464 250.413 53.4148C250.557 53.3636 250.681 53.2879 250.785 53.1875C250.889 53.0852 250.969 52.9583 251.026 52.8068L251.674 52.9886C251.606 53.2083 251.491 53.4015 251.33 53.5682C251.169 53.733 250.97 53.8617 250.734 53.9545C250.497 54.0455 250.231 54.0909 249.935 54.0909ZM256.66 54.0909C256.296 54.0909 255.975 53.9991 255.697 53.8153C255.418 53.6297 255.201 53.3684 255.043 53.0312C254.886 52.6922 254.808 52.2917 254.808 51.8295C254.808 51.3712 254.886 50.9735 255.043 50.6364C255.201 50.2992 255.419 50.0388 255.7 49.8551C255.98 49.6714 256.304 49.5795 256.671 49.5795C256.955 49.5795 257.18 49.6269 257.344 49.7216C257.511 49.8144 257.638 49.9205 257.725 50.0398C257.814 50.1572 257.883 50.2538 257.933 50.3295H257.989V48.1818H258.66V54H258.012V53.3295H257.933C257.883 53.4091 257.813 53.5095 257.722 53.6307C257.631 53.75 257.502 53.857 257.333 53.9517C257.165 54.0445 256.94 54.0909 256.66 54.0909ZM256.751 53.4886C257.02 53.4886 257.247 53.4186 257.433 53.2784C257.618 53.1364 257.759 52.9403 257.856 52.6903C257.952 52.4384 258.001 52.1477 258.001 51.8182C258.001 51.4924 257.953 51.2074 257.859 50.9631C257.764 50.7169 257.624 50.5256 257.438 50.3892C257.253 50.2509 257.023 50.1818 256.751 50.1818C256.467 50.1818 256.23 50.2547 256.04 50.4006C255.853 50.5445 255.712 50.7405 255.617 50.9886C255.524 51.2348 255.478 51.5114 255.478 51.8182C255.478 52.1288 255.525 52.411 255.62 52.6648C255.717 52.9167 255.859 53.1174 256.046 53.267C256.236 53.4148 256.47 53.4886 256.751 53.4886ZM261.265 54.1023C260.988 54.1023 260.737 54.0502 260.512 53.946C260.287 53.84 260.108 53.6875 259.975 53.4886C259.843 53.2879 259.776 53.0455 259.776 52.7614C259.776 52.5114 259.826 52.3087 259.924 52.1534C260.022 51.9962 260.154 51.8731 260.319 51.7841C260.484 51.6951 260.665 51.6288 260.864 51.5852C261.065 51.5398 261.267 51.5038 261.469 51.4773C261.735 51.4432 261.95 51.4176 262.114 51.4006C262.281 51.3816 262.402 51.3504 262.478 51.3068C262.556 51.2633 262.594 51.1875 262.594 51.0795V51.0568C262.594 50.7765 262.518 50.5587 262.364 50.4034C262.213 50.2481 261.983 50.1705 261.674 50.1705C261.354 50.1705 261.103 50.2405 260.921 50.3807C260.739 50.5208 260.612 50.6705 260.538 50.8295L259.901 50.6023C260.015 50.3371 260.166 50.1307 260.356 49.983C260.547 49.8333 260.755 49.7292 260.981 49.6705C261.208 49.6098 261.432 49.5795 261.651 49.5795C261.791 49.5795 261.952 49.5966 262.134 49.6307C262.318 49.6629 262.495 49.7301 262.665 49.8324C262.838 49.9347 262.981 50.089 263.094 50.2955C263.208 50.5019 263.265 50.7784 263.265 51.125V54H262.594V53.4091H262.56C262.515 53.5038 262.439 53.6051 262.333 53.7131C262.227 53.821 262.086 53.9129 261.91 53.9886C261.734 54.0644 261.519 54.1023 261.265 54.1023ZM261.367 53.5C261.632 53.5 261.856 53.4479 262.038 53.3438C262.221 53.2396 262.36 53.1051 262.452 52.9403C262.547 52.7756 262.594 52.6023 262.594 52.4205V51.8068C262.566 51.8409 262.504 51.8722 262.407 51.9006C262.312 51.9271 262.202 51.9508 262.077 51.9716C261.954 51.9905 261.834 52.0076 261.717 52.0227C261.601 52.036 261.507 52.0473 261.435 52.0568C261.261 52.0795 261.098 52.1165 260.947 52.1676C260.797 52.2169 260.676 52.2917 260.583 52.392C260.492 52.4905 260.447 52.625 260.447 52.7955C260.447 53.0284 260.533 53.2045 260.705 53.3239C260.879 53.4413 261.1 53.5 261.367 53.5ZM266.386 49.6364V50.2045H264.125V49.6364H266.386ZM264.784 48.5909H265.455V52.75C265.455 52.9394 265.482 53.0814 265.537 53.1761C265.594 53.2689 265.666 53.3314 265.753 53.3636C265.842 53.3939 265.936 53.4091 266.034 53.4091C266.108 53.4091 266.169 53.4053 266.216 53.3977C266.263 53.3883 266.301 53.3807 266.33 53.375L266.466 53.9773C266.42 53.9943 266.357 54.0114 266.276 54.0284C266.194 54.0473 266.091 54.0568 265.966 54.0568C265.777 54.0568 265.591 54.0161 265.409 53.9347C265.229 53.8532 265.08 53.7292 264.96 53.5625C264.843 53.3958 264.784 53.1856 264.784 52.9318V48.5909ZM268.679 54.1023C268.402 54.1023 268.152 54.0502 267.926 53.946C267.701 53.84 267.522 53.6875 267.389 53.4886C267.257 53.2879 267.19 53.0455 267.19 52.7614C267.19 52.5114 267.24 52.3087 267.338 52.1534C267.437 51.9962 267.568 51.8731 267.733 51.7841C267.898 51.6951 268.08 51.6288 268.278 51.5852C268.479 51.5398 268.681 51.5038 268.884 51.4773C269.149 51.4432 269.364 51.4176 269.528 51.4006C269.695 51.3816 269.816 51.3504 269.892 51.3068C269.97 51.2633 270.009 51.1875 270.009 51.0795V51.0568C270.009 50.7765 269.932 50.5587 269.778 50.4034C269.627 50.2481 269.397 50.1705 269.088 50.1705C268.768 50.1705 268.517 50.2405 268.335 50.3807C268.153 50.5208 268.026 50.6705 267.952 50.8295L267.315 50.6023C267.429 50.3371 267.58 50.1307 267.77 49.983C267.961 49.8333 268.17 49.7292 268.395 49.6705C268.622 49.6098 268.846 49.5795 269.065 49.5795C269.205 49.5795 269.366 49.5966 269.548 49.6307C269.732 49.6629 269.909 49.7301 270.08 49.8324C270.252 49.9347 270.395 50.089 270.509 50.2955C270.622 50.5019 270.679 50.7784 270.679 51.125V54H270.009V53.4091H269.974C269.929 53.5038 269.853 53.6051 269.747 53.7131C269.641 53.821 269.5 53.9129 269.324 53.9886C269.148 54.0644 268.933 54.1023 268.679 54.1023ZM268.781 53.5C269.046 53.5 269.27 53.4479 269.452 53.3438C269.635 53.2396 269.774 53.1051 269.866 52.9403C269.961 52.7756 270.009 52.6023 270.009 52.4205V51.8068C269.98 51.8409 269.918 51.8722 269.821 51.9006C269.726 51.9271 269.616 51.9508 269.491 51.9716C269.368 51.9905 269.248 52.0076 269.131 52.0227C269.015 52.036 268.921 52.0473 268.849 52.0568C268.675 52.0795 268.512 52.1165 268.361 52.1676C268.211 52.2169 268.09 52.2917 267.997 52.392C267.906 52.4905 267.861 52.625 267.861 52.7955C267.861 53.0284 267.947 53.2045 268.119 53.3239C268.294 53.4413 268.514 53.5 268.781 53.5Z" fill="#2563EB"/>
<rect x="200.25" y="36.25" width="99.5" height="29.5" rx="4.75" stroke="#2563EB" stroke-width="0.5"/>
<path d="M228.705 48.1818H229.545L231.523 53.0114H231.591L233.568 48.1818H234.409V54H233.75V49.5795H233.693L231.875 54H231.239L229.42 49.5795H229.364V54H228.705V48.1818ZM237.56 54.0909C237.14 54.0909 236.777 53.9981 236.472 53.8125C236.169 53.625 235.935 53.3636 235.771 53.0284C235.608 52.6913 235.526 52.2992 235.526 51.8523C235.526 51.4053 235.608 51.0114 235.771 50.6705C235.935 50.3277 236.165 50.0606 236.458 49.8693C236.754 49.6761 237.098 49.5795 237.492 49.5795C237.719 49.5795 237.944 49.6174 238.165 49.6932C238.387 49.7689 238.589 49.892 238.771 50.0625C238.952 50.2311 239.097 50.4545 239.205 50.733C239.313 51.0114 239.367 51.3542 239.367 51.7614V52.0455H236.004V51.4659H238.685C238.685 51.2197 238.636 51 238.538 50.8068C238.441 50.6136 238.303 50.4612 238.123 50.3494C237.945 50.2377 237.735 50.1818 237.492 50.1818C237.225 50.1818 236.994 50.2481 236.799 50.3807C236.606 50.5114 236.457 50.6818 236.353 50.892C236.249 51.1023 236.197 51.3277 236.197 51.5682V51.9545C236.197 52.2841 236.254 52.5634 236.367 52.7926C236.483 53.0199 236.643 53.1932 236.847 53.3125C237.052 53.4299 237.29 53.4886 237.56 53.4886C237.737 53.4886 237.896 53.464 238.038 53.4148C238.182 53.3636 238.306 53.2879 238.41 53.1875C238.514 53.0852 238.594 52.9583 238.651 52.8068L239.299 52.9886C239.231 53.2083 239.116 53.4015 238.955 53.5682C238.794 53.733 238.595 53.8617 238.359 53.9545C238.122 54.0455 237.856 54.0909 237.56 54.0909ZM240.387 54V49.6364H241.035V50.2955H241.08C241.16 50.0795 241.304 49.9044 241.512 49.7699C241.72 49.6354 241.955 49.5682 242.217 49.5682C242.266 49.5682 242.327 49.5691 242.401 49.571C242.475 49.5729 242.531 49.5758 242.569 49.5795V50.2614C242.546 50.2557 242.494 50.2472 242.413 50.2358C242.333 50.2225 242.249 50.2159 242.16 50.2159C241.948 50.2159 241.758 50.2604 241.592 50.3494C241.427 50.4366 241.296 50.5578 241.2 50.7131C241.105 50.8665 241.058 51.0417 241.058 51.2386V54H240.387ZM244.992 55.7273C244.668 55.7273 244.39 55.6856 244.157 55.6023C243.924 55.5208 243.73 55.4129 243.575 55.2784C243.421 55.1458 243.299 55.0038 243.208 54.8523L243.742 54.4773C243.803 54.5568 243.879 54.6477 243.972 54.75C244.065 54.8542 244.192 54.9441 244.353 55.0199C244.516 55.0975 244.729 55.1364 244.992 55.1364C245.344 55.1364 245.635 55.0511 245.864 54.8807C246.094 54.7102 246.208 54.4432 246.208 54.0795V53.1932H246.151C246.102 53.2727 246.032 53.3712 245.941 53.4886C245.852 53.6042 245.723 53.7074 245.555 53.7983C245.388 53.8873 245.163 53.9318 244.879 53.9318C244.526 53.9318 244.21 53.8485 243.93 53.6818C243.651 53.5152 243.431 53.2727 243.268 52.9545C243.107 52.6364 243.026 52.25 243.026 51.7955C243.026 51.3485 243.105 50.9593 243.262 50.6278C243.419 50.2945 243.638 50.0369 243.918 49.8551C244.199 49.6714 244.522 49.5795 244.89 49.5795C245.174 49.5795 245.399 49.6269 245.566 49.7216C245.735 49.8144 245.863 49.9205 245.952 50.0398C246.043 50.1572 246.113 50.2538 246.163 50.3295H246.231V49.6364H246.879V54.125C246.879 54.5 246.793 54.8049 246.623 55.0398C246.454 55.2765 246.227 55.4498 245.941 55.5597C245.657 55.6714 245.341 55.7273 244.992 55.7273ZM244.969 53.3295C245.238 53.3295 245.466 53.268 245.651 53.1449C245.837 53.0218 245.978 52.8447 246.075 52.6136C246.171 52.3826 246.219 52.1061 246.219 51.7841C246.219 51.4697 246.172 51.1922 246.077 50.9517C245.983 50.7112 245.843 50.5227 245.657 50.3864C245.471 50.25 245.242 50.1818 244.969 50.1818C244.685 50.1818 244.449 50.2538 244.259 50.3977C244.072 50.5417 243.931 50.7348 243.836 50.9773C243.743 51.2197 243.697 51.4886 243.697 51.7841C243.697 52.0871 243.744 52.3551 243.839 52.5881C243.935 52.8191 244.077 53.0009 244.265 53.1335C244.454 53.2642 244.689 53.3295 244.969 53.3295ZM249.935 54.0909C249.515 54.0909 249.152 53.9981 248.847 53.8125C248.544 53.625 248.31 53.3636 248.146 53.0284C247.983 52.6913 247.901 52.2992 247.901 51.8523C247.901 51.4053 247.983 51.0114 248.146 50.6705C248.31 50.3277 248.54 50.0606 248.833 49.8693C249.129 49.6761 249.473 49.5795 249.867 49.5795C250.094 49.5795 250.319 49.6174 250.54 49.6932C250.762 49.7689 250.964 49.892 251.146 50.0625C251.327 50.2311 251.472 50.4545 251.58 50.733C251.688 51.0114 251.742 51.3542 251.742 51.7614V52.0455H248.379V51.4659H251.06C251.06 51.2197 251.011 51 250.913 50.8068C250.816 50.6136 250.678 50.4612 250.498 50.3494C250.32 50.2377 250.11 50.1818 249.867 50.1818C249.6 50.1818 249.369 50.2481 249.174 50.3807C248.981 50.5114 248.832 50.6818 248.728 50.892C248.624 51.1023 248.572 51.3277 248.572 51.5682V51.9545C248.572 52.2841 248.629 52.5634 248.742 52.7926C248.858 53.0199 249.018 53.1932 249.222 53.3125C249.427 53.4299 249.665 53.4886 249.935 53.4886C250.112 53.4886 250.271 53.464 250.413 53.4148C250.557 53.3636 250.681 53.2879 250.785 53.1875C250.889 53.0852 250.969 52.9583 251.026 52.8068L251.674 52.9886C251.606 53.2083 251.491 53.4015 251.33 53.5682C251.169 53.733 250.97 53.8617 250.734 53.9545C250.497 54.0455 250.231 54.0909 249.935 54.0909ZM256.66 54.0909C256.296 54.0909 255.975 53.9991 255.697 53.8153C255.418 53.6297 255.201 53.3684 255.043 53.0312C254.886 52.6922 254.808 52.2917 254.808 51.8295C254.808 51.3712 254.886 50.9735 255.043 50.6364C255.201 50.2992 255.419 50.0388 255.7 49.8551C255.98 49.6714 256.304 49.5795 256.671 49.5795C256.955 49.5795 257.18 49.6269 257.344 49.7216C257.511 49.8144 257.638 49.9205 257.725 50.0398C257.814 50.1572 257.883 50.2538 257.933 50.3295H257.989V48.1818H258.66V54H258.012V53.3295H257.933C257.883 53.4091 257.813 53.5095 257.722 53.6307C257.631 53.75 257.502 53.857 257.333 53.9517C257.165 54.0445 256.94 54.0909 256.66 54.0909ZM256.751 53.4886C257.02 53.4886 257.247 53.4186 257.433 53.2784C257.618 53.1364 257.759 52.9403 257.856 52.6903C257.952 52.4384 258.001 52.1477 258.001 51.8182C258.001 51.4924 257.953 51.2074 257.859 50.9631C257.764 50.7169 257.624 50.5256 257.438 50.3892C257.253 50.2509 257.023 50.1818 256.751 50.1818C256.467 50.1818 256.23 50.2547 256.04 50.4006C255.853 50.5445 255.712 50.7405 255.617 50.9886C255.524 51.2348 255.478 51.5114 255.478 51.8182C255.478 52.1288 255.525 52.411 255.62 52.6648C255.717 52.9167 255.859 53.1174 256.046 53.267C256.236 53.4148 256.47 53.4886 256.751 53.4886ZM261.265 54.1023C260.988 54.1023 260.737 54.0502 260.512 53.946C260.287 53.84 260.108 53.6875 259.975 53.4886C259.843 53.2879 259.776 53.0455 259.776 52.7614C259.776 52.5114 259.826 52.3087 259.924 52.1534C260.022 51.9962 260.154 51.8731 260.319 51.7841C260.484 51.6951 260.665 51.6288 260.864 51.5852C261.065 51.5398 261.267 51.5038 261.469 51.4773C261.735 51.4432 261.95 51.4176 262.114 51.4006C262.281 51.3816 262.402 51.3504 262.478 51.3068C262.556 51.2633 262.594 51.1875 262.594 51.0795V51.0568C262.594 50.7765 262.518 50.5587 262.364 50.4034C262.213 50.2481 261.983 50.1705 261.674 50.1705C261.354 50.1705 261.103 50.2405 260.921 50.3807C260.739 50.5208 260.612 50.6705 260.538 50.8295L259.901 50.6023C260.015 50.3371 260.166 50.1307 260.356 49.983C260.547 49.8333 260.755 49.7292 260.981 49.6705C261.208 49.6098 261.432 49.5795 261.651 49.5795C261.791 49.5795 261.952 49.5966 262.134 49.6307C262.318 49.6629 262.495 49.7301 262.665 49.8324C262.838 49.9347 262.981 50.089 263.094 50.2955C263.208 50.5019 263.265 50.7784 263.265 51.125V54H262.594V53.4091H262.56C262.515 53.5038 262.439 53.6051 262.333 53.7131C262.227 53.821 262.086 53.9129 261.91 53.9886C261.734 54.0644 261.519 54.1023 261.265 54.1023ZM261.367 53.5C261.632 53.5 261.856 53.4479 262.038 53.3438C262.221 53.2396 262.36 53.1051 262.452 52.9403C262.547 52.7756 262.594 52.6023 262.594 52.4205V51.8068C262.566 51.8409 262.504 51.8722 262.407 51.9006C262.312 51.9271 262.202 51.9508 262.077 51.9716C261.954 51.9905 261.834 52.0076 261.717 52.0227C261.601 52.036 261.507 52.0473 261.435 52.0568C261.261 52.0795 261.098 52.1165 260.947 52.1676C260.797 52.2169 260.676 52.2917 260.583 52.392C260.492 52.4905 260.447 52.625 260.447 52.7955C260.447 53.0284 260.533 53.2045 260.705 53.3239C260.879 53.4413 261.1 53.5 261.367 53.5ZM266.386 49.6364V50.2045H264.125V49.6364H266.386ZM264.784 48.5909H265.455V52.75C265.455 52.9394 265.482 53.0814 265.537 53.1761C265.594 53.2689 265.666 53.3314 265.753 53.3636C265.842 53.3939 265.936 53.4091 266.034 53.4091C266.108 53.4091 266.169 53.4053 266.216 53.3977C266.263 53.3883 266.301 53.3807 266.33 53.375L266.466 53.9773C266.42 53.9943 266.357 54.0114 266.276 54.0284C266.194 54.0473 266.091 54.0568 265.966 54.0568C265.777 54.0568 265.591 54.0161 265.409 53.9347C265.229 53.8532 265.08 53.7292 264.96 53.5625C264.843 53.3958 264.784 53.1856 264.784 52.9318V48.5909ZM268.679 54.1023C268.402 54.1023 268.152 54.0502 267.926 53.946C267.701 53.84 267.522 53.6875 267.389 53.4886C267.257 53.2879 267.19 53.0455 267.19 52.7614C267.19 52.5114 267.24 52.3087 267.338 52.1534C267.437 51.9962 267.568 51.8731 267.733 51.7841C267.898 51.6951 268.08 51.6288 268.278 51.5852C268.479 51.5398 268.681 51.5038 268.884 51.4773C269.149 51.4432 269.364 51.4176 269.528 51.4006C269.695 51.3816 269.816 51.3504 269.892 51.3068C269.97 51.2633 270.009 51.1875 270.009 51.0795V51.0568C270.009 50.7765 269.932 50.5587 269.778 50.4034C269.627 50.2481 269.397 50.1705 269.088 50.1705C268.768 50.1705 268.517 50.2405 268.335 50.3807C268.153 50.5208 268.026 50.6705 267.952 50.8295L267.315 50.6023C267.429 50.3371 267.58 50.1307 267.77 49.983C267.961 49.8333 268.17 49.7292 268.395 49.6705C268.622 49.6098 268.846 49.5795 269.065 49.5795C269.205 49.5795 269.366 49.5966 269.548 49.6307C269.732 49.6629 269.909 49.7301 270.08 49.8324C270.252 49.9347 270.395 50.089 270.509 50.2955C270.622 50.5019 270.679 50.7784 270.679 51.125V54H270.009V53.4091H269.974C269.929 53.5038 269.853 53.6051 269.747 53.7131C269.641 53.821 269.5 53.9129 269.324 53.9886C269.148 54.0644 268.933 54.1023 268.679 54.1023ZM268.781 53.5C269.046 53.5 269.27 53.4479 269.452 53.3438C269.635 53.2396 269.774 53.1051 269.866 52.9403C269.961 52.7756 270.009 52.6023 270.009 52.4205V51.8068C269.98 51.8409 269.918 51.8722 269.821 51.9006C269.726 51.9271 269.616 51.9508 269.491 51.9716C269.368 51.9905 269.248 52.0076 269.131 52.0227C269.015 52.036 268.921 52.0473 268.849 52.0568C268.675 52.0795 268.512 52.1165 268.361 52.1676C268.211 52.2169 268.09 52.2917 267.997 52.392C267.906 52.4905 267.861 52.625 267.861 52.7955C267.861 53.0284 267.947 53.2045 268.119 53.3239C268.294 53.4413 268.514 53.5 268.781 53.5Z" fill="#2563EB"/>
<rect x="350.25" y="36.25" width="99.5" height="29.5" rx="4.75" stroke="#059669" stroke-width="0.5"/>
<path d="M366.82 44.6364C366.786 44.3485 366.648 44.125 366.405 43.9659C366.163 43.8068 365.865 43.7273 365.513 43.7273C365.256 43.7273 365.03 43.7689 364.837 43.8523C364.646 43.9356 364.496 44.0502 364.388 44.196C364.282 44.3419 364.229 44.5076 364.229 44.6932C364.229 44.8485 364.266 44.982 364.34 45.0938C364.416 45.2036 364.512 45.2955 364.63 45.3693C364.747 45.4413 364.87 45.5009 364.999 45.5483C365.128 45.5937 365.246 45.6307 365.354 45.6591L365.945 45.8182C366.096 45.858 366.265 45.9129 366.451 45.983C366.638 46.053 366.817 46.1487 366.988 46.2699C367.16 46.3892 367.302 46.5426 367.414 46.7301C367.525 46.9176 367.581 47.1477 367.581 47.4205C367.581 47.7348 367.499 48.0189 367.334 48.2727C367.171 48.5265 366.933 48.7282 366.618 48.8778C366.306 49.0275 365.926 49.1023 365.479 49.1023C365.062 49.1023 364.702 49.035 364.397 48.9006C364.094 48.7661 363.855 48.5786 363.681 48.3381C363.508 48.0975 363.411 47.8182 363.388 47.5H364.115C364.134 47.7197 364.208 47.9015 364.337 48.0455C364.468 48.1875 364.632 48.2936 364.831 48.3636C365.032 48.4318 365.248 48.4659 365.479 48.4659C365.748 48.4659 365.989 48.4223 366.203 48.3352C366.417 48.2462 366.587 48.1231 366.712 47.9659C366.837 47.8068 366.9 47.6212 366.9 47.4091C366.9 47.2159 366.846 47.0587 366.738 46.9375C366.63 46.8163 366.488 46.7178 366.311 46.642C366.135 46.5663 365.945 46.5 365.74 46.4432L365.025 46.2386C364.57 46.108 364.21 45.9214 363.945 45.679C363.68 45.4366 363.547 45.1193 363.547 44.7273C363.547 44.4015 363.635 44.1174 363.811 43.875C363.989 43.6307 364.228 43.4413 364.527 43.3068C364.828 43.1705 365.165 43.1023 365.536 43.1023C365.911 43.1023 366.244 43.1695 366.536 43.304C366.828 43.4366 367.059 43.6184 367.229 43.8494C367.401 44.0805 367.492 44.3428 367.502 44.6364H366.82ZM370.547 44.6364V45.2045H368.285V44.6364H370.547ZM368.944 43.5909H369.615V47.75C369.615 47.9394 369.642 48.0814 369.697 48.1761C369.754 48.2689 369.826 48.3314 369.913 48.3636C370.002 48.3939 370.096 48.4091 370.194 48.4091C370.268 48.4091 370.329 48.4053 370.376 48.3977C370.423 48.3883 370.461 48.3807 370.49 48.375L370.626 48.9773C370.581 48.9943 370.517 49.0114 370.436 49.0284C370.354 49.0473 370.251 49.0568 370.126 49.0568C369.937 49.0568 369.751 49.0161 369.569 48.9347C369.389 48.8532 369.24 48.7292 369.12 48.5625C369.003 48.3958 368.944 48.1856 368.944 47.9318V43.5909ZM373.281 49.0909C372.887 49.0909 372.541 48.9972 372.244 48.8097C371.949 48.6222 371.717 48.3598 371.551 48.0227C371.386 47.6856 371.304 47.2917 371.304 46.8409C371.304 46.3864 371.386 45.9896 371.551 45.6506C371.717 45.3116 371.949 45.0483 372.244 44.8608C372.541 44.6733 372.887 44.5795 373.281 44.5795C373.675 44.5795 374.02 44.6733 374.315 44.8608C374.612 45.0483 374.843 45.3116 375.008 45.6506C375.175 45.9896 375.258 46.3864 375.258 46.8409C375.258 47.2917 375.175 47.6856 375.008 48.0227C374.843 48.3598 374.612 48.6222 374.315 48.8097C374.02 48.9972 373.675 49.0909 373.281 49.0909ZM373.281 48.4886C373.58 48.4886 373.826 48.4119 374.02 48.2585C374.213 48.1051 374.356 47.9034 374.449 47.6534C374.541 47.4034 374.588 47.1326 374.588 46.8409C374.588 46.5492 374.541 46.2775 374.449 46.0256C374.356 45.7737 374.213 45.5701 374.02 45.4148C373.826 45.2595 373.58 45.1818 373.281 45.1818C372.982 45.1818 372.735 45.2595 372.542 45.4148C372.349 45.5701 372.206 45.7737 372.113 46.0256C372.02 46.2775 371.974 46.5492 371.974 46.8409C371.974 47.1326 372.02 47.4034 372.113 47.6534C372.206 47.9034 372.349 48.1051 372.542 48.2585C372.735 48.4119 372.982 48.4886 373.281 48.4886ZM376.282 49V44.6364H376.929V45.2955H376.975C377.054 45.0795 377.198 44.9044 377.407 44.7699C377.615 44.6354 377.85 44.5682 378.111 44.5682C378.16 44.5682 378.222 44.5691 378.296 44.571C378.37 44.5729 378.426 44.5758 378.463 44.5795V45.2614C378.441 45.2557 378.389 45.2472 378.307 45.2358C378.228 45.2225 378.143 45.2159 378.054 45.2159C377.842 45.2159 377.653 45.2604 377.486 45.3494C377.321 45.4366 377.191 45.5578 377.094 45.7131C376.999 45.8665 376.952 46.0417 376.952 46.2386V49H376.282ZM380.955 49.0909C380.534 49.0909 380.172 48.9981 379.867 48.8125C379.564 48.625 379.33 48.3636 379.165 48.0284C379.002 47.6913 378.921 47.2992 378.921 46.8523C378.921 46.4053 379.002 46.0114 379.165 45.6705C379.33 45.3277 379.559 45.0606 379.853 44.8693C380.148 44.6761 380.493 44.5795 380.887 44.5795C381.114 44.5795 381.338 44.6174 381.56 44.6932C381.782 44.7689 381.983 44.892 382.165 45.0625C382.347 45.2311 382.492 45.4545 382.6 45.733C382.708 46.0114 382.762 46.3542 382.762 46.7614V47.0455H379.398V46.4659H382.08C382.08 46.2197 382.031 46 381.932 45.8068C381.836 45.6136 381.697 45.4612 381.517 45.3494C381.339 45.2377 381.129 45.1818 380.887 45.1818C380.62 45.1818 380.389 45.2481 380.194 45.3807C380 45.5114 379.852 45.6818 379.748 45.892C379.643 46.1023 379.591 46.3277 379.591 46.5682V46.9545C379.591 47.2841 379.648 47.5634 379.762 47.7926C379.877 48.0199 380.037 48.1932 380.242 48.3125C380.446 48.4299 380.684 48.4886 380.955 48.4886C381.131 48.4886 381.29 48.464 381.432 48.4148C381.576 48.3636 381.7 48.2879 381.804 48.1875C381.908 48.0852 381.989 47.9583 382.046 47.8068L382.694 47.9886C382.625 48.2083 382.511 48.4015 382.35 48.5682C382.189 48.733 381.99 48.8617 381.753 48.9545C381.516 49.0455 381.25 49.0909 380.955 49.0909ZM386.032 49V44.6364H386.702V49H386.032ZM386.373 43.9091C386.242 43.9091 386.129 43.8646 386.034 43.7756C385.942 43.6866 385.895 43.5795 385.895 43.4545C385.895 43.3295 385.942 43.2225 386.034 43.1335C386.129 43.0445 386.242 43 386.373 43C386.503 43 386.615 43.0445 386.708 43.1335C386.802 43.2225 386.85 43.3295 386.85 43.4545C386.85 43.5795 386.802 43.6866 386.708 43.7756C386.615 43.8646 386.503 43.9091 386.373 43.9091ZM388.6 46.375V49H387.93V44.6364H388.578V45.3182H388.635C388.737 45.0966 388.892 44.9186 389.1 44.7841C389.309 44.6477 389.578 44.5795 389.907 44.5795C390.203 44.5795 390.461 44.6402 390.683 44.7614C390.904 44.8807 391.077 45.0625 391.2 45.3068C391.323 45.5492 391.385 45.8561 391.385 46.2273V49H390.714V46.2727C390.714 45.9299 390.625 45.6629 390.447 45.4716C390.269 45.2784 390.025 45.1818 389.714 45.1818C389.5 45.1818 389.309 45.2282 389.14 45.321C388.974 45.4138 388.842 45.5492 388.745 45.7273C388.649 45.9053 388.6 46.1212 388.6 46.375ZM396.632 49.0909C396.223 49.0909 395.871 48.9943 395.576 48.8011C395.28 48.608 395.053 48.3419 394.894 48.0028C394.735 47.6638 394.655 47.2765 394.655 46.8409C394.655 46.3977 394.737 46.0066 394.9 45.6676C395.064 45.3267 395.293 45.0606 395.587 44.8693C395.882 44.6761 396.227 44.5795 396.621 44.5795C396.928 44.5795 397.204 44.6364 397.451 44.75C397.697 44.8636 397.899 45.0227 398.056 45.2273C398.213 45.4318 398.31 45.6705 398.348 45.9432H397.678C397.627 45.7443 397.513 45.5682 397.337 45.4148C397.163 45.2595 396.928 45.1818 396.632 45.1818C396.371 45.1818 396.142 45.25 395.945 45.3864C395.75 45.5208 395.597 45.7112 395.488 45.9574C395.38 46.2017 395.326 46.4886 395.326 46.8182C395.326 47.1553 395.379 47.4489 395.485 47.6989C395.593 47.9489 395.744 48.143 395.939 48.2812C396.136 48.4195 396.367 48.4886 396.632 48.4886C396.807 48.4886 396.965 48.4583 397.107 48.3977C397.249 48.3371 397.369 48.25 397.468 48.1364C397.566 48.0227 397.636 47.8864 397.678 47.7273H398.348C398.31 47.9848 398.217 48.2169 398.067 48.4233C397.919 48.6278 397.723 48.7907 397.479 48.9119C397.237 49.0312 396.954 49.0909 396.632 49.0909ZM401.158 49.0909C400.738 49.0909 400.375 48.9981 400.07 48.8125C399.767 48.625 399.533 48.3636 399.368 48.0284C399.205 47.6913 399.124 47.2992 399.124 46.8523C399.124 46.4053 399.205 46.0114 399.368 45.6705C399.533 45.3277 399.762 45.0606 400.056 44.8693C400.351 44.6761 400.696 44.5795 401.09 44.5795C401.317 44.5795 401.542 44.6174 401.763 44.6932C401.985 44.7689 402.186 44.892 402.368 45.0625C402.55 45.2311 402.695 45.4545 402.803 45.733C402.911 46.0114 402.965 46.3542 402.965 46.7614V47.0455H399.601V46.4659H402.283C402.283 46.2197 402.234 46 402.135 45.8068C402.039 45.6136 401.9 45.4612 401.721 45.3494C401.542 45.2377 401.332 45.1818 401.09 45.1818C400.823 45.1818 400.592 45.2481 400.397 45.3807C400.203 45.5114 400.055 45.6818 399.951 45.892C399.846 46.1023 399.794 46.3277 399.794 46.5682V46.9545C399.794 47.2841 399.851 47.5634 399.965 47.7926C400.08 48.0199 400.24 48.1932 400.445 48.3125C400.65 48.4299 400.887 48.4886 401.158 48.4886C401.334 48.4886 401.493 48.464 401.635 48.4148C401.779 48.3636 401.903 48.2879 402.007 48.1875C402.112 48.0852 402.192 47.9583 402.249 47.8068L402.897 47.9886C402.828 48.2083 402.714 48.4015 402.553 48.5682C402.392 48.733 402.193 48.8617 401.956 48.9545C401.72 49.0455 401.453 49.0909 401.158 49.0909ZM404.655 46.375V49H403.985V44.6364H404.632V45.3182H404.689C404.792 45.0966 404.947 44.9186 405.155 44.7841C405.364 44.6477 405.632 44.5795 405.962 44.5795C406.257 44.5795 406.516 44.6402 406.738 44.7614C406.959 44.8807 407.132 45.0625 407.255 45.3068C407.378 45.5492 407.439 45.8561 407.439 46.2273V49H406.769V46.2727C406.769 45.9299 406.68 45.6629 406.502 45.4716C406.324 45.2784 406.079 45.1818 405.769 45.1818C405.555 45.1818 405.364 45.2282 405.195 45.321C405.028 45.4138 404.897 45.5492 404.8 45.7273C404.703 45.9053 404.655 46.1212 404.655 46.375ZM410.562 44.6364V45.2045H408.301V44.6364H410.562ZM408.96 43.5909H409.63V47.75C409.63 47.9394 409.658 48.0814 409.713 48.1761C409.77 48.2689 409.842 48.3314 409.929 48.3636C410.018 48.3939 410.111 48.4091 410.21 48.4091C410.284 48.4091 410.344 48.4053 410.392 48.3977C410.439 48.3883 410.477 48.3807 410.505 48.375L410.642 48.9773C410.596 48.9943 410.533 49.0114 410.451 49.0284C410.37 49.0473 410.267 49.0568 410.142 49.0568C409.952 49.0568 409.767 49.0161 409.585 48.9347C409.405 48.8532 409.255 48.7292 409.136 48.5625C409.019 48.3958 408.96 48.1856 408.96 47.9318V43.5909ZM411.571 49V44.6364H412.218V45.2955H412.264C412.343 45.0795 412.487 44.9044 412.696 44.7699C412.904 44.6354 413.139 44.5682 413.4 44.5682C413.449 44.5682 413.511 44.5691 413.585 44.571C413.659 44.5729 413.715 44.5758 413.752 44.5795V45.2614C413.73 45.2557 413.678 45.2472 413.596 45.2358C413.517 45.2225 413.432 45.2159 413.343 45.2159C413.131 45.2159 412.942 45.2604 412.775 45.3494C412.61 45.4366 412.48 45.5578 412.383 45.7131C412.288 45.8665 412.241 46.0417 412.241 46.2386V49H411.571ZM415.831 49.1023C415.555 49.1023 415.304 49.0502 415.078 48.946C414.853 48.84 414.674 48.6875 414.542 48.4886C414.409 48.2879 414.343 48.0455 414.343 47.7614C414.343 47.5114 414.392 47.3087 414.49 47.1534C414.589 46.9962 414.721 46.8731 414.885 46.7841C415.05 46.6951 415.232 46.6288 415.431 46.5852C415.632 46.5398 415.833 46.5038 416.036 46.4773C416.301 46.4432 416.516 46.4176 416.681 46.4006C416.847 46.3816 416.969 46.3504 417.044 46.3068C417.122 46.2633 417.161 46.1875 417.161 46.0795V46.0568C417.161 45.7765 417.084 45.5587 416.931 45.4034C416.779 45.2481 416.549 45.1705 416.24 45.1705C415.92 45.1705 415.669 45.2405 415.488 45.3807C415.306 45.5208 415.178 45.6705 415.104 45.8295L414.468 45.6023C414.581 45.3371 414.733 45.1307 414.922 44.983C415.114 44.8333 415.322 44.7292 415.547 44.6705C415.775 44.6098 415.998 44.5795 416.218 44.5795C416.358 44.5795 416.519 44.5966 416.701 44.6307C416.884 44.6629 417.061 44.7301 417.232 44.8324C417.404 44.9347 417.547 45.089 417.661 45.2955C417.775 45.5019 417.831 45.7784 417.831 46.125V49H417.161V48.4091H417.127C417.081 48.5038 417.006 48.6051 416.9 48.7131C416.793 48.821 416.652 48.9129 416.476 48.9886C416.3 49.0644 416.085 49.1023 415.831 49.1023ZM415.934 48.5C416.199 48.5 416.422 48.4479 416.604 48.3438C416.788 48.2396 416.926 48.1051 417.019 47.9403C417.114 47.7756 417.161 47.6023 417.161 47.4205V46.8068C417.132 46.8409 417.07 46.8722 416.973 46.9006C416.879 46.9271 416.769 46.9508 416.644 46.9716C416.521 46.9905 416.4 47.0076 416.283 47.0227C416.167 47.036 416.074 47.0473 416.002 47.0568C415.828 47.0795 415.665 47.1165 415.513 47.1676C415.364 47.2169 415.242 47.2917 415.15 47.392C415.059 47.4905 415.013 47.625 415.013 47.7955C415.013 48.0284 415.099 48.2045 415.272 48.3239C415.446 48.4413 415.667 48.5 415.934 48.5ZM419.725 43.1818V49H419.055V43.1818H419.725ZM420.953 49V44.6364H421.624V49H420.953ZM421.294 43.9091C421.164 43.9091 421.051 43.8646 420.956 43.7756C420.864 43.6866 420.817 43.5795 420.817 43.4545C420.817 43.3295 420.864 43.2225 420.956 43.1335C421.051 43.0445 421.164 43 421.294 43C421.425 43 421.537 43.0445 421.63 43.1335C421.724 43.2225 421.772 43.3295 421.772 43.4545C421.772 43.5795 421.724 43.6866 421.63 43.7756C421.537 43.8646 421.425 43.9091 421.294 43.9091ZM422.727 49V48.4886L425.204 45.3068V45.2614H422.806V44.6364H426.068V45.1705L423.659 48.3295V48.375H426.147V49H422.727ZM428.885 49.0909C428.464 49.0909 428.101 48.9981 427.797 48.8125C427.493 48.625 427.26 48.3636 427.095 48.0284C426.932 47.6913 426.85 47.2992 426.85 46.8523C426.85 46.4053 426.932 46.0114 427.095 45.6705C427.26 45.3277 427.489 45.0606 427.782 44.8693C428.078 44.6761 428.422 44.5795 428.816 44.5795C429.044 44.5795 429.268 44.6174 429.49 44.6932C429.711 44.7689 429.913 44.892 430.095 45.0625C430.277 45.2311 430.422 45.4545 430.529 45.733C430.637 46.0114 430.691 46.3542 430.691 46.7614V47.0455H427.328V46.4659H430.01C430.01 46.2197 429.96 46 429.862 45.8068C429.765 45.6136 429.627 45.4612 429.447 45.3494C429.269 45.2377 429.059 45.1818 428.816 45.1818C428.549 45.1818 428.318 45.2481 428.123 45.3807C427.93 45.5114 427.781 45.6818 427.677 45.892C427.573 46.1023 427.521 46.3277 427.521 46.5682V46.9545C427.521 47.2841 427.578 47.5634 427.691 47.7926C427.807 48.0199 427.967 48.1932 428.172 48.3125C428.376 48.4299 428.614 48.4886 428.885 48.4886C429.061 48.4886 429.22 48.464 429.362 48.4148C429.506 48.3636 429.63 48.2879 429.734 48.1875C429.838 48.0852 429.919 47.9583 429.975 47.8068L430.623 47.9886C430.555 48.2083 430.44 48.4015 430.279 48.5682C430.118 48.733 429.92 48.8617 429.683 48.9545C429.446 49.0455 429.18 49.0909 428.885 49.0909ZM433.359 49.0909C432.995 49.0909 432.674 48.9991 432.396 48.8153C432.118 48.6297 431.9 48.3684 431.743 48.0312C431.585 47.6922 431.507 47.2917 431.507 46.8295C431.507 46.3712 431.585 45.9735 431.743 45.6364C431.9 45.2992 432.118 45.0388 432.399 44.8551C432.679 44.6714 433.003 44.5795 433.37 44.5795C433.654 44.5795 433.879 44.6269 434.044 44.7216C434.21 44.8144 434.337 44.9205 434.424 45.0398C434.513 45.1572 434.583 45.2538 434.632 45.3295H434.689V43.1818H435.359V49H434.711V48.3295H434.632C434.583 48.4091 434.512 48.5095 434.422 48.6307C434.331 48.75 434.201 48.857 434.032 48.9517C433.864 49.0445 433.639 49.0909 433.359 49.0909ZM433.45 48.4886C433.719 48.4886 433.946 48.4186 434.132 48.2784C434.317 48.1364 434.458 47.9403 434.555 47.6903C434.652 47.4384 434.7 47.1477 434.7 46.8182C434.7 46.4924 434.653 46.2074 434.558 45.9631C434.463 45.7169 434.323 45.5256 434.137 45.3892C433.952 45.2509 433.723 45.1818 433.45 45.1818C433.166 45.1818 432.929 45.2547 432.74 45.4006C432.552 45.5445 432.411 45.7405 432.316 45.9886C432.224 46.2348 432.177 46.5114 432.177 46.8182C432.177 47.1288 432.225 47.411 432.319 47.6648C432.416 47.9167 432.558 48.1174 432.745 48.267C432.935 48.4148 433.17 48.4886 433.45 48.4886ZM384.16 59.0909C383.796 59.0909 383.475 58.9991 383.197 58.8153C382.918 58.6297 382.701 58.3684 382.543 58.0312C382.386 57.6922 382.308 57.2917 382.308 56.8295C382.308 56.3712 382.386 55.9735 382.543 55.6364C382.701 55.2992 382.919 55.0388 383.2 54.8551C383.48 54.6714 383.804 54.5795 384.171 54.5795C384.455 54.5795 384.68 54.6269 384.844 54.7216C385.011 54.8144 385.138 54.9205 385.225 55.0398C385.314 55.1572 385.383 55.2538 385.433 55.3295H385.489V53.1818H386.16V59H385.512V58.3295H385.433C385.383 58.4091 385.313 58.5095 385.222 58.6307C385.131 58.75 385.002 58.857 384.833 58.9517C384.665 59.0445 384.44 59.0909 384.16 59.0909ZM384.251 58.4886C384.52 58.4886 384.747 58.4186 384.933 58.2784C385.118 58.1364 385.259 57.9403 385.356 57.6903C385.452 57.4384 385.501 57.1477 385.501 56.8182C385.501 56.4924 385.453 56.2074 385.359 55.9631C385.264 55.7169 385.124 55.5256 384.938 55.3892C384.753 55.2509 384.523 55.1818 384.251 55.1818C383.967 55.1818 383.73 55.2547 383.54 55.4006C383.353 55.5445 383.212 55.7405 383.117 55.9886C383.024 56.2348 382.978 56.5114 382.978 56.8182C382.978 57.1288 383.025 57.411 383.12 57.6648C383.217 57.9167 383.359 58.1174 383.546 58.267C383.736 58.4148 383.97 58.4886 384.251 58.4886ZM388.765 59.1023C388.488 59.1023 388.237 59.0502 388.012 58.946C387.787 58.84 387.608 58.6875 387.475 58.4886C387.343 58.2879 387.276 58.0455 387.276 57.7614C387.276 57.5114 387.326 57.3087 387.424 57.1534C387.522 56.9962 387.654 56.8731 387.819 56.7841C387.984 56.6951 388.165 56.6288 388.364 56.5852C388.565 56.5398 388.767 56.5038 388.969 56.4773C389.235 56.4432 389.45 56.4176 389.614 56.4006C389.781 56.3816 389.902 56.3504 389.978 56.3068C390.056 56.2633 390.094 56.1875 390.094 56.0795V56.0568C390.094 55.7765 390.018 55.5587 389.864 55.4034C389.713 55.2481 389.483 55.1705 389.174 55.1705C388.854 55.1705 388.603 55.2405 388.421 55.3807C388.239 55.5208 388.112 55.6705 388.038 55.8295L387.401 55.6023C387.515 55.3371 387.666 55.1307 387.856 54.983C388.047 54.8333 388.255 54.7292 388.481 54.6705C388.708 54.6098 388.932 54.5795 389.151 54.5795C389.291 54.5795 389.452 54.5966 389.634 54.6307C389.818 54.6629 389.995 54.7301 390.165 54.8324C390.338 54.9347 390.481 55.089 390.594 55.2955C390.708 55.5019 390.765 55.7784 390.765 56.125V59H390.094V58.4091H390.06C390.015 58.5038 389.939 58.6051 389.833 58.7131C389.727 58.821 389.586 58.9129 389.41 58.9886C389.234 59.0644 389.019 59.1023 388.765 59.1023ZM388.867 58.5C389.132 58.5 389.356 58.4479 389.538 58.3438C389.721 58.2396 389.86 58.1051 389.952 57.9403C390.047 57.7756 390.094 57.6023 390.094 57.4205V56.8068C390.066 56.8409 390.004 56.8722 389.907 56.9006C389.812 56.9271 389.702 56.9508 389.577 56.9716C389.454 56.9905 389.334 57.0076 389.217 57.0227C389.101 57.036 389.007 57.0473 388.935 57.0568C388.761 57.0795 388.598 57.1165 388.447 57.1676C388.297 57.2169 388.176 57.2917 388.083 57.392C387.992 57.4905 387.947 57.625 387.947 57.7955C387.947 58.0284 388.033 58.2045 388.205 58.3239C388.379 58.4413 388.6 58.5 388.867 58.5ZM393.886 54.6364V55.2045H391.625V54.6364H393.886ZM392.284 53.5909H392.955V57.75C392.955 57.9394 392.982 58.0814 393.037 58.1761C393.094 58.2689 393.166 58.3314 393.253 58.3636C393.342 58.3939 393.436 58.4091 393.534 58.4091C393.608 58.4091 393.669 58.4053 393.716 58.3977C393.763 58.3883 393.801 58.3807 393.83 58.375L393.966 58.9773C393.92 58.9943 393.857 59.0114 393.776 59.0284C393.694 59.0473 393.591 59.0568 393.466 59.0568C393.277 59.0568 393.091 59.0161 392.909 58.9347C392.729 58.8532 392.58 58.7292 392.46 58.5625C392.343 58.3958 392.284 58.1856 392.284 57.9318V53.5909ZM396.179 59.1023C395.902 59.1023 395.652 59.0502 395.426 58.946C395.201 58.84 395.022 58.6875 394.889 58.4886C394.757 58.2879 394.69 58.0455 394.69 57.7614C394.69 57.5114 394.74 57.3087 394.838 57.1534C394.937 56.9962 395.068 56.8731 395.233 56.7841C395.398 56.6951 395.58 56.6288 395.778 56.5852C395.979 56.5398 396.181 56.5038 396.384 56.4773C396.649 56.4432 396.864 56.4176 397.028 56.4006C397.195 56.3816 397.316 56.3504 397.392 56.3068C397.47 56.2633 397.509 56.1875 397.509 56.0795V56.0568C397.509 55.7765 397.432 55.5587 397.278 55.4034C397.127 55.2481 396.897 55.1705 396.588 55.1705C396.268 55.1705 396.017 55.2405 395.835 55.3807C395.653 55.5208 395.526 55.6705 395.452 55.8295L394.815 55.6023C394.929 55.3371 395.08 55.1307 395.27 54.983C395.461 54.8333 395.67 54.7292 395.895 54.6705C396.122 54.6098 396.346 54.5795 396.565 54.5795C396.705 54.5795 396.866 54.5966 397.048 54.6307C397.232 54.6629 397.409 54.7301 397.58 54.8324C397.752 54.9347 397.895 55.089 398.009 55.2955C398.122 55.5019 398.179 55.7784 398.179 56.125V59H397.509V58.4091H397.474C397.429 58.5038 397.353 58.6051 397.247 58.7131C397.141 58.821 397 58.9129 396.824 58.9886C396.648 59.0644 396.433 59.1023 396.179 59.1023ZM396.281 58.5C396.546 58.5 396.77 58.4479 396.952 58.3438C397.135 58.2396 397.274 58.1051 397.366 57.9403C397.461 57.7756 397.509 57.6023 397.509 57.4205V56.8068C397.48 56.8409 397.418 56.8722 397.321 56.9006C397.226 56.9271 397.116 56.9508 396.991 56.9716C396.868 56.9905 396.748 57.0076 396.631 57.0227C396.515 57.036 396.421 57.0473 396.349 57.0568C396.175 57.0795 396.012 57.1165 395.861 57.1676C395.711 57.2169 395.59 57.2917 395.497 57.392C395.406 57.4905 395.361 57.625 395.361 57.7955C395.361 58.0284 395.447 58.2045 395.619 58.3239C395.794 58.4413 396.014 58.5 396.281 58.5ZM399.494 59V53.1818H400.164V55.3295H400.221C400.27 55.2538 400.338 55.1572 400.425 55.0398C400.514 54.9205 400.641 54.8144 400.806 54.7216C400.973 54.6269 401.198 54.5795 401.482 54.5795C401.85 54.5795 402.174 54.6714 402.454 54.8551C402.734 55.0388 402.953 55.2992 403.11 55.6364C403.267 55.9735 403.346 56.3712 403.346 56.8295C403.346 57.2917 403.267 57.6922 403.11 58.0312C402.953 58.3684 402.735 58.6297 402.457 58.8153C402.178 58.9991 401.857 59.0909 401.494 59.0909C401.213 59.0909 400.989 59.0445 400.82 58.9517C400.652 58.857 400.522 58.75 400.431 58.6307C400.34 58.5095 400.27 58.4091 400.221 58.3295H400.141V59H399.494ZM400.153 56.8182C400.153 57.1477 400.201 57.4384 400.298 57.6903C400.394 57.9403 400.535 58.1364 400.721 58.2784C400.906 58.4186 401.134 58.4886 401.403 58.4886C401.683 58.4886 401.917 58.4148 402.104 58.267C402.294 58.1174 402.436 57.9167 402.531 57.6648C402.627 57.411 402.675 57.1288 402.675 56.8182C402.675 56.5114 402.628 56.2348 402.533 55.9886C402.441 55.7405 402.299 55.5445 402.11 55.4006C401.923 55.2547 401.687 55.1818 401.403 55.1818C401.13 55.1818 400.901 55.2509 400.715 55.3892C400.53 55.5256 400.389 55.7169 400.295 55.9631C400.2 56.2074 400.153 56.4924 400.153 56.8182ZM405.656 59.1023C405.379 59.1023 405.128 59.0502 404.903 58.946C404.677 58.84 404.498 58.6875 404.366 58.4886C404.233 58.2879 404.167 58.0455 404.167 57.7614C404.167 57.5114 404.216 57.3087 404.315 57.1534C404.413 56.9962 404.545 56.8731 404.71 56.7841C404.874 56.6951 405.056 56.6288 405.255 56.5852C405.456 56.5398 405.657 56.5038 405.86 56.4773C406.125 56.4432 406.34 56.4176 406.505 56.4006C406.672 56.3816 406.793 56.3504 406.869 56.3068C406.946 56.2633 406.985 56.1875 406.985 56.0795V56.0568C406.985 55.7765 406.908 55.5587 406.755 55.4034C406.603 55.2481 406.373 55.1705 406.065 55.1705C405.745 55.1705 405.494 55.2405 405.312 55.3807C405.13 55.5208 405.002 55.6705 404.928 55.8295L404.292 55.6023C404.406 55.3371 404.557 55.1307 404.746 54.983C404.938 54.8333 405.146 54.7292 405.371 54.6705C405.599 54.6098 405.822 54.5795 406.042 54.5795C406.182 54.5795 406.343 54.5966 406.525 54.6307C406.709 54.6629 406.886 54.7301 407.056 54.8324C407.228 54.9347 407.371 55.089 407.485 55.2955C407.599 55.5019 407.656 55.7784 407.656 56.125V59H406.985V58.4091H406.951C406.906 58.5038 406.83 58.6051 406.724 58.7131C406.618 58.821 406.477 58.9129 406.3 58.9886C406.124 59.0644 405.909 59.1023 405.656 59.1023ZM405.758 58.5C406.023 58.5 406.246 58.4479 406.428 58.3438C406.612 58.2396 406.75 58.1051 406.843 57.9403C406.938 57.7756 406.985 57.6023 406.985 57.4205V56.8068C406.957 56.8409 406.894 56.8722 406.798 56.9006C406.703 56.9271 406.593 56.9508 406.468 56.9716C406.345 56.9905 406.225 57.0076 406.107 57.0227C405.992 57.036 405.898 57.0473 405.826 57.0568C405.652 57.0795 405.489 57.1165 405.337 57.1676C405.188 57.2169 405.067 57.2917 404.974 57.392C404.883 57.4905 404.837 57.625 404.837 57.7955C404.837 58.0284 404.924 58.2045 405.096 58.3239C405.27 58.4413 405.491 58.5 405.758 58.5ZM411.97 55.6136L411.368 55.7841C411.33 55.6837 411.274 55.5862 411.2 55.4915C411.128 55.3949 411.03 55.3153 410.905 55.2528C410.78 55.1903 410.62 55.1591 410.425 55.1591C410.158 55.1591 409.935 55.2206 409.757 55.3438C409.581 55.465 409.493 55.6193 409.493 55.8068C409.493 55.9735 409.554 56.1051 409.675 56.2017C409.796 56.2983 409.985 56.3788 410.243 56.4432L410.891 56.6023C411.281 56.697 411.571 56.8419 411.763 57.0369C411.954 57.2301 412.05 57.4792 412.05 57.7841C412.05 58.0341 411.978 58.2576 411.834 58.4545C411.692 58.6515 411.493 58.8068 411.237 58.9205C410.982 59.0341 410.684 59.0909 410.345 59.0909C409.9 59.0909 409.532 58.9943 409.24 58.8011C408.948 58.608 408.764 58.3258 408.686 57.9545L409.322 57.7955C409.383 58.0303 409.498 58.2064 409.666 58.3239C409.837 58.4413 410.059 58.5 410.334 58.5C410.646 58.5 410.894 58.4337 411.078 58.3011C411.264 58.1667 411.357 58.0057 411.357 57.8182C411.357 57.6667 411.304 57.5398 411.197 57.4375C411.091 57.3333 410.929 57.2557 410.709 57.2045L409.982 57.0341C409.582 56.9394 409.288 56.7926 409.101 56.5938C408.915 56.393 408.822 56.142 408.822 55.8409C408.822 55.5947 408.892 55.3769 409.03 55.1875C409.17 54.9981 409.36 54.8494 409.601 54.7415C409.843 54.6335 410.118 54.5795 410.425 54.5795C410.857 54.5795 411.196 54.6742 411.442 54.8636C411.69 55.053 411.866 55.303 411.97 55.6136ZM414.888 59.0909C414.468 59.0909 414.105 58.9981 413.8 58.8125C413.497 58.625 413.263 58.3636 413.099 58.0284C412.936 57.6913 412.854 57.2992 412.854 56.8523C412.854 56.4053 412.936 56.0114 413.099 55.6705C413.263 55.3277 413.493 55.0606 413.786 54.8693C414.082 54.6761 414.426 54.5795 414.82 54.5795C415.048 54.5795 415.272 54.6174 415.494 54.6932C415.715 54.7689 415.917 54.892 416.099 55.0625C416.281 55.2311 416.425 55.4545 416.533 55.733C416.641 56.0114 416.695 56.3542 416.695 56.7614V57.0455H413.332V56.4659H416.013C416.013 56.2197 415.964 56 415.866 55.8068C415.769 55.6136 415.631 55.4612 415.451 55.3494C415.273 55.2377 415.063 55.1818 414.82 55.1818C414.553 55.1818 414.322 55.2481 414.127 55.3807C413.934 55.5114 413.785 55.6818 413.681 55.892C413.577 56.1023 413.525 56.3277 413.525 56.5682V56.9545C413.525 57.2841 413.582 57.5634 413.695 57.7926C413.811 58.0199 413.971 58.1932 414.175 58.3125C414.38 58.4299 414.618 58.4886 414.888 58.4886C415.065 58.4886 415.224 58.464 415.366 58.4148C415.51 58.3636 415.634 58.2879 415.738 58.1875C415.842 58.0852 415.923 57.9583 415.979 57.8068L416.627 57.9886C416.559 58.2083 416.444 58.4015 416.283 58.5682C416.122 58.733 415.924 58.8617 415.687 58.9545C415.45 59.0455 415.184 59.0909 414.888 59.0909Z" fill="#059669"/>
<path d="M10.6818 86C10.6193 85.8087 10.5369 85.6373 10.4347 85.4858C10.3343 85.3324 10.214 85.2017 10.0739 85.0938C9.93561 84.9858 9.77841 84.9034 9.60227 84.8466C9.42614 84.7898 9.23295 84.7614 9.02273 84.7614C8.67803 84.7614 8.36458 84.8504 8.08239 85.0284C7.80019 85.2064 7.57576 85.4688 7.40909 85.8153C7.24242 86.1619 7.15909 86.5871 7.15909 87.0909C7.15909 87.5947 7.24337 88.0199 7.41193 88.3665C7.58049 88.7131 7.80871 88.9754 8.09659 89.1534C8.38447 89.3314 8.70833 89.4205 9.06818 89.4205C9.40152 89.4205 9.69508 89.3494 9.94886 89.2074C10.2045 89.0634 10.4034 88.8608 10.5455 88.5994C10.6894 88.3362 10.7614 88.0265 10.7614 87.6705L10.9773 87.7159H9.22727V87.0909H11.4432V87.7159C11.4432 88.1951 11.3409 88.6117 11.1364 88.9659C10.9337 89.3201 10.6534 89.5947 10.2955 89.7898C9.93939 89.983 9.5303 90.0795 9.06818 90.0795C8.55303 90.0795 8.10038 89.9583 7.71023 89.7159C7.32197 89.4735 7.01894 89.1288 6.80114 88.6818C6.58523 88.2348 6.47727 87.7045 6.47727 87.0909C6.47727 86.6307 6.53883 86.2169 6.66193 85.8494C6.78693 85.4801 6.96307 85.1657 7.19034 84.9062C7.41761 84.6468 7.68655 84.4479 7.99716 84.3097C8.30777 84.1714 8.64962 84.1023 9.02273 84.1023C9.32955 84.1023 9.61553 84.1487 9.88068 84.2415C10.1477 84.3324 10.3854 84.4621 10.5938 84.6307C10.804 84.7973 10.9792 84.9972 11.1193 85.2301C11.2595 85.4612 11.3561 85.7178 11.4091 86H10.6818ZM14.3885 90.0909C13.968 90.0909 13.6054 89.9981 13.3004 89.8125C12.9974 89.625 12.7635 89.3636 12.5987 89.0284C12.4358 88.6913 12.3544 88.2992 12.3544 87.8523C12.3544 87.4053 12.4358 87.0114 12.5987 86.6705C12.7635 86.3277 12.9927 86.0606 13.2862 85.8693C13.5817 85.6761 13.9264 85.5795 14.3203 85.5795C14.5476 85.5795 14.772 85.6174 14.9936 85.6932C15.2152 85.7689 15.4169 85.892 15.5987 86.0625C15.7805 86.2311 15.9254 86.4545 16.0334 86.733C16.1413 87.0114 16.1953 87.3542 16.1953 87.7614V88.0455H12.8317V87.4659H15.5135C15.5135 87.2197 15.4643 87 15.3658 86.8068C15.2692 86.6136 15.1309 86.4612 14.951 86.3494C14.773 86.2377 14.5627 86.1818 14.3203 86.1818C14.0533 86.1818 13.8222 86.2481 13.6271 86.3807C13.4339 86.5114 13.2853 86.6818 13.1811 86.892C13.0769 87.1023 13.0249 87.3277 13.0249 87.5682V87.9545C13.0249 88.2841 13.0817 88.5634 13.1953 88.7926C13.3108 89.0199 13.4709 89.1932 13.6754 89.3125C13.88 89.4299 14.1177 89.4886 14.3885 89.4886C14.5646 89.4886 14.7237 89.464 14.8658 89.4148C15.0097 89.3636 15.1338 89.2879 15.2379 89.1875C15.3421 89.0852 15.4226 88.9583 15.4794 88.8068L16.1271 88.9886C16.0589 89.2083 15.9444 89.4015 15.7834 89.5682C15.6224 89.733 15.4235 89.8617 15.1868 89.9545C14.95 90.0455 14.6839 90.0909 14.3885 90.0909ZM19.1129 85.6364V86.2045H16.8516V85.6364H19.1129ZM17.5107 84.5909H18.1811V88.75C18.1811 88.9394 18.2086 89.0814 18.2635 89.1761C18.3203 89.2689 18.3923 89.3314 18.4794 89.3636C18.5684 89.3939 18.6622 89.4091 18.7607 89.4091C18.8345 89.4091 18.8951 89.4053 18.9425 89.3977C18.9898 89.3883 19.0277 89.3807 19.0561 89.375L19.1925 89.9773C19.147 89.9943 19.0836 90.0114 19.0021 90.0284C18.9207 90.0473 18.8175 90.0568 18.6925 90.0568C18.5031 90.0568 18.3175 90.0161 18.1357 89.9347C17.9557 89.8532 17.8061 89.7292 17.6868 89.5625C17.5694 89.3958 17.5107 89.1856 17.5107 88.9318V84.5909ZM22.3714 90V85.6364H23.0419V90H22.3714ZM22.7124 84.9091C22.5817 84.9091 22.469 84.8646 22.3743 84.7756C22.2815 84.6866 22.2351 84.5795 22.2351 84.4545C22.2351 84.3295 22.2815 84.2225 22.3743 84.1335C22.469 84.0445 22.5817 84 22.7124 84C22.843 84 22.9548 84.0445 23.0476 84.1335C23.1423 84.2225 23.1896 84.3295 23.1896 84.4545C23.1896 84.5795 23.1423 84.6866 23.0476 84.7756C22.9548 84.8646 22.843 84.9091 22.7124 84.9091ZM24.9403 87.375V90H24.2699V85.6364H24.9176V86.3182H24.9744C25.0767 86.0966 25.232 85.9186 25.4403 85.7841C25.6487 85.6477 25.9176 85.5795 26.2472 85.5795C26.5426 85.5795 26.8011 85.6402 27.0227 85.7614C27.2443 85.8807 27.4167 86.0625 27.5398 86.3068C27.6629 86.5492 27.7244 86.8561 27.7244 87.2273V90H27.054V87.2727C27.054 86.9299 26.965 86.6629 26.7869 86.4716C26.6089 86.2784 26.3646 86.1818 26.054 86.1818C25.84 86.1818 25.6487 86.2282 25.4801 86.321C25.3134 86.4138 25.1818 86.5492 25.0852 86.7273C24.9886 86.9053 24.9403 87.1212 24.9403 87.375ZM32.3615 85.6364L30.7479 90H30.0661L28.4524 85.6364H29.1797L30.3842 89.1136H30.4297L31.6342 85.6364H32.3615ZM34.9197 90.0909C34.4993 90.0909 34.1366 89.9981 33.8317 89.8125C33.5286 89.625 33.2947 89.3636 33.13 89.0284C32.9671 88.6913 32.8857 88.2992 32.8857 87.8523C32.8857 87.4053 32.9671 87.0114 33.13 86.6705C33.2947 86.3277 33.5239 86.0606 33.8175 85.8693C34.1129 85.6761 34.4576 85.5795 34.8516 85.5795C35.0788 85.5795 35.3033 85.6174 35.5249 85.6932C35.7464 85.7689 35.9482 85.892 36.13 86.0625C36.3118 86.2311 36.4567 86.4545 36.5646 86.733C36.6726 87.0114 36.7266 87.3542 36.7266 87.7614V88.0455H33.3629V87.4659H36.0447C36.0447 87.2197 35.9955 87 35.897 86.8068C35.8004 86.6136 35.6622 86.4612 35.4822 86.3494C35.3042 86.2377 35.094 86.1818 34.8516 86.1818C34.5845 86.1818 34.3535 86.2481 34.1584 86.3807C33.9652 86.5114 33.8165 86.6818 33.7124 86.892C33.6082 87.1023 33.5561 87.3277 33.5561 87.5682V87.9545C33.5561 88.2841 33.6129 88.5634 33.7266 88.7926C33.8421 89.0199 34.0021 89.1932 34.2067 89.3125C34.4112 89.4299 34.6489 89.4886 34.9197 89.4886C35.0959 89.4886 35.255 89.464 35.397 89.4148C35.541 89.3636 35.665 89.2879 35.7692 89.1875C35.8733 89.0852 35.9538 88.9583 36.0107 88.8068L36.6584 88.9886C36.5902 89.2083 36.4756 89.4015 36.3146 89.5682C36.1536 89.733 35.9548 89.8617 35.718 89.9545C35.4813 90.0455 35.2152 90.0909 34.9197 90.0909ZM38.4169 87.375V90H37.7464V85.6364H38.3942V86.3182H38.451C38.5533 86.0966 38.7086 85.9186 38.9169 85.7841C39.1252 85.6477 39.3942 85.5795 39.7237 85.5795C40.0192 85.5795 40.2777 85.6402 40.4993 85.7614C40.7209 85.8807 40.8932 86.0625 41.0163 86.3068C41.1394 86.5492 41.201 86.8561 41.201 87.2273V90H40.5305V87.2727C40.5305 86.9299 40.4415 86.6629 40.2635 86.4716C40.0855 86.2784 39.8411 86.1818 39.5305 86.1818C39.3165 86.1818 39.1252 86.2282 38.9567 86.321C38.79 86.4138 38.6584 86.5492 38.5618 86.7273C38.4652 86.9053 38.4169 87.1212 38.4169 87.375ZM44.3239 85.6364V86.2045H42.0625V85.6364H44.3239ZM42.7216 84.5909H43.392V88.75C43.392 88.9394 43.4195 89.0814 43.4744 89.1761C43.5313 89.2689 43.6032 89.3314 43.6903 89.3636C43.7794 89.3939 43.8731 89.4091 43.9716 89.4091C44.0455 89.4091 44.1061 89.4053 44.1534 89.3977C44.2008 89.3883 44.2386 89.3807 44.267 89.375L44.4034 89.9773C44.358 89.9943 44.2945 90.0114 44.2131 90.0284C44.1316 90.0473 44.0284 90.0568 43.9034 90.0568C43.714 90.0568 43.5284 90.0161 43.3466 89.9347C43.1667 89.8532 43.017 89.7292 42.8977 89.5625C42.7803 89.3958 42.7216 89.1856 42.7216 88.9318V84.5909ZM47.0582 90.0909C46.6643 90.0909 46.3187 89.9972 46.0213 89.8097C45.7259 89.6222 45.4948 89.3598 45.3281 89.0227C45.1634 88.6856 45.081 88.2917 45.081 87.8409C45.081 87.3864 45.1634 86.9896 45.3281 86.6506C45.4948 86.3116 45.7259 86.0483 46.0213 85.8608C46.3187 85.6733 46.6643 85.5795 47.0582 85.5795C47.4522 85.5795 47.7969 85.6733 48.0923 85.8608C48.3897 86.0483 48.6207 86.3116 48.7855 86.6506C48.9522 86.9896 49.0355 87.3864 49.0355 87.8409C49.0355 88.2917 48.9522 88.6856 48.7855 89.0227C48.6207 89.3598 48.3897 89.6222 48.0923 89.8097C47.7969 89.9972 47.4522 90.0909 47.0582 90.0909ZM47.0582 89.4886C47.3575 89.4886 47.6037 89.4119 47.7969 89.2585C47.9901 89.1051 48.133 88.9034 48.2259 88.6534C48.3187 88.4034 48.3651 88.1326 48.3651 87.8409C48.3651 87.5492 48.3187 87.2775 48.2259 87.0256C48.133 86.7737 47.9901 86.5701 47.7969 86.4148C47.6037 86.2595 47.3575 86.1818 47.0582 86.1818C46.759 86.1818 46.5128 86.2595 46.3196 86.4148C46.1264 86.5701 45.9834 86.7737 45.8906 87.0256C45.7978 87.2775 45.7514 87.5492 45.7514 87.8409C45.7514 88.1326 45.7978 88.4034 45.8906 88.6534C45.9834 88.9034 46.1264 89.1051 46.3196 89.2585C46.5128 89.4119 46.759 89.4886 47.0582 89.4886ZM50.0589 90V85.6364H50.7067V86.2955H50.7521C50.8317 86.0795 50.9756 85.9044 51.1839 85.7699C51.3923 85.6354 51.6271 85.5682 51.8885 85.5682C51.9377 85.5682 51.9993 85.5691 52.0732 85.571C52.147 85.5729 52.2029 85.5758 52.2408 85.5795V86.2614C52.218 86.2557 52.166 86.2472 52.0845 86.2358C52.005 86.2225 51.9207 86.2159 51.8317 86.2159C51.6196 86.2159 51.4302 86.2604 51.2635 86.3494C51.0987 86.4366 50.968 86.5578 50.8714 86.7131C50.7768 86.8665 50.7294 87.0417 50.7294 87.2386V90H50.0589ZM53.6001 91.6364C53.4865 91.6364 53.3852 91.6269 53.2962 91.608C53.2071 91.5909 53.1456 91.5739 53.1115 91.5568L53.282 90.9659C53.4448 91.0076 53.5888 91.0227 53.7138 91.0114C53.8388 91 53.9496 90.9441 54.0462 90.8438C54.1446 90.7453 54.2346 90.5852 54.3161 90.3636L54.4411 90.0227L52.8274 85.6364H53.5547L54.7592 89.1136H54.8047L56.0092 85.6364H56.7365L54.8842 90.6364C54.8009 90.8617 54.6977 91.0483 54.5746 91.196C54.4515 91.3456 54.3085 91.4564 54.1456 91.5284C53.9846 91.6004 53.8028 91.6364 53.6001 91.6364ZM61.8146 85.6364V86.2045H59.4624V85.6364H61.8146ZM60.1669 90V85.0341C60.1669 84.7841 60.2256 84.5758 60.343 84.4091C60.4605 84.2424 60.6129 84.1174 60.8004 84.0341C60.9879 83.9508 61.1858 83.9091 61.3942 83.9091C61.5589 83.9091 61.6934 83.9223 61.7976 83.9489C61.9018 83.9754 61.9794 84 62.0305 84.0227L61.8374 84.6023C61.8033 84.5909 61.7559 84.5767 61.6953 84.5597C61.6366 84.5426 61.5589 84.5341 61.4624 84.5341C61.2408 84.5341 61.0807 84.59 60.9822 84.7017C60.8857 84.8134 60.8374 84.9773 60.8374 85.1932V90H60.1669ZM62.7543 90V85.6364H63.402V86.2955H63.4474C63.527 86.0795 63.6709 85.9044 63.8793 85.7699C64.0876 85.6354 64.3224 85.5682 64.5838 85.5682C64.633 85.5682 64.6946 85.5691 64.7685 85.571C64.8423 85.5729 64.8982 85.5758 64.9361 85.5795V86.2614C64.9134 86.2557 64.8613 86.2472 64.7798 86.2358C64.7003 86.2225 64.616 86.2159 64.527 86.2159C64.3149 86.2159 64.1255 86.2604 63.9588 86.3494C63.794 86.4366 63.6634 86.5578 63.5668 86.7131C63.4721 86.8665 63.4247 87.0417 63.4247 87.2386V90H62.7543ZM67.3707 90.0909C66.9768 90.0909 66.6312 89.9972 66.3338 89.8097C66.0384 89.6222 65.8073 89.3598 65.6406 89.0227C65.4759 88.6856 65.3935 88.2917 65.3935 87.8409C65.3935 87.3864 65.4759 86.9896 65.6406 86.6506C65.8073 86.3116 66.0384 86.0483 66.3338 85.8608C66.6312 85.6733 66.9768 85.5795 67.3707 85.5795C67.7647 85.5795 68.1094 85.6733 68.4048 85.8608C68.7022 86.0483 68.9332 86.3116 69.098 86.6506C69.2647 86.9896 69.348 87.3864 69.348 87.8409C69.348 88.2917 69.2647 88.6856 69.098 89.0227C68.9332 89.3598 68.7022 89.6222 68.4048 89.8097C68.1094 89.9972 67.7647 90.0909 67.3707 90.0909ZM67.3707 89.4886C67.67 89.4886 67.9162 89.4119 68.1094 89.2585C68.3026 89.1051 68.4455 88.9034 68.5384 88.6534C68.6312 88.4034 68.6776 88.1326 68.6776 87.8409C68.6776 87.5492 68.6312 87.2775 68.5384 87.0256C68.4455 86.7737 68.3026 86.5701 68.1094 86.4148C67.9162 86.2595 67.67 86.1818 67.3707 86.1818C67.0715 86.1818 66.8253 86.2595 66.6321 86.4148C66.4389 86.5701 66.2959 86.7737 66.2031 87.0256C66.1103 87.2775 66.0639 87.5492 66.0639 87.8409C66.0639 88.1326 66.1103 88.4034 66.2031 88.6534C66.2959 88.9034 66.4389 89.1051 66.6321 89.2585C66.8253 89.4119 67.0715 89.4886 67.3707 89.4886ZM70.3714 90V85.6364H71.0192V86.3182H71.076C71.1669 86.0852 71.3137 85.9044 71.5163 85.7756C71.719 85.6449 71.9624 85.5795 72.2464 85.5795C72.5343 85.5795 72.7739 85.6449 72.9652 85.7756C73.1584 85.9044 73.3089 86.0852 73.4169 86.3182H73.4624C73.5741 86.0928 73.7417 85.9138 73.9652 85.7812C74.1887 85.6468 74.4567 85.5795 74.7692 85.5795C75.1593 85.5795 75.4785 85.7017 75.7266 85.946C75.9747 86.1884 76.0987 86.5663 76.0987 87.0795V90H75.4283V87.0795C75.4283 86.7576 75.3402 86.5275 75.1641 86.3892C74.9879 86.2509 74.7805 86.1818 74.5419 86.1818C74.2351 86.1818 73.9974 86.2746 73.8288 86.4602C73.6603 86.6439 73.576 86.8769 73.576 87.1591V90H72.8942V87.0114C72.8942 86.7633 72.8137 86.5634 72.6527 86.4119C72.4917 86.2585 72.2843 86.1818 72.0305 86.1818C71.8563 86.1818 71.6934 86.2282 71.5419 86.321C71.3923 86.4138 71.2711 86.5426 71.1783 86.7074C71.0874 86.8703 71.0419 87.0587 71.0419 87.2727V90H70.3714ZM79.6655 90V84.1818H83.1768V84.8068H80.37V86.7727H82.995V87.3977H80.37V89.375H83.2223V90H79.6655ZM84.4467 90V84.1818H86.4126C86.8672 84.1818 87.2403 84.2595 87.532 84.4148C87.8236 84.5682 88.0395 84.7794 88.1797 85.0483C88.3198 85.3172 88.3899 85.6231 88.3899 85.9659C88.3899 86.3087 88.3198 86.6127 88.1797 86.8778C88.0395 87.143 87.8246 87.3513 87.5348 87.5028C87.245 87.6525 86.8748 87.7273 86.424 87.7273H84.8331V87.0909H86.4013C86.7119 87.0909 86.9619 87.0455 87.1513 86.9545C87.3426 86.8636 87.4808 86.7348 87.5661 86.5682C87.6532 86.3996 87.6967 86.1989 87.6967 85.9659C87.6967 85.733 87.6532 85.5294 87.5661 85.3551C87.4789 85.1809 87.3397 85.0464 87.1484 84.9517C86.9571 84.8551 86.7043 84.8068 86.3899 84.8068H85.1513V90H84.4467ZM87.1854 87.3864L88.6172 90H87.799L86.3899 87.3864H87.1854ZM89.5639 90V84.1818H91.5298C91.9863 84.1818 92.3594 84.2642 92.6491 84.429C92.9408 84.5919 93.1567 84.8125 93.2969 85.0909C93.437 85.3693 93.5071 85.6799 93.5071 86.0227C93.5071 86.3655 93.437 86.6771 93.2969 86.9574C93.1586 87.2377 92.9446 87.4612 92.6548 87.6278C92.3651 87.7926 91.9938 87.875 91.5412 87.875H90.1321V87.25H91.5185C91.831 87.25 92.0819 87.196 92.2713 87.0881C92.4607 86.9801 92.598 86.8343 92.6832 86.6506C92.7704 86.465 92.8139 86.2557 92.8139 86.0227C92.8139 85.7898 92.7704 85.5814 92.6832 85.3977C92.598 85.214 92.4598 85.0701 92.2685 84.9659C92.0772 84.8598 91.8234 84.8068 91.5071 84.8068H90.2685V90H89.5639Z" fill="#D97706"/>
<path d="M100 15L114.25 15C133.994 15 150 31.0058 150 50.75V50.75" stroke="#D9D9E0" stroke-width="0.5"/>
<path d="M100 86.75L113.949 86.75C133.859 86.75 150 70.6092 150 50.6985V50.6985" stroke="#D9D9E0" stroke-width="0.5"/>
<line x1="150" y1="50.75" x2="200" y2="50.75" stroke="#D9D9E0" stroke-width="0.5"/>
<line x1="300" y1="50.75" x2="350" y2="50.75" stroke="#D9D9E0" stroke-width="0.5"/>
</svg>
