<svg width="666" height="666" viewBox="0 0 666 666" fill="none" xmlns="http://www.w3.org/2000/svg">
<circle cx="333.582" cy="56.6364" r="43.6364" stroke="#3E63DD" stroke-width="25"/>
<circle cx="333.582" cy="609.364" r="43.6364" stroke="#3E63DD" stroke-width="25"/>
<line x1="335.629" y1="565.727" x2="335.629" y2="100.273" stroke="#3E63DD" stroke-width="25"/>
<circle cx="493.582" cy="143.909" r="43.6364" stroke="#3E63DD" stroke-width="25"/>
<circle cx="493.582" cy="522.091" r="43.6364" stroke="#3E63DD" stroke-width="25"/>
<path d="M493.58 478.454V420.273L435.398 373.727L435.398 292.273L493.58 245.727V187.545" stroke="#3E63DD" stroke-width="25"/>
<circle cx="43.6364" cy="43.6364" r="43.6364" transform="matrix(-1 0 0 1 217.215 100.273)" stroke="#3E63DD" stroke-width="25"/>
<circle cx="43.6364" cy="43.6364" r="43.6364" transform="matrix(-1 0 0 1 217.215 478.454)" stroke="#3E63DD" stroke-width="25"/>
<path d="M173.58 478.454V420.273L231.762 373.727V292.273L173.58 245.727V187.545" stroke="#3E63DD" stroke-width="25"/>
<circle cx="43.6364" cy="43.6364" r="43.6364" transform="matrix(-1 0 0 1 100.273 288.782)" stroke="#3E63DD" stroke-width="25"/>
<circle cx="43.6364" cy="43.6364" r="43.6364" transform="matrix(-1 0 0 1 653 288.782)" stroke="#3E63DD" stroke-width="25"/>
</svg>
