<svg width="1024" height="1024" viewBox="0 0 1024 1024" fill="none" xmlns="http://www.w3.org/2000/svg">
<circle cx="510.692" cy="233.131" r="41.1311" stroke="white" stroke-width="24.68"/>
<circle cx="510.692" cy="790.869" r="41.1311" stroke="white" stroke-width="24.68"/>
<rect x="499.174" y="274.263" width="24.6787" height="475.476" fill="white"/>
<circle cx="668.752" cy="303.877" r="41.1311" stroke="white" stroke-width="24.68"/>
<circle cx="668.752" cy="720.124" r="41.1311" stroke="white" stroke-width="24.68"/>
<rect x="657.236" y="345.008" width="24.6787" height="65.8098" fill="white"/>
<rect x="606.233" y="573.049" width="24.6787" height="82.2622" transform="rotate(-45 606.233 573.049)" fill="white"/>
<rect x="657.236" y="613.183" width="24.6787" height="65.8098" fill="white"/>
<rect x="606.233" y="450.304" width="24.6787" height="123.393" fill="white"/>
<rect x="664.286" y="392.72" width="24.6787" height="82.2622" transform="rotate(45 664.286 392.72)" fill="white"/>
<circle cx="41.1311" cy="41.1311" r="41.1311" transform="matrix(-1 0 0 1 395.521 262.747)" stroke="white" stroke-width="24.68"/>
<circle cx="41.1311" cy="41.1311" r="41.1311" transform="matrix(-1 0 0 1 395.521 678.993)" stroke="white" stroke-width="24.68"/>
<rect width="24.6787" height="65.8098" transform="matrix(-1 0 0 1 365.906 345.009)" fill="white"/>
<rect width="24.6787" height="82.2622" transform="matrix(-0.707107 -0.707107 -0.707107 0.707107 416.91 573.05)" fill="white"/>
<rect width="24.6787" height="65.8098" transform="matrix(-1 0 0 1 365.906 613.184)" fill="white"/>
<rect width="24.6787" height="123.393" transform="matrix(-1 0 0 1 416.91 450.304)" fill="white"/>
<rect width="24.6787" height="82.2622" transform="matrix(-0.707107 0.707107 0.707107 0.707107 358.859 392.72)" fill="white"/>
<circle cx="750.898" cy="512.823" r="41.1311" stroke="white" stroke-width="24.68"/>
<circle cx="272.131" cy="512.823" r="41.1311" stroke="white" stroke-width="24.68"/>
</svg>
