<svg width="234" height="210" viewBox="0 0 234 210" fill="none" xmlns="http://www.w3.org/2000/svg">
<rect x="134.25" y="0.25" width="99.5" height="29.5" rx="4.75" stroke="#D97706" stroke-width="0.5"/>
<rect x="66.25" y="110.25" width="99.5" height="29.5" rx="4.75" stroke="#2563EB" stroke-width="0.5"/>
<path d="M152.682 14.0054C152.619 13.8141 152.537 13.6427 152.435 13.4912C152.334 13.3378 152.214 13.2071 152.074 13.0991C151.936 12.9912 151.778 12.9088 151.602 12.852C151.426 12.7951 151.233 12.7667 151.023 12.7667C150.678 12.7667 150.365 12.8557 150.082 13.0338C149.8 13.2118 149.576 13.4741 149.409 13.8207C149.242 14.1673 149.159 14.5925 149.159 15.0963C149.159 15.6001 149.243 16.0253 149.412 16.3718C149.58 16.7184 149.809 16.9807 150.097 17.1588C150.384 17.3368 150.708 17.4258 151.068 17.4258C151.402 17.4258 151.695 17.3548 151.949 17.2128C152.205 17.0688 152.403 16.8662 152.545 16.6048C152.689 16.3415 152.761 16.0319 152.761 15.6758L152.977 15.7213H151.227V15.0963H153.443V15.7213C153.443 16.2004 153.341 16.6171 153.136 16.9713C152.934 17.3254 152.653 17.6001 152.295 17.7951C151.939 17.9883 151.53 18.0849 151.068 18.0849C150.553 18.0849 150.1 17.9637 149.71 17.7213C149.322 17.4789 149.019 17.1342 148.801 16.6872C148.585 16.2402 148.477 15.7099 148.477 15.0963C148.477 14.6361 148.539 14.2222 148.662 13.8548C148.787 13.4855 148.963 13.1711 149.19 12.9116C149.418 12.6522 149.687 12.4533 149.997 12.315C150.308 12.1768 150.65 12.1076 151.023 12.1076C151.33 12.1076 151.616 12.154 151.881 12.2468C152.148 12.3378 152.385 12.4675 152.594 12.6361C152.804 12.8027 152.979 13.0025 153.119 13.2355C153.259 13.4665 153.356 13.7232 153.409 14.0054H152.682ZM156.388 18.0963C155.968 18.0963 155.605 18.0035 155.3 17.8179C154.997 17.6304 154.763 17.369 154.599 17.0338C154.436 16.6967 154.354 16.3046 154.354 15.8576C154.354 15.4107 154.436 15.0167 154.599 14.6758C154.763 14.333 154.993 14.066 155.286 13.8747C155.582 13.6815 155.926 13.5849 156.32 13.5849C156.548 13.5849 156.772 13.6228 156.994 13.6986C157.215 13.7743 157.417 13.8974 157.599 14.0679C157.781 14.2364 157.925 14.4599 158.033 14.7383C158.141 15.0167 158.195 15.3595 158.195 15.7667V16.0508H154.832V15.4713H157.513C157.513 15.2251 157.464 15.0054 157.366 14.8122C157.269 14.619 157.131 14.4665 156.951 14.3548C156.773 14.2431 156.563 14.1872 156.32 14.1872C156.053 14.1872 155.822 14.2535 155.627 14.3861C155.434 14.5167 155.285 14.6872 155.181 14.8974C155.077 15.1076 155.025 15.333 155.025 15.5736V15.9599C155.025 16.2895 155.082 16.5688 155.195 16.798C155.311 17.0253 155.471 17.1986 155.675 17.3179C155.88 17.4353 156.118 17.494 156.388 17.494C156.565 17.494 156.724 17.4694 156.866 17.4201C157.01 17.369 157.134 17.2932 157.238 17.1929C157.342 17.0906 157.423 16.9637 157.479 16.8122L158.127 16.994C158.059 17.2137 157.944 17.4069 157.783 17.5736C157.622 17.7383 157.424 17.8671 157.187 17.9599C156.95 18.0508 156.684 18.0963 156.388 18.0963ZM161.113 13.6417V14.2099H158.852V13.6417H161.113ZM159.511 12.5963H160.181V16.7554C160.181 16.9448 160.209 17.0868 160.263 17.1815C160.32 17.2743 160.392 17.3368 160.479 17.369C160.568 17.3993 160.662 17.4145 160.761 17.4145C160.835 17.4145 160.895 17.4107 160.942 17.4031C160.99 17.3936 161.028 17.3861 161.056 17.3804L161.192 17.9826C161.147 17.9997 161.084 18.0167 161.002 18.0338C160.921 18.0527 160.817 18.0622 160.692 18.0622C160.503 18.0622 160.317 18.0215 160.136 17.94C159.956 17.8586 159.806 17.7345 159.687 17.5679C159.569 17.4012 159.511 17.191 159.511 16.9372V12.5963ZM166.019 18.0963C165.656 18.0963 165.335 18.0044 165.056 17.8207C164.778 17.6351 164.56 17.3737 164.403 17.0366C164.246 16.6976 164.167 16.297 164.167 15.8349C164.167 15.3766 164.246 14.9789 164.403 14.6417C164.56 14.3046 164.779 14.0442 165.059 13.8605C165.339 13.6768 165.663 13.5849 166.031 13.5849C166.315 13.5849 166.539 13.6323 166.704 13.727C166.871 13.8198 166.997 13.9258 167.085 14.0451C167.174 14.1626 167.243 14.2592 167.292 14.3349H167.349V12.1872H168.019V18.0054H167.371V17.3349H167.292C167.243 17.4145 167.173 17.5148 167.082 17.6361C166.991 17.7554 166.861 17.8624 166.692 17.9571C166.524 18.0499 166.299 18.0963 166.019 18.0963ZM166.11 17.494C166.379 17.494 166.606 17.4239 166.792 17.2838C166.978 17.1417 167.119 16.9457 167.215 16.6957C167.312 16.4438 167.36 16.1531 167.36 15.8236C167.36 15.4978 167.313 15.2128 167.218 14.9684C167.123 14.7222 166.983 14.5309 166.798 14.3946C166.612 14.2563 166.383 14.1872 166.11 14.1872C165.826 14.1872 165.589 14.2601 165.4 14.4059C165.212 14.5499 165.071 14.7459 164.977 14.994C164.884 15.2402 164.837 15.5167 164.837 15.8236C164.837 16.1342 164.885 16.4164 164.979 16.6701C165.076 16.922 165.218 17.1228 165.406 17.2724C165.595 17.4201 165.83 17.494 166.11 17.494ZM170.624 18.1076C170.348 18.1076 170.097 18.0556 169.871 17.9514C169.646 17.8453 169.467 17.6929 169.335 17.494C169.202 17.2932 169.136 17.0508 169.136 16.7667C169.136 16.5167 169.185 16.3141 169.283 16.1588C169.382 16.0016 169.513 15.8785 169.678 15.7895C169.843 15.7004 170.025 15.6342 170.224 15.5906C170.424 15.5451 170.626 15.5092 170.829 15.4826C171.094 15.4486 171.309 15.423 171.474 15.4059C171.64 15.387 171.762 15.3557 171.837 15.3122C171.915 15.2686 171.954 15.1929 171.954 15.0849V15.0622C171.954 14.7819 171.877 14.5641 171.724 14.4088C171.572 14.2535 171.342 14.1758 171.033 14.1758C170.713 14.1758 170.462 14.2459 170.281 14.3861C170.099 14.5262 169.971 14.6758 169.897 14.8349L169.261 14.6076C169.374 14.3425 169.526 14.1361 169.715 13.9883C169.906 13.8387 170.115 13.7345 170.34 13.6758C170.567 13.6152 170.791 13.5849 171.011 13.5849C171.151 13.5849 171.312 13.602 171.494 13.6361C171.677 13.6682 171.854 13.7355 172.025 13.8378C172.197 13.94 172.34 14.0944 172.454 14.3008C172.567 14.5073 172.624 14.7838 172.624 15.1304V18.0054H171.954V17.4145H171.92C171.874 17.5092 171.799 17.6105 171.692 17.7184C171.586 17.8264 171.445 17.9182 171.269 17.994C171.093 18.0698 170.878 18.1076 170.624 18.1076ZM170.727 17.5054C170.992 17.5054 171.215 17.4533 171.397 17.3491C171.581 17.245 171.719 17.1105 171.812 16.9457C171.906 16.7809 171.954 16.6076 171.954 16.4258V15.8122C171.925 15.8463 171.863 15.8775 171.766 15.9059C171.672 15.9325 171.562 15.9561 171.437 15.977C171.314 15.9959 171.193 16.0129 171.076 16.0281C170.96 16.0414 170.867 16.0527 170.795 16.0622C170.621 16.0849 170.458 16.1218 170.306 16.173C170.156 16.2222 170.035 16.297 169.942 16.3974C169.852 16.4959 169.806 16.6304 169.806 16.8008C169.806 17.0338 169.892 17.2099 170.065 17.3292C170.239 17.4467 170.46 17.5054 170.727 17.5054ZM175.746 13.6417V14.2099H173.484V13.6417H175.746ZM174.143 12.5963H174.814V16.7554C174.814 16.9448 174.841 17.0868 174.896 17.1815C174.953 17.2743 175.025 17.3368 175.112 17.369C175.201 17.3993 175.295 17.4145 175.393 17.4145C175.467 17.4145 175.528 17.4107 175.575 17.4031C175.623 17.3936 175.661 17.3861 175.689 17.3804L175.825 17.9826C175.78 17.9997 175.716 18.0167 175.635 18.0338C175.554 18.0527 175.45 18.0622 175.325 18.0622C175.136 18.0622 174.95 18.0215 174.768 17.94C174.589 17.8586 174.439 17.7345 174.32 17.5679C174.202 17.4012 174.143 17.191 174.143 16.9372V12.5963ZM178.038 18.1076C177.762 18.1076 177.511 18.0556 177.286 17.9514C177.06 17.8453 176.881 17.6929 176.749 17.494C176.616 17.2932 176.55 17.0508 176.55 16.7667C176.55 16.5167 176.599 16.3141 176.697 16.1588C176.796 16.0016 176.928 15.8785 177.092 15.7895C177.257 15.7004 177.439 15.6342 177.638 15.5906C177.839 15.5451 178.04 15.5092 178.243 15.4826C178.508 15.4486 178.723 15.423 178.888 15.4059C179.054 15.387 179.176 15.3557 179.251 15.3122C179.329 15.2686 179.368 15.1929 179.368 15.0849V15.0622C179.368 14.7819 179.291 14.5641 179.138 14.4088C178.986 14.2535 178.756 14.1758 178.447 14.1758C178.127 14.1758 177.876 14.2459 177.695 14.3861C177.513 14.5262 177.385 14.6758 177.311 14.8349L176.675 14.6076C176.788 14.3425 176.94 14.1361 177.129 13.9883C177.321 13.8387 177.529 13.7345 177.754 13.6758C177.982 13.6152 178.205 13.5849 178.425 13.5849C178.565 13.5849 178.726 13.602 178.908 13.6361C179.091 13.6682 179.268 13.7355 179.439 13.8378C179.611 13.94 179.754 14.0944 179.868 14.3008C179.982 14.5073 180.038 14.7838 180.038 15.1304V18.0054H179.368V17.4145H179.334C179.288 17.5092 179.213 17.6105 179.107 17.7184C179 17.8264 178.859 17.9182 178.683 17.994C178.507 18.0698 178.292 18.1076 178.038 18.1076ZM178.141 17.5054C178.406 17.5054 178.629 17.4533 178.811 17.3491C178.995 17.245 179.133 17.1105 179.226 16.9457C179.321 16.7809 179.368 16.6076 179.368 16.4258V15.8122C179.339 15.8463 179.277 15.8775 179.18 15.9059C179.086 15.9325 178.976 15.9561 178.851 15.977C178.728 15.9959 178.607 16.0129 178.49 16.0281C178.375 16.0414 178.281 16.0527 178.209 16.0622C178.035 16.0849 177.872 16.1218 177.72 16.173C177.571 16.2222 177.449 16.297 177.357 16.3974C177.266 16.4959 177.22 16.6304 177.22 16.8008C177.22 17.0338 177.306 17.2099 177.479 17.3292C177.653 17.4467 177.874 17.5054 178.141 17.5054ZM185.455 13.6417V14.2099H183.103V13.6417H185.455ZM183.808 18.0054V13.0395C183.808 12.7895 183.866 12.5811 183.984 12.4145C184.101 12.2478 184.254 12.1228 184.441 12.0395C184.629 11.9561 184.826 11.9145 185.035 11.9145C185.2 11.9145 185.334 11.9277 185.438 11.9542C185.542 11.9807 185.62 12.0054 185.671 12.0281L185.478 12.6076C185.444 12.5963 185.397 12.5821 185.336 12.565C185.277 12.548 185.2 12.5395 185.103 12.5395C184.881 12.5395 184.721 12.5953 184.623 12.7071C184.526 12.8188 184.478 12.9826 184.478 13.1986V18.0054H183.808ZM186.395 18.0054V13.6417H187.043V14.3008H187.088C187.168 14.0849 187.312 13.9097 187.52 13.7753C187.728 13.6408 187.963 13.5736 188.224 13.5736C188.274 13.5736 188.335 13.5745 188.409 13.5764C188.483 13.5783 188.539 13.5811 188.577 13.5849V14.2667C188.554 14.2611 188.502 14.2525 188.42 14.2412C188.341 14.2279 188.257 14.2213 188.168 14.2213C187.955 14.2213 187.766 14.2658 187.599 14.3548C187.435 14.4419 187.304 14.5631 187.207 14.7184C187.113 14.8718 187.065 15.047 187.065 15.244V18.0054H186.395ZM191.011 18.0963C190.617 18.0963 190.272 18.0025 189.974 17.815C189.679 17.6275 189.448 17.3652 189.281 17.0281C189.116 16.691 189.034 16.297 189.034 15.8463C189.034 15.3917 189.116 14.995 189.281 14.6559C189.448 14.3169 189.679 14.0537 189.974 13.8662C190.272 13.6787 190.617 13.5849 191.011 13.5849C191.405 13.5849 191.75 13.6787 192.045 13.8662C192.343 14.0537 192.574 14.3169 192.739 14.6559C192.905 14.995 192.989 15.3917 192.989 15.8463C192.989 16.297 192.905 16.691 192.739 17.0281C192.574 17.3652 192.343 17.6275 192.045 17.815C191.75 18.0025 191.405 18.0963 191.011 18.0963ZM191.011 17.494C191.311 17.494 191.557 17.4173 191.75 17.2639C191.943 17.1105 192.086 16.9088 192.179 16.6588C192.272 16.4088 192.318 16.1379 192.318 15.8463C192.318 15.5546 192.272 15.2828 192.179 15.0309C192.086 14.779 191.943 14.5754 191.75 14.4201C191.557 14.2648 191.311 14.1872 191.011 14.1872C190.712 14.1872 190.466 14.2648 190.273 14.4201C190.08 14.5754 189.937 14.779 189.844 15.0309C189.751 15.2828 189.705 15.5546 189.705 15.8463C189.705 16.1379 189.751 16.4088 189.844 16.6588C189.937 16.9088 190.08 17.1105 190.273 17.2639C190.466 17.4173 190.712 17.494 191.011 17.494ZM194.012 18.0054V13.6417H194.66V14.3236H194.717C194.808 14.0906 194.954 13.9097 195.157 13.7809C195.36 13.6503 195.603 13.5849 195.887 13.5849C196.175 13.5849 196.415 13.6503 196.606 13.7809C196.799 13.9097 196.95 14.0906 197.058 14.3236H197.103C197.215 14.0982 197.382 13.9192 197.606 13.7866C197.829 13.6522 198.097 13.5849 198.41 13.5849C198.8 13.5849 199.119 13.7071 199.367 13.9514C199.615 14.1938 199.739 14.5717 199.739 15.0849V18.0054H199.069V15.0849C199.069 14.7629 198.981 14.5328 198.805 14.3946C198.629 14.2563 198.421 14.1872 198.183 14.1872C197.876 14.1872 197.638 14.28 197.469 14.4656C197.301 14.6493 197.217 14.8823 197.217 15.1645V18.0054H196.535V15.0167C196.535 14.7686 196.454 14.5688 196.293 14.4173C196.132 14.2639 195.925 14.1872 195.671 14.1872C195.497 14.1872 195.334 14.2336 195.183 14.3264C195.033 14.4192 194.912 14.548 194.819 14.7128C194.728 14.8756 194.683 15.0641 194.683 15.2781V18.0054H194.012ZM207.988 14.0054H207.283C207.242 13.8027 207.169 13.6247 207.065 13.4713C206.962 13.3179 206.837 13.1891 206.69 13.0849C206.544 12.9789 206.382 12.8993 206.204 12.8463C206.026 12.7932 205.84 12.7667 205.647 12.7667C205.295 12.7667 204.976 12.8557 204.69 13.0338C204.406 13.2118 204.179 13.4741 204.011 13.8207C203.844 14.1673 203.761 14.5925 203.761 15.0963C203.761 15.6001 203.844 16.0253 204.011 16.3718C204.179 16.7184 204.406 16.9807 204.69 17.1588C204.976 17.3368 205.295 17.4258 205.647 17.4258C205.84 17.4258 206.026 17.3993 206.204 17.3463C206.382 17.2932 206.544 17.2147 206.69 17.1105C206.837 17.0044 206.962 16.8747 207.065 16.7213C207.169 16.566 207.242 16.3879 207.283 16.1872H207.988C207.935 16.4845 207.838 16.7506 207.698 16.9855C207.558 17.2203 207.384 17.4201 207.175 17.5849C206.967 17.7478 206.733 17.8718 206.474 17.9571C206.216 18.0423 205.941 18.0849 205.647 18.0849C205.151 18.0849 204.71 17.9637 204.323 17.7213C203.937 17.4789 203.633 17.1342 203.411 16.6872C203.19 16.2402 203.079 15.7099 203.079 15.0963C203.079 14.4826 203.19 13.9523 203.411 13.5054C203.633 13.0584 203.937 12.7137 204.323 12.4713C204.71 12.2289 205.151 12.1076 205.647 12.1076C205.941 12.1076 206.216 12.1503 206.474 12.2355C206.733 12.3207 206.967 12.4457 207.175 12.6105C207.384 12.7734 207.558 12.9722 207.698 13.2071C207.838 13.44 207.935 13.7061 207.988 14.0054ZM209.126 18.0054V12.1872H211.092C211.547 12.1872 211.92 12.2648 212.212 12.4201C212.503 12.5736 212.719 12.7847 212.859 13.0537C213 13.3226 213.07 13.6285 213.07 13.9713C213.07 14.3141 213 14.6181 212.859 14.8832C212.719 15.1484 212.504 15.3567 212.214 15.5082C211.925 15.6578 211.554 15.7326 211.104 15.7326H209.513V15.0963H211.081C211.392 15.0963 211.642 15.0508 211.831 14.9599C212.022 14.869 212.161 14.7402 212.246 14.5736C212.333 14.405 212.376 14.2042 212.376 13.9713C212.376 13.7383 212.333 13.5347 212.246 13.3605C212.159 13.1862 212.019 13.0518 211.828 12.9571C211.637 12.8605 211.384 12.8122 211.07 12.8122H209.831V18.0054H209.126ZM211.865 15.3917L213.297 18.0054H212.479L211.07 15.3917H211.865ZM214.244 12.1872H215.085L217.062 17.0167H217.13L219.107 12.1872H219.948V18.0054H219.289V13.5849H219.232L217.414 18.0054H216.778L214.96 13.5849H214.903V18.0054H214.244V12.1872Z" fill="#D97706"/>
<path d="M94.7045 122.182H95.5455L97.5227 127.011H97.5909L99.5682 122.182H100.409V128H99.75V123.58H99.6932L97.875 128H97.2386L95.4205 123.58H95.3636V128H94.7045V122.182ZM103.56 128.091C103.14 128.091 102.777 127.998 102.472 127.812C102.169 127.625 101.935 127.364 101.771 127.028C101.608 126.691 101.526 126.299 101.526 125.852C101.526 125.405 101.608 125.011 101.771 124.67C101.935 124.328 102.165 124.061 102.458 123.869C102.754 123.676 103.098 123.58 103.492 123.58C103.719 123.58 103.944 123.617 104.165 123.693C104.387 123.769 104.589 123.892 104.771 124.062C104.952 124.231 105.097 124.455 105.205 124.733C105.313 125.011 105.367 125.354 105.367 125.761V126.045H102.004V125.466H104.685C104.685 125.22 104.636 125 104.538 124.807C104.441 124.614 104.303 124.461 104.123 124.349C103.945 124.238 103.735 124.182 103.492 124.182C103.225 124.182 102.994 124.248 102.799 124.381C102.606 124.511 102.457 124.682 102.353 124.892C102.249 125.102 102.197 125.328 102.197 125.568V125.955C102.197 126.284 102.254 126.563 102.367 126.793C102.483 127.02 102.643 127.193 102.847 127.312C103.052 127.43 103.29 127.489 103.56 127.489C103.737 127.489 103.896 127.464 104.038 127.415C104.182 127.364 104.306 127.288 104.41 127.188C104.514 127.085 104.594 126.958 104.651 126.807L105.299 126.989C105.231 127.208 105.116 127.402 104.955 127.568C104.794 127.733 104.595 127.862 104.359 127.955C104.122 128.045 103.856 128.091 103.56 128.091ZM106.387 128V123.636H107.035V124.295H107.08C107.16 124.08 107.304 123.904 107.512 123.77C107.72 123.635 107.955 123.568 108.217 123.568C108.266 123.568 108.327 123.569 108.401 123.571C108.475 123.573 108.531 123.576 108.569 123.58V124.261C108.546 124.256 108.494 124.247 108.413 124.236C108.333 124.223 108.249 124.216 108.16 124.216C107.948 124.216 107.758 124.26 107.592 124.349C107.427 124.437 107.296 124.558 107.2 124.713C107.105 124.866 107.058 125.042 107.058 125.239V128H106.387ZM110.992 129.727C110.668 129.727 110.39 129.686 110.157 129.602C109.924 129.521 109.73 129.413 109.575 129.278C109.421 129.146 109.299 129.004 109.208 128.852L109.742 128.477C109.803 128.557 109.879 128.648 109.972 128.75C110.065 128.854 110.192 128.944 110.353 129.02C110.516 129.098 110.729 129.136 110.992 129.136C111.344 129.136 111.635 129.051 111.864 128.881C112.094 128.71 112.208 128.443 112.208 128.08V127.193H112.151C112.102 127.273 112.032 127.371 111.941 127.489C111.852 127.604 111.723 127.707 111.555 127.798C111.388 127.887 111.163 127.932 110.879 127.932C110.526 127.932 110.21 127.848 109.93 127.682C109.651 127.515 109.431 127.273 109.268 126.955C109.107 126.636 109.026 126.25 109.026 125.795C109.026 125.348 109.105 124.959 109.262 124.628C109.419 124.295 109.638 124.037 109.918 123.855C110.199 123.671 110.522 123.58 110.89 123.58C111.174 123.58 111.399 123.627 111.566 123.722C111.735 123.814 111.863 123.92 111.952 124.04C112.043 124.157 112.113 124.254 112.163 124.33H112.231V123.636H112.879V128.125C112.879 128.5 112.793 128.805 112.623 129.04C112.454 129.277 112.227 129.45 111.941 129.56C111.657 129.671 111.341 129.727 110.992 129.727ZM110.969 127.33C111.238 127.33 111.466 127.268 111.651 127.145C111.837 127.022 111.978 126.845 112.075 126.614C112.171 126.383 112.219 126.106 112.219 125.784C112.219 125.47 112.172 125.192 112.077 124.952C111.983 124.711 111.843 124.523 111.657 124.386C111.471 124.25 111.242 124.182 110.969 124.182C110.685 124.182 110.449 124.254 110.259 124.398C110.072 124.542 109.931 124.735 109.836 124.977C109.743 125.22 109.697 125.489 109.697 125.784C109.697 126.087 109.744 126.355 109.839 126.588C109.935 126.819 110.077 127.001 110.265 127.134C110.454 127.264 110.689 127.33 110.969 127.33ZM115.935 128.091C115.515 128.091 115.152 127.998 114.847 127.812C114.544 127.625 114.31 127.364 114.146 127.028C113.983 126.691 113.901 126.299 113.901 125.852C113.901 125.405 113.983 125.011 114.146 124.67C114.31 124.328 114.54 124.061 114.833 123.869C115.129 123.676 115.473 123.58 115.867 123.58C116.094 123.58 116.319 123.617 116.54 123.693C116.762 123.769 116.964 123.892 117.146 124.062C117.327 124.231 117.472 124.455 117.58 124.733C117.688 125.011 117.742 125.354 117.742 125.761V126.045H114.379V125.466H117.06C117.06 125.22 117.011 125 116.913 124.807C116.816 124.614 116.678 124.461 116.498 124.349C116.32 124.238 116.11 124.182 115.867 124.182C115.6 124.182 115.369 124.248 115.174 124.381C114.981 124.511 114.832 124.682 114.728 124.892C114.624 125.102 114.572 125.328 114.572 125.568V125.955C114.572 126.284 114.629 126.563 114.742 126.793C114.858 127.02 115.018 127.193 115.222 127.312C115.427 127.43 115.665 127.489 115.935 127.489C116.112 127.489 116.271 127.464 116.413 127.415C116.557 127.364 116.681 127.288 116.785 127.188C116.889 127.085 116.969 126.958 117.026 126.807L117.674 126.989C117.606 127.208 117.491 127.402 117.33 127.568C117.169 127.733 116.97 127.862 116.734 127.955C116.497 128.045 116.231 128.091 115.935 128.091ZM122.66 128.091C122.296 128.091 121.975 127.999 121.697 127.815C121.418 127.63 121.201 127.368 121.043 127.031C120.886 126.692 120.808 126.292 120.808 125.83C120.808 125.371 120.886 124.973 121.043 124.636C121.201 124.299 121.419 124.039 121.7 123.855C121.98 123.671 122.304 123.58 122.671 123.58C122.955 123.58 123.18 123.627 123.344 123.722C123.511 123.814 123.638 123.92 123.725 124.04C123.814 124.157 123.883 124.254 123.933 124.33H123.989V122.182H124.66V128H124.012V127.33H123.933C123.883 127.409 123.813 127.509 123.722 127.631C123.631 127.75 123.502 127.857 123.333 127.952C123.165 128.045 122.94 128.091 122.66 128.091ZM122.751 127.489C123.02 127.489 123.247 127.419 123.433 127.278C123.618 127.136 123.759 126.94 123.856 126.69C123.952 126.438 124.001 126.148 124.001 125.818C124.001 125.492 123.953 125.207 123.859 124.963C123.764 124.717 123.624 124.526 123.438 124.389C123.253 124.251 123.023 124.182 122.751 124.182C122.467 124.182 122.23 124.255 122.04 124.401C121.853 124.545 121.712 124.741 121.617 124.989C121.524 125.235 121.478 125.511 121.478 125.818C121.478 126.129 121.525 126.411 121.62 126.665C121.717 126.917 121.859 127.117 122.046 127.267C122.236 127.415 122.47 127.489 122.751 127.489ZM127.265 128.102C126.988 128.102 126.737 128.05 126.512 127.946C126.287 127.84 126.108 127.688 125.975 127.489C125.843 127.288 125.776 127.045 125.776 126.761C125.776 126.511 125.826 126.309 125.924 126.153C126.022 125.996 126.154 125.873 126.319 125.784C126.484 125.695 126.665 125.629 126.864 125.585C127.065 125.54 127.267 125.504 127.469 125.477C127.735 125.443 127.95 125.418 128.114 125.401C128.281 125.382 128.402 125.35 128.478 125.307C128.556 125.263 128.594 125.187 128.594 125.08V125.057C128.594 124.777 128.518 124.559 128.364 124.403C128.213 124.248 127.983 124.17 127.674 124.17C127.354 124.17 127.103 124.241 126.921 124.381C126.739 124.521 126.612 124.67 126.538 124.83L125.901 124.602C126.015 124.337 126.166 124.131 126.356 123.983C126.547 123.833 126.755 123.729 126.981 123.67C127.208 123.61 127.432 123.58 127.651 123.58C127.791 123.58 127.952 123.597 128.134 123.631C128.318 123.663 128.495 123.73 128.665 123.832C128.838 123.935 128.981 124.089 129.094 124.295C129.208 124.502 129.265 124.778 129.265 125.125V128H128.594V127.409H128.56C128.515 127.504 128.439 127.605 128.333 127.713C128.227 127.821 128.086 127.913 127.91 127.989C127.734 128.064 127.519 128.102 127.265 128.102ZM127.367 127.5C127.632 127.5 127.856 127.448 128.038 127.344C128.221 127.24 128.36 127.105 128.452 126.94C128.547 126.776 128.594 126.602 128.594 126.42V125.807C128.566 125.841 128.504 125.872 128.407 125.901C128.312 125.927 128.202 125.951 128.077 125.972C127.954 125.991 127.834 126.008 127.717 126.023C127.601 126.036 127.507 126.047 127.435 126.057C127.261 126.08 127.098 126.116 126.947 126.168C126.797 126.217 126.676 126.292 126.583 126.392C126.492 126.491 126.447 126.625 126.447 126.795C126.447 127.028 126.533 127.205 126.705 127.324C126.879 127.441 127.1 127.5 127.367 127.5ZM132.386 123.636V124.205H130.125V123.636H132.386ZM130.784 122.591H131.455V126.75C131.455 126.939 131.482 127.081 131.537 127.176C131.594 127.269 131.666 127.331 131.753 127.364C131.842 127.394 131.936 127.409 132.034 127.409C132.108 127.409 132.169 127.405 132.216 127.398C132.263 127.388 132.301 127.381 132.33 127.375L132.466 127.977C132.42 127.994 132.357 128.011 132.276 128.028C132.194 128.047 132.091 128.057 131.966 128.057C131.777 128.057 131.591 128.016 131.409 127.935C131.229 127.853 131.08 127.729 130.96 127.562C130.843 127.396 130.784 127.186 130.784 126.932V122.591ZM134.679 128.102C134.402 128.102 134.152 128.05 133.926 127.946C133.701 127.84 133.522 127.688 133.389 127.489C133.257 127.288 133.19 127.045 133.19 126.761C133.19 126.511 133.24 126.309 133.338 126.153C133.437 125.996 133.568 125.873 133.733 125.784C133.898 125.695 134.08 125.629 134.278 125.585C134.479 125.54 134.681 125.504 134.884 125.477C135.149 125.443 135.364 125.418 135.528 125.401C135.695 125.382 135.816 125.35 135.892 125.307C135.97 125.263 136.009 125.187 136.009 125.08V125.057C136.009 124.777 135.932 124.559 135.778 124.403C135.627 124.248 135.397 124.17 135.088 124.17C134.768 124.17 134.517 124.241 134.335 124.381C134.153 124.521 134.026 124.67 133.952 124.83L133.315 124.602C133.429 124.337 133.58 124.131 133.77 123.983C133.961 123.833 134.17 123.729 134.395 123.67C134.622 123.61 134.846 123.58 135.065 123.58C135.205 123.58 135.366 123.597 135.548 123.631C135.732 123.663 135.909 123.73 136.08 123.832C136.252 123.935 136.395 124.089 136.509 124.295C136.622 124.502 136.679 124.778 136.679 125.125V128H136.009V127.409H135.974C135.929 127.504 135.853 127.605 135.747 127.713C135.641 127.821 135.5 127.913 135.324 127.989C135.148 128.064 134.933 128.102 134.679 128.102ZM134.781 127.5C135.046 127.5 135.27 127.448 135.452 127.344C135.635 127.24 135.774 127.105 135.866 126.94C135.961 126.776 136.009 126.602 136.009 126.42V125.807C135.98 125.841 135.918 125.872 135.821 125.901C135.726 125.927 135.616 125.951 135.491 125.972C135.368 125.991 135.248 126.008 135.131 126.023C135.015 126.036 134.921 126.047 134.849 126.057C134.675 126.08 134.512 126.116 134.361 126.168C134.211 126.217 134.09 126.292 133.997 126.392C133.906 126.491 133.861 126.625 133.861 126.795C133.861 127.028 133.947 127.205 134.119 127.324C134.294 127.441 134.514 127.5 134.781 127.5Z" fill="#2563EB"/>
<path d="M94.7045 122.182H95.5455L97.5227 127.011H97.5909L99.5682 122.182H100.409V128H99.75V123.58H99.6932L97.875 128H97.2386L95.4205 123.58H95.3636V128H94.7045V122.182ZM103.56 128.091C103.14 128.091 102.777 127.998 102.472 127.812C102.169 127.625 101.935 127.364 101.771 127.028C101.608 126.691 101.526 126.299 101.526 125.852C101.526 125.405 101.608 125.011 101.771 124.67C101.935 124.328 102.165 124.061 102.458 123.869C102.754 123.676 103.098 123.58 103.492 123.58C103.719 123.58 103.944 123.617 104.165 123.693C104.387 123.769 104.589 123.892 104.771 124.062C104.952 124.231 105.097 124.455 105.205 124.733C105.313 125.011 105.367 125.354 105.367 125.761V126.045H102.004V125.466H104.685C104.685 125.22 104.636 125 104.538 124.807C104.441 124.614 104.303 124.461 104.123 124.349C103.945 124.238 103.735 124.182 103.492 124.182C103.225 124.182 102.994 124.248 102.799 124.381C102.606 124.511 102.457 124.682 102.353 124.892C102.249 125.102 102.197 125.328 102.197 125.568V125.955C102.197 126.284 102.254 126.563 102.367 126.793C102.483 127.02 102.643 127.193 102.847 127.312C103.052 127.43 103.29 127.489 103.56 127.489C103.737 127.489 103.896 127.464 104.038 127.415C104.182 127.364 104.306 127.288 104.41 127.188C104.514 127.085 104.594 126.958 104.651 126.807L105.299 126.989C105.231 127.208 105.116 127.402 104.955 127.568C104.794 127.733 104.595 127.862 104.359 127.955C104.122 128.045 103.856 128.091 103.56 128.091ZM106.387 128V123.636H107.035V124.295H107.08C107.16 124.08 107.304 123.904 107.512 123.77C107.72 123.635 107.955 123.568 108.217 123.568C108.266 123.568 108.327 123.569 108.401 123.571C108.475 123.573 108.531 123.576 108.569 123.58V124.261C108.546 124.256 108.494 124.247 108.413 124.236C108.333 124.223 108.249 124.216 108.16 124.216C107.948 124.216 107.758 124.26 107.592 124.349C107.427 124.437 107.296 124.558 107.2 124.713C107.105 124.866 107.058 125.042 107.058 125.239V128H106.387ZM110.992 129.727C110.668 129.727 110.39 129.686 110.157 129.602C109.924 129.521 109.73 129.413 109.575 129.278C109.421 129.146 109.299 129.004 109.208 128.852L109.742 128.477C109.803 128.557 109.879 128.648 109.972 128.75C110.065 128.854 110.192 128.944 110.353 129.02C110.516 129.098 110.729 129.136 110.992 129.136C111.344 129.136 111.635 129.051 111.864 128.881C112.094 128.71 112.208 128.443 112.208 128.08V127.193H112.151C112.102 127.273 112.032 127.371 111.941 127.489C111.852 127.604 111.723 127.707 111.555 127.798C111.388 127.887 111.163 127.932 110.879 127.932C110.526 127.932 110.21 127.848 109.93 127.682C109.651 127.515 109.431 127.273 109.268 126.955C109.107 126.636 109.026 126.25 109.026 125.795C109.026 125.348 109.105 124.959 109.262 124.628C109.419 124.295 109.638 124.037 109.918 123.855C110.199 123.671 110.522 123.58 110.89 123.58C111.174 123.58 111.399 123.627 111.566 123.722C111.735 123.814 111.863 123.92 111.952 124.04C112.043 124.157 112.113 124.254 112.163 124.33H112.231V123.636H112.879V128.125C112.879 128.5 112.793 128.805 112.623 129.04C112.454 129.277 112.227 129.45 111.941 129.56C111.657 129.671 111.341 129.727 110.992 129.727ZM110.969 127.33C111.238 127.33 111.466 127.268 111.651 127.145C111.837 127.022 111.978 126.845 112.075 126.614C112.171 126.383 112.219 126.106 112.219 125.784C112.219 125.47 112.172 125.192 112.077 124.952C111.983 124.711 111.843 124.523 111.657 124.386C111.471 124.25 111.242 124.182 110.969 124.182C110.685 124.182 110.449 124.254 110.259 124.398C110.072 124.542 109.931 124.735 109.836 124.977C109.743 125.22 109.697 125.489 109.697 125.784C109.697 126.087 109.744 126.355 109.839 126.588C109.935 126.819 110.077 127.001 110.265 127.134C110.454 127.264 110.689 127.33 110.969 127.33ZM115.935 128.091C115.515 128.091 115.152 127.998 114.847 127.812C114.544 127.625 114.31 127.364 114.146 127.028C113.983 126.691 113.901 126.299 113.901 125.852C113.901 125.405 113.983 125.011 114.146 124.67C114.31 124.328 114.54 124.061 114.833 123.869C115.129 123.676 115.473 123.58 115.867 123.58C116.094 123.58 116.319 123.617 116.54 123.693C116.762 123.769 116.964 123.892 117.146 124.062C117.327 124.231 117.472 124.455 117.58 124.733C117.688 125.011 117.742 125.354 117.742 125.761V126.045H114.379V125.466H117.06C117.06 125.22 117.011 125 116.913 124.807C116.816 124.614 116.678 124.461 116.498 124.349C116.32 124.238 116.11 124.182 115.867 124.182C115.6 124.182 115.369 124.248 115.174 124.381C114.981 124.511 114.832 124.682 114.728 124.892C114.624 125.102 114.572 125.328 114.572 125.568V125.955C114.572 126.284 114.629 126.563 114.742 126.793C114.858 127.02 115.018 127.193 115.222 127.312C115.427 127.43 115.665 127.489 115.935 127.489C116.112 127.489 116.271 127.464 116.413 127.415C116.557 127.364 116.681 127.288 116.785 127.188C116.889 127.085 116.969 126.958 117.026 126.807L117.674 126.989C117.606 127.208 117.491 127.402 117.33 127.568C117.169 127.733 116.97 127.862 116.734 127.955C116.497 128.045 116.231 128.091 115.935 128.091ZM122.66 128.091C122.296 128.091 121.975 127.999 121.697 127.815C121.418 127.63 121.201 127.368 121.043 127.031C120.886 126.692 120.808 126.292 120.808 125.83C120.808 125.371 120.886 124.973 121.043 124.636C121.201 124.299 121.419 124.039 121.7 123.855C121.98 123.671 122.304 123.58 122.671 123.58C122.955 123.58 123.18 123.627 123.344 123.722C123.511 123.814 123.638 123.92 123.725 124.04C123.814 124.157 123.883 124.254 123.933 124.33H123.989V122.182H124.66V128H124.012V127.33H123.933C123.883 127.409 123.813 127.509 123.722 127.631C123.631 127.75 123.502 127.857 123.333 127.952C123.165 128.045 122.94 128.091 122.66 128.091ZM122.751 127.489C123.02 127.489 123.247 127.419 123.433 127.278C123.618 127.136 123.759 126.94 123.856 126.69C123.952 126.438 124.001 126.148 124.001 125.818C124.001 125.492 123.953 125.207 123.859 124.963C123.764 124.717 123.624 124.526 123.438 124.389C123.253 124.251 123.023 124.182 122.751 124.182C122.467 124.182 122.23 124.255 122.04 124.401C121.853 124.545 121.712 124.741 121.617 124.989C121.524 125.235 121.478 125.511 121.478 125.818C121.478 126.129 121.525 126.411 121.62 126.665C121.717 126.917 121.859 127.117 122.046 127.267C122.236 127.415 122.47 127.489 122.751 127.489ZM127.265 128.102C126.988 128.102 126.737 128.05 126.512 127.946C126.287 127.84 126.108 127.688 125.975 127.489C125.843 127.288 125.776 127.045 125.776 126.761C125.776 126.511 125.826 126.309 125.924 126.153C126.022 125.996 126.154 125.873 126.319 125.784C126.484 125.695 126.665 125.629 126.864 125.585C127.065 125.54 127.267 125.504 127.469 125.477C127.735 125.443 127.95 125.418 128.114 125.401C128.281 125.382 128.402 125.35 128.478 125.307C128.556 125.263 128.594 125.187 128.594 125.08V125.057C128.594 124.777 128.518 124.559 128.364 124.403C128.213 124.248 127.983 124.17 127.674 124.17C127.354 124.17 127.103 124.241 126.921 124.381C126.739 124.521 126.612 124.67 126.538 124.83L125.901 124.602C126.015 124.337 126.166 124.131 126.356 123.983C126.547 123.833 126.755 123.729 126.981 123.67C127.208 123.61 127.432 123.58 127.651 123.58C127.791 123.58 127.952 123.597 128.134 123.631C128.318 123.663 128.495 123.73 128.665 123.832C128.838 123.935 128.981 124.089 129.094 124.295C129.208 124.502 129.265 124.778 129.265 125.125V128H128.594V127.409H128.56C128.515 127.504 128.439 127.605 128.333 127.713C128.227 127.821 128.086 127.913 127.91 127.989C127.734 128.064 127.519 128.102 127.265 128.102ZM127.367 127.5C127.632 127.5 127.856 127.448 128.038 127.344C128.221 127.24 128.36 127.105 128.452 126.94C128.547 126.776 128.594 126.602 128.594 126.42V125.807C128.566 125.841 128.504 125.872 128.407 125.901C128.312 125.927 128.202 125.951 128.077 125.972C127.954 125.991 127.834 126.008 127.717 126.023C127.601 126.036 127.507 126.047 127.435 126.057C127.261 126.08 127.098 126.116 126.947 126.168C126.797 126.217 126.676 126.292 126.583 126.392C126.492 126.491 126.447 126.625 126.447 126.795C126.447 127.028 126.533 127.205 126.705 127.324C126.879 127.441 127.1 127.5 127.367 127.5ZM132.386 123.636V124.205H130.125V123.636H132.386ZM130.784 122.591H131.455V126.75C131.455 126.939 131.482 127.081 131.537 127.176C131.594 127.269 131.666 127.331 131.753 127.364C131.842 127.394 131.936 127.409 132.034 127.409C132.108 127.409 132.169 127.405 132.216 127.398C132.263 127.388 132.301 127.381 132.33 127.375L132.466 127.977C132.42 127.994 132.357 128.011 132.276 128.028C132.194 128.047 132.091 128.057 131.966 128.057C131.777 128.057 131.591 128.016 131.409 127.935C131.229 127.853 131.08 127.729 130.96 127.562C130.843 127.396 130.784 127.186 130.784 126.932V122.591ZM134.679 128.102C134.402 128.102 134.152 128.05 133.926 127.946C133.701 127.84 133.522 127.688 133.389 127.489C133.257 127.288 133.19 127.045 133.19 126.761C133.19 126.511 133.24 126.309 133.338 126.153C133.437 125.996 133.568 125.873 133.733 125.784C133.898 125.695 134.08 125.629 134.278 125.585C134.479 125.54 134.681 125.504 134.884 125.477C135.149 125.443 135.364 125.418 135.528 125.401C135.695 125.382 135.816 125.35 135.892 125.307C135.97 125.263 136.009 125.187 136.009 125.08V125.057C136.009 124.777 135.932 124.559 135.778 124.403C135.627 124.248 135.397 124.17 135.088 124.17C134.768 124.17 134.517 124.241 134.335 124.381C134.153 124.521 134.026 124.67 133.952 124.83L133.315 124.602C133.429 124.337 133.58 124.131 133.77 123.983C133.961 123.833 134.17 123.729 134.395 123.67C134.622 123.61 134.846 123.58 135.065 123.58C135.205 123.58 135.366 123.597 135.548 123.631C135.732 123.663 135.909 123.73 136.08 123.832C136.252 123.935 136.395 124.089 136.509 124.295C136.622 124.502 136.679 124.778 136.679 125.125V128H136.009V127.409H135.974C135.929 127.504 135.853 127.605 135.747 127.713C135.641 127.821 135.5 127.913 135.324 127.989C135.148 128.064 134.933 128.102 134.679 128.102ZM134.781 127.5C135.046 127.5 135.27 127.448 135.452 127.344C135.635 127.24 135.774 127.105 135.866 126.94C135.961 126.776 136.009 126.602 136.009 126.42V125.807C135.98 125.841 135.918 125.872 135.821 125.901C135.726 125.927 135.616 125.951 135.491 125.972C135.368 125.991 135.248 126.008 135.131 126.023C135.015 126.036 134.921 126.047 134.849 126.057C134.675 126.08 134.512 126.116 134.361 126.168C134.211 126.217 134.09 126.292 133.997 126.392C133.906 126.491 133.861 126.625 133.861 126.795C133.861 127.028 133.947 127.205 134.119 127.324C134.294 127.441 134.514 127.5 134.781 127.5Z" fill="#2563EB"/>
<rect x="66.25" y="180.25" width="99.5" height="29.5" rx="4.75" stroke="#059669" stroke-width="0.5"/>
<path d="M82.82 188.639C82.7859 188.351 82.6476 188.127 82.4052 187.968C82.1628 187.809 81.8654 187.73 81.5131 187.73C81.2556 187.73 81.0302 187.771 80.837 187.855C80.6457 187.938 80.4961 188.052 80.3881 188.198C80.2821 188.344 80.229 188.51 80.229 188.695C80.229 188.851 80.266 188.984 80.3398 189.096C80.4156 189.206 80.5122 189.298 80.6296 189.372C80.747 189.444 80.8701 189.503 80.9989 189.551C81.1277 189.596 81.2461 189.633 81.354 189.661L81.945 189.82C82.0965 189.86 82.265 189.915 82.4506 189.985C82.6381 190.055 82.8171 190.151 82.9876 190.272C83.1599 190.391 83.302 190.545 83.4137 190.732C83.5255 190.92 83.5813 191.15 83.5813 191.423C83.5813 191.737 83.4989 192.021 83.3342 192.275C83.1713 192.529 82.9326 192.73 82.6183 192.88C82.3058 193.03 81.926 193.105 81.479 193.105C81.0624 193.105 80.7016 193.037 80.3967 192.903C80.0936 192.768 79.855 192.581 79.6808 192.34C79.5084 192.1 79.4109 191.82 79.3881 191.502H80.1154C80.1344 191.722 80.2082 191.904 80.337 192.048C80.4677 192.19 80.6325 192.296 80.8313 192.366C81.0321 192.434 81.248 192.468 81.479 192.468C81.748 192.468 81.9895 192.425 82.2035 192.337C82.4175 192.248 82.587 192.125 82.712 191.968C82.837 191.809 82.8995 191.623 82.8995 191.411C82.8995 191.218 82.8455 191.061 82.7376 190.94C82.6296 190.819 82.4876 190.72 82.3114 190.644C82.1353 190.569 81.945 190.502 81.7404 190.445L81.0245 190.241C80.57 190.11 80.2101 189.924 79.945 189.681C79.6798 189.439 79.5472 189.122 79.5472 188.73C79.5472 188.404 79.6353 188.12 79.8114 187.877C79.9895 187.633 80.2281 187.444 80.5273 187.309C80.8285 187.173 81.1647 187.105 81.5359 187.105C81.9109 187.105 82.2442 187.172 82.5359 187.306C82.8275 187.439 83.0586 187.621 83.229 187.852C83.4014 188.083 83.4923 188.345 83.5018 188.639H82.82ZM86.5465 188.639V189.207H84.2852V188.639H86.5465ZM84.9442 187.593H85.6147V191.752C85.6147 191.942 85.6422 192.084 85.6971 192.178C85.7539 192.271 85.8259 192.334 85.913 192.366C86.002 192.396 86.0958 192.411 86.1942 192.411C86.2681 192.411 86.3287 192.408 86.3761 192.4C86.4234 192.391 86.4613 192.383 86.4897 192.377L86.6261 192.98C86.5806 192.997 86.5172 193.014 86.4357 193.031C86.3543 193.05 86.2511 193.059 86.1261 193.059C85.9367 193.059 85.7511 193.018 85.5692 192.937C85.3893 192.855 85.2397 192.731 85.1204 192.565C85.003 192.398 84.9442 192.188 84.9442 191.934V187.593ZM89.2809 193.093C88.887 193.093 88.5413 192.999 88.244 192.812C87.9485 192.624 87.7174 192.362 87.5508 192.025C87.386 191.688 87.3036 191.294 87.3036 190.843C87.3036 190.389 87.386 189.992 87.5508 189.653C87.7174 189.314 87.9485 189.051 88.244 188.863C88.5413 188.676 88.887 188.582 89.2809 188.582C89.6748 188.582 90.0195 188.676 90.315 188.863C90.6123 189.051 90.8434 189.314 91.0082 189.653C91.1748 189.992 91.2582 190.389 91.2582 190.843C91.2582 191.294 91.1748 191.688 91.0082 192.025C90.8434 192.362 90.6123 192.624 90.315 192.812C90.0195 192.999 89.6748 193.093 89.2809 193.093ZM89.2809 192.491C89.5801 192.491 89.8263 192.414 90.0195 192.261C90.2127 192.107 90.3557 191.906 90.4485 191.656C90.5413 191.406 90.5877 191.135 90.5877 190.843C90.5877 190.552 90.5413 190.28 90.4485 190.028C90.3557 189.776 90.2127 189.572 90.0195 189.417C89.8263 189.262 89.5801 189.184 89.2809 189.184C88.9817 189.184 88.7354 189.262 88.5423 189.417C88.3491 189.572 88.2061 189.776 88.1133 190.028C88.0205 190.28 87.9741 190.552 87.9741 190.843C87.9741 191.135 88.0205 191.406 88.1133 191.656C88.2061 191.906 88.3491 192.107 88.5423 192.261C88.7354 192.414 88.9817 192.491 89.2809 192.491ZM92.2816 193.002V188.639H92.9293V189.298H92.9748C93.0543 189.082 93.1983 188.907 93.4066 188.772C93.6149 188.638 93.8498 188.57 94.1112 188.57C94.1604 188.57 94.2219 188.571 94.2958 188.573C94.3697 188.575 94.4255 188.578 94.4634 188.582V189.264C94.4407 189.258 94.3886 189.249 94.3072 189.238C94.2276 189.225 94.1433 189.218 94.0543 189.218C93.8422 189.218 93.6528 189.263 93.4862 189.352C93.3214 189.439 93.1907 189.56 93.0941 189.715C92.9994 189.869 92.9521 190.044 92.9521 190.241V193.002H92.2816ZM96.9549 193.093C96.5344 193.093 96.1718 193 95.8668 192.815C95.5638 192.627 95.3299 192.366 95.1651 192.031C95.0022 191.694 94.9208 191.302 94.9208 190.855C94.9208 190.408 95.0022 190.014 95.1651 189.673C95.3299 189.33 95.5591 189.063 95.8526 188.872C96.1481 188.678 96.4928 188.582 96.8867 188.582C97.114 188.582 97.3384 188.62 97.56 188.695C97.7816 188.771 97.9833 188.894 98.1651 189.065C98.3469 189.233 98.4918 189.457 98.5998 189.735C98.7077 190.014 98.7617 190.356 98.7617 190.764V191.048H95.3981V190.468H98.0799C98.0799 190.222 98.0307 190.002 97.9322 189.809C97.8356 189.616 97.6973 189.463 97.5174 189.352C97.3394 189.24 97.1291 189.184 96.8867 189.184C96.6197 189.184 96.3886 189.25 96.1935 189.383C96.0004 189.514 95.8517 189.684 95.7475 189.894C95.6433 190.105 95.5913 190.33 95.5913 190.57V190.957C95.5913 191.286 95.6481 191.566 95.7617 191.795C95.8772 192.022 96.0373 192.195 96.2418 192.315C96.4464 192.432 96.6841 192.491 96.9549 192.491C97.131 192.491 97.2901 192.466 97.4322 192.417C97.5761 192.366 97.7002 192.29 97.8043 192.19C97.9085 192.087 97.989 191.961 98.0458 191.809L98.6935 191.991C98.6254 192.211 98.5108 192.404 98.3498 192.57C98.1888 192.735 97.9899 192.864 97.7532 192.957C97.5165 193.048 97.2504 193.093 96.9549 193.093ZM102.032 193.002V188.639H102.702V193.002H102.032ZM102.373 187.911C102.242 187.911 102.129 187.867 102.034 187.778C101.942 187.689 101.895 187.582 101.895 187.457C101.895 187.332 101.942 187.225 102.034 187.136C102.129 187.047 102.242 187.002 102.373 187.002C102.503 187.002 102.615 187.047 102.708 187.136C102.802 187.225 102.85 187.332 102.85 187.457C102.85 187.582 102.802 187.689 102.708 187.778C102.615 187.867 102.503 187.911 102.373 187.911ZM104.6 190.377V193.002H103.93V188.639H104.578V189.32H104.635C104.737 189.099 104.892 188.921 105.1 188.786C105.309 188.65 105.578 188.582 105.907 188.582C106.203 188.582 106.461 188.642 106.683 188.764C106.904 188.883 107.077 189.065 107.2 189.309C107.323 189.552 107.385 189.858 107.385 190.23V193.002H106.714V190.275C106.714 189.932 106.625 189.665 106.447 189.474C106.269 189.281 106.025 189.184 105.714 189.184C105.5 189.184 105.309 189.23 105.14 189.323C104.974 189.416 104.842 189.552 104.745 189.73C104.649 189.908 104.6 190.123 104.6 190.377ZM112.632 193.093C112.223 193.093 111.871 192.997 111.576 192.803C111.28 192.61 111.053 192.344 110.894 192.005C110.735 191.666 110.655 191.279 110.655 190.843C110.655 190.4 110.737 190.009 110.9 189.67C111.064 189.329 111.293 189.063 111.587 188.872C111.882 188.678 112.227 188.582 112.621 188.582C112.928 188.582 113.204 188.639 113.451 188.752C113.697 188.866 113.899 189.025 114.056 189.23C114.213 189.434 114.31 189.673 114.348 189.945H113.678C113.627 189.747 113.513 189.57 113.337 189.417C113.163 189.262 112.928 189.184 112.632 189.184C112.371 189.184 112.142 189.252 111.945 189.389C111.75 189.523 111.597 189.713 111.488 189.96C111.38 190.204 111.326 190.491 111.326 190.82C111.326 191.158 111.379 191.451 111.485 191.701C111.593 191.951 111.744 192.145 111.939 192.284C112.136 192.422 112.367 192.491 112.632 192.491C112.807 192.491 112.965 192.461 113.107 192.4C113.249 192.339 113.369 192.252 113.468 192.139C113.566 192.025 113.636 191.889 113.678 191.73H114.348C114.31 191.987 114.217 192.219 114.067 192.426C113.919 192.63 113.723 192.793 113.479 192.914C113.237 193.034 112.954 193.093 112.632 193.093ZM117.158 193.093C116.738 193.093 116.375 193 116.07 192.815C115.767 192.627 115.533 192.366 115.368 192.031C115.205 191.694 115.124 191.302 115.124 190.855C115.124 190.408 115.205 190.014 115.368 189.673C115.533 189.33 115.762 189.063 116.056 188.872C116.351 188.678 116.696 188.582 117.09 188.582C117.317 188.582 117.542 188.62 117.763 188.695C117.985 188.771 118.186 188.894 118.368 189.065C118.55 189.233 118.695 189.457 118.803 189.735C118.911 190.014 118.965 190.356 118.965 190.764V191.048H115.601V190.468H118.283C118.283 190.222 118.234 190.002 118.135 189.809C118.039 189.616 117.9 189.463 117.721 189.352C117.542 189.24 117.332 189.184 117.09 189.184C116.823 189.184 116.592 189.25 116.397 189.383C116.203 189.514 116.055 189.684 115.951 189.894C115.846 190.105 115.794 190.33 115.794 190.57V190.957C115.794 191.286 115.851 191.566 115.965 191.795C116.08 192.022 116.24 192.195 116.445 192.315C116.65 192.432 116.887 192.491 117.158 192.491C117.334 192.491 117.493 192.466 117.635 192.417C117.779 192.366 117.903 192.29 118.007 192.19C118.112 192.087 118.192 191.961 118.249 191.809L118.897 191.991C118.828 192.211 118.714 192.404 118.553 192.57C118.392 192.735 118.193 192.864 117.956 192.957C117.72 193.048 117.453 193.093 117.158 193.093ZM120.655 190.377V193.002H119.985V188.639H120.632V189.32H120.689C120.792 189.099 120.947 188.921 121.155 188.786C121.364 188.65 121.632 188.582 121.962 188.582C122.257 188.582 122.516 188.642 122.738 188.764C122.959 188.883 123.132 189.065 123.255 189.309C123.378 189.552 123.439 189.858 123.439 190.23V193.002H122.769V190.275C122.769 189.932 122.68 189.665 122.502 189.474C122.324 189.281 122.079 189.184 121.769 189.184C121.555 189.184 121.364 189.23 121.195 189.323C121.028 189.416 120.897 189.552 120.8 189.73C120.703 189.908 120.655 190.123 120.655 190.377ZM126.562 188.639V189.207H124.301V188.639H126.562ZM124.96 187.593H125.63V191.752C125.63 191.942 125.658 192.084 125.713 192.178C125.77 192.271 125.842 192.334 125.929 192.366C126.018 192.396 126.111 192.411 126.21 192.411C126.284 192.411 126.344 192.408 126.392 192.4C126.439 192.391 126.477 192.383 126.505 192.377L126.642 192.98C126.596 192.997 126.533 193.014 126.451 193.031C126.37 193.05 126.267 193.059 126.142 193.059C125.952 193.059 125.767 193.018 125.585 192.937C125.405 192.855 125.255 192.731 125.136 192.565C125.019 192.398 124.96 192.188 124.96 191.934V187.593ZM127.571 193.002V188.639H128.218V189.298H128.264C128.343 189.082 128.487 188.907 128.696 188.772C128.904 188.638 129.139 188.57 129.4 188.57C129.449 188.57 129.511 188.571 129.585 188.573C129.659 188.575 129.715 188.578 129.752 188.582V189.264C129.73 189.258 129.678 189.249 129.596 189.238C129.517 189.225 129.432 189.218 129.343 189.218C129.131 189.218 128.942 189.263 128.775 189.352C128.61 189.439 128.48 189.56 128.383 189.715C128.288 189.869 128.241 190.044 128.241 190.241V193.002H127.571ZM131.831 193.105C131.555 193.105 131.304 193.052 131.078 192.948C130.853 192.842 130.674 192.69 130.542 192.491C130.409 192.29 130.343 192.048 130.343 191.764C130.343 191.514 130.392 191.311 130.49 191.156C130.589 190.998 130.721 190.875 130.885 190.786C131.05 190.697 131.232 190.631 131.431 190.587C131.632 190.542 131.833 190.506 132.036 190.48C132.301 190.445 132.516 190.42 132.681 190.403C132.847 190.384 132.969 190.353 133.044 190.309C133.122 190.266 133.161 190.19 133.161 190.082V190.059C133.161 189.779 133.084 189.561 132.931 189.406C132.779 189.25 132.549 189.173 132.24 189.173C131.92 189.173 131.669 189.243 131.488 189.383C131.306 189.523 131.178 189.673 131.104 189.832L130.468 189.605C130.581 189.339 130.733 189.133 130.922 188.985C131.114 188.836 131.322 188.731 131.547 188.673C131.775 188.612 131.998 188.582 132.218 188.582C132.358 188.582 132.519 188.599 132.701 188.633C132.884 188.665 133.061 188.732 133.232 188.835C133.404 188.937 133.547 189.091 133.661 189.298C133.775 189.504 133.831 189.781 133.831 190.127V193.002H133.161V192.411H133.127C133.081 192.506 133.006 192.607 132.9 192.715C132.793 192.823 132.652 192.915 132.476 192.991C132.3 193.067 132.085 193.105 131.831 193.105ZM131.934 192.502C132.199 192.502 132.422 192.45 132.604 192.346C132.788 192.242 132.926 192.107 133.019 191.943C133.114 191.778 133.161 191.605 133.161 191.423V190.809C133.132 190.843 133.07 190.874 132.973 190.903C132.879 190.929 132.769 190.953 132.644 190.974C132.521 190.993 132.4 191.01 132.283 191.025C132.167 191.038 132.074 191.05 132.002 191.059C131.828 191.082 131.665 191.119 131.513 191.17C131.364 191.219 131.242 191.294 131.15 191.394C131.059 191.493 131.013 191.627 131.013 191.798C131.013 192.031 131.099 192.207 131.272 192.326C131.446 192.444 131.667 192.502 131.934 192.502ZM135.725 187.184V193.002H135.055V187.184H135.725ZM136.953 193.002V188.639H137.624V193.002H136.953ZM137.294 187.911C137.164 187.911 137.051 187.867 136.956 187.778C136.864 187.689 136.817 187.582 136.817 187.457C136.817 187.332 136.864 187.225 136.956 187.136C137.051 187.047 137.164 187.002 137.294 187.002C137.425 187.002 137.537 187.047 137.63 187.136C137.724 187.225 137.772 187.332 137.772 187.457C137.772 187.582 137.724 187.689 137.63 187.778C137.537 187.867 137.425 187.911 137.294 187.911ZM138.727 193.002V192.491L141.204 189.309V189.264H138.806V188.639H142.068V189.173L139.659 192.332V192.377H142.147V193.002H138.727ZM144.885 193.093C144.464 193.093 144.101 193 143.797 192.815C143.493 192.627 143.26 192.366 143.095 192.031C142.932 191.694 142.85 191.302 142.85 190.855C142.85 190.408 142.932 190.014 143.095 189.673C143.26 189.33 143.489 189.063 143.782 188.872C144.078 188.678 144.422 188.582 144.816 188.582C145.044 188.582 145.268 188.62 145.49 188.695C145.711 188.771 145.913 188.894 146.095 189.065C146.277 189.233 146.422 189.457 146.529 189.735C146.637 190.014 146.691 190.356 146.691 190.764V191.048H143.328V190.468H146.01C146.01 190.222 145.96 190.002 145.862 189.809C145.765 189.616 145.627 189.463 145.447 189.352C145.269 189.24 145.059 189.184 144.816 189.184C144.549 189.184 144.318 189.25 144.123 189.383C143.93 189.514 143.781 189.684 143.677 189.894C143.573 190.105 143.521 190.33 143.521 190.57V190.957C143.521 191.286 143.578 191.566 143.691 191.795C143.807 192.022 143.967 192.195 144.172 192.315C144.376 192.432 144.614 192.491 144.885 192.491C145.061 192.491 145.22 192.466 145.362 192.417C145.506 192.366 145.63 192.29 145.734 192.19C145.838 192.087 145.919 191.961 145.975 191.809L146.623 191.991C146.555 192.211 146.44 192.404 146.279 192.57C146.118 192.735 145.92 192.864 145.683 192.957C145.446 193.048 145.18 193.093 144.885 193.093ZM149.359 193.093C148.995 193.093 148.674 193.001 148.396 192.818C148.118 192.632 147.9 192.371 147.743 192.034C147.585 191.694 147.507 191.294 147.507 190.832C147.507 190.373 147.585 189.976 147.743 189.639C147.9 189.302 148.118 189.041 148.399 188.857C148.679 188.674 149.003 188.582 149.37 188.582C149.654 188.582 149.879 188.629 150.044 188.724C150.21 188.817 150.337 188.923 150.424 189.042C150.513 189.159 150.583 189.256 150.632 189.332H150.689V187.184H151.359V193.002H150.711V192.332H150.632C150.583 192.411 150.512 192.512 150.422 192.633C150.331 192.752 150.201 192.859 150.032 192.954C149.864 193.047 149.639 193.093 149.359 193.093ZM149.45 192.491C149.719 192.491 149.946 192.421 150.132 192.281C150.317 192.139 150.458 191.943 150.555 191.693C150.652 191.441 150.7 191.15 150.7 190.82C150.7 190.495 150.653 190.21 150.558 189.965C150.463 189.719 150.323 189.528 150.137 189.391C149.952 189.253 149.723 189.184 149.45 189.184C149.166 189.184 148.929 189.257 148.74 189.403C148.552 189.547 148.411 189.743 148.316 189.991C148.224 190.237 148.177 190.514 148.177 190.82C148.177 191.131 148.225 191.413 148.319 191.667C148.416 191.919 148.558 192.12 148.745 192.269C148.935 192.417 149.17 192.491 149.45 192.491ZM100.16 203.093C99.7962 203.093 99.4751 203.001 99.1967 202.818C98.9183 202.632 98.7005 202.371 98.5433 202.034C98.3861 201.694 98.3075 201.294 98.3075 200.832C98.3075 200.373 98.3861 199.976 98.5433 199.639C98.7005 199.302 98.9193 199.041 99.1996 198.857C99.4799 198.674 99.8037 198.582 100.171 198.582C100.455 198.582 100.68 198.629 100.844 198.724C101.011 198.817 101.138 198.923 101.225 199.042C101.314 199.159 101.383 199.256 101.433 199.332H101.489V197.184H102.16V203.002H101.512V202.332H101.433C101.383 202.411 101.313 202.512 101.222 202.633C101.131 202.752 101.002 202.859 100.833 202.954C100.665 203.047 100.44 203.093 100.16 203.093ZM100.251 202.491C100.52 202.491 100.747 202.421 100.933 202.281C101.118 202.139 101.259 201.943 101.356 201.693C101.452 201.441 101.501 201.15 101.501 200.82C101.501 200.495 101.453 200.21 101.359 199.965C101.264 199.719 101.124 199.528 100.938 199.391C100.753 199.253 100.523 199.184 100.251 199.184C99.9666 199.184 99.7299 199.257 99.5405 199.403C99.353 199.547 99.2119 199.743 99.1172 199.991C99.0244 200.237 98.978 200.514 98.978 200.82C98.978 201.131 99.0253 201.413 99.12 201.667C99.2166 201.919 99.3587 202.12 99.5462 202.269C99.7356 202.417 99.9704 202.491 100.251 202.491ZM104.765 203.105C104.488 203.105 104.237 203.052 104.012 202.948C103.787 202.842 103.608 202.69 103.475 202.491C103.343 202.29 103.276 202.048 103.276 201.764C103.276 201.514 103.326 201.311 103.424 201.156C103.522 200.998 103.654 200.875 103.819 200.786C103.984 200.697 104.165 200.631 104.364 200.587C104.565 200.542 104.767 200.506 104.969 200.48C105.235 200.445 105.45 200.42 105.614 200.403C105.781 200.384 105.902 200.353 105.978 200.309C106.056 200.266 106.094 200.19 106.094 200.082V200.059C106.094 199.779 106.018 199.561 105.864 199.406C105.713 199.25 105.483 199.173 105.174 199.173C104.854 199.173 104.603 199.243 104.421 199.383C104.239 199.523 104.112 199.673 104.038 199.832L103.401 199.605C103.515 199.339 103.666 199.133 103.856 198.985C104.047 198.836 104.255 198.731 104.481 198.673C104.708 198.612 104.932 198.582 105.151 198.582C105.291 198.582 105.452 198.599 105.634 198.633C105.818 198.665 105.995 198.732 106.165 198.835C106.338 198.937 106.481 199.091 106.594 199.298C106.708 199.504 106.765 199.781 106.765 200.127V203.002H106.094V202.411H106.06C106.015 202.506 105.939 202.607 105.833 202.715C105.727 202.823 105.586 202.915 105.41 202.991C105.234 203.067 105.019 203.105 104.765 203.105ZM104.867 202.502C105.132 202.502 105.356 202.45 105.538 202.346C105.721 202.242 105.86 202.107 105.952 201.943C106.047 201.778 106.094 201.605 106.094 201.423V200.809C106.066 200.843 106.004 200.874 105.907 200.903C105.812 200.929 105.702 200.953 105.577 200.974C105.454 200.993 105.334 201.01 105.217 201.025C105.101 201.038 105.007 201.05 104.935 201.059C104.761 201.082 104.598 201.119 104.447 201.17C104.297 201.219 104.176 201.294 104.083 201.394C103.992 201.493 103.947 201.627 103.947 201.798C103.947 202.031 104.033 202.207 104.205 202.326C104.379 202.444 104.6 202.502 104.867 202.502ZM109.886 198.639V199.207H107.625V198.639H109.886ZM108.284 197.593H108.955V201.752C108.955 201.942 108.982 202.084 109.037 202.178C109.094 202.271 109.166 202.334 109.253 202.366C109.342 202.396 109.436 202.411 109.534 202.411C109.608 202.411 109.669 202.408 109.716 202.4C109.763 202.391 109.801 202.383 109.83 202.377L109.966 202.98C109.92 202.997 109.857 203.014 109.776 203.031C109.694 203.05 109.591 203.059 109.466 203.059C109.277 203.059 109.091 203.018 108.909 202.937C108.729 202.855 108.58 202.731 108.46 202.565C108.343 202.398 108.284 202.188 108.284 201.934V197.593ZM112.179 203.105C111.902 203.105 111.652 203.052 111.426 202.948C111.201 202.842 111.022 202.69 110.889 202.491C110.757 202.29 110.69 202.048 110.69 201.764C110.69 201.514 110.74 201.311 110.838 201.156C110.937 200.998 111.068 200.875 111.233 200.786C111.398 200.697 111.58 200.631 111.778 200.587C111.979 200.542 112.181 200.506 112.384 200.48C112.649 200.445 112.864 200.42 113.028 200.403C113.195 200.384 113.316 200.353 113.392 200.309C113.47 200.266 113.509 200.19 113.509 200.082V200.059C113.509 199.779 113.432 199.561 113.278 199.406C113.127 199.25 112.897 199.173 112.588 199.173C112.268 199.173 112.017 199.243 111.835 199.383C111.653 199.523 111.526 199.673 111.452 199.832L110.815 199.605C110.929 199.339 111.08 199.133 111.27 198.985C111.461 198.836 111.67 198.731 111.895 198.673C112.122 198.612 112.346 198.582 112.565 198.582C112.705 198.582 112.866 198.599 113.048 198.633C113.232 198.665 113.409 198.732 113.58 198.835C113.752 198.937 113.895 199.091 114.009 199.298C114.122 199.504 114.179 199.781 114.179 200.127V203.002H113.509V202.411H113.474C113.429 202.506 113.353 202.607 113.247 202.715C113.141 202.823 113 202.915 112.824 202.991C112.648 203.067 112.433 203.105 112.179 203.105ZM112.281 202.502C112.546 202.502 112.77 202.45 112.952 202.346C113.135 202.242 113.274 202.107 113.366 201.943C113.461 201.778 113.509 201.605 113.509 201.423V200.809C113.48 200.843 113.418 200.874 113.321 200.903C113.226 200.929 113.116 200.953 112.991 200.974C112.868 200.993 112.748 201.01 112.631 201.025C112.515 201.038 112.421 201.05 112.349 201.059C112.175 201.082 112.012 201.119 111.861 201.17C111.711 201.219 111.59 201.294 111.497 201.394C111.406 201.493 111.361 201.627 111.361 201.798C111.361 202.031 111.447 202.207 111.619 202.326C111.794 202.444 112.014 202.502 112.281 202.502ZM115.494 203.002V197.184H116.164V199.332H116.221C116.27 199.256 116.338 199.159 116.425 199.042C116.514 198.923 116.641 198.817 116.806 198.724C116.973 198.629 117.198 198.582 117.482 198.582C117.85 198.582 118.174 198.674 118.454 198.857C118.734 199.041 118.953 199.302 119.11 199.639C119.267 199.976 119.346 200.373 119.346 200.832C119.346 201.294 119.267 201.694 119.11 202.034C118.953 202.371 118.735 202.632 118.457 202.818C118.178 203.001 117.857 203.093 117.494 203.093C117.213 203.093 116.989 203.047 116.82 202.954C116.652 202.859 116.522 202.752 116.431 202.633C116.34 202.512 116.27 202.411 116.221 202.332H116.141V203.002H115.494ZM116.153 200.82C116.153 201.15 116.201 201.441 116.298 201.693C116.394 201.943 116.535 202.139 116.721 202.281C116.906 202.421 117.134 202.491 117.403 202.491C117.683 202.491 117.917 202.417 118.104 202.269C118.294 202.12 118.436 201.919 118.531 201.667C118.627 201.413 118.675 201.131 118.675 200.82C118.675 200.514 118.628 200.237 118.533 199.991C118.441 199.743 118.299 199.547 118.11 199.403C117.923 199.257 117.687 199.184 117.403 199.184C117.13 199.184 116.901 199.253 116.715 199.391C116.53 199.528 116.389 199.719 116.295 199.965C116.2 200.21 116.153 200.495 116.153 200.82ZM121.656 203.105C121.379 203.105 121.128 203.052 120.903 202.948C120.677 202.842 120.498 202.69 120.366 202.491C120.233 202.29 120.167 202.048 120.167 201.764C120.167 201.514 120.216 201.311 120.315 201.156C120.413 200.998 120.545 200.875 120.71 200.786C120.874 200.697 121.056 200.631 121.255 200.587C121.456 200.542 121.657 200.506 121.86 200.48C122.125 200.445 122.34 200.42 122.505 200.403C122.672 200.384 122.793 200.353 122.869 200.309C122.946 200.266 122.985 200.19 122.985 200.082V200.059C122.985 199.779 122.908 199.561 122.755 199.406C122.603 199.25 122.373 199.173 122.065 199.173C121.745 199.173 121.494 199.243 121.312 199.383C121.13 199.523 121.002 199.673 120.928 199.832L120.292 199.605C120.406 199.339 120.557 199.133 120.746 198.985C120.938 198.836 121.146 198.731 121.371 198.673C121.599 198.612 121.822 198.582 122.042 198.582C122.182 198.582 122.343 198.599 122.525 198.633C122.709 198.665 122.886 198.732 123.056 198.835C123.228 198.937 123.371 199.091 123.485 199.298C123.599 199.504 123.656 199.781 123.656 200.127V203.002H122.985V202.411H122.951C122.906 202.506 122.83 202.607 122.724 202.715C122.618 202.823 122.477 202.915 122.3 202.991C122.124 203.067 121.909 203.105 121.656 203.105ZM121.758 202.502C122.023 202.502 122.246 202.45 122.428 202.346C122.612 202.242 122.75 202.107 122.843 201.943C122.938 201.778 122.985 201.605 122.985 201.423V200.809C122.957 200.843 122.894 200.874 122.798 200.903C122.703 200.929 122.593 200.953 122.468 200.974C122.345 200.993 122.225 201.01 122.107 201.025C121.992 201.038 121.898 201.05 121.826 201.059C121.652 201.082 121.489 201.119 121.337 201.17C121.188 201.219 121.067 201.294 120.974 201.394C120.883 201.493 120.837 201.627 120.837 201.798C120.837 202.031 120.924 202.207 121.096 202.326C121.27 202.444 121.491 202.502 121.758 202.502ZM127.97 199.616L127.368 199.786C127.33 199.686 127.274 199.588 127.2 199.494C127.128 199.397 127.03 199.318 126.905 199.255C126.78 199.193 126.62 199.161 126.425 199.161C126.158 199.161 125.935 199.223 125.757 199.346C125.581 199.467 125.493 199.622 125.493 199.809C125.493 199.976 125.554 200.107 125.675 200.204C125.796 200.301 125.985 200.381 126.243 200.445L126.891 200.605C127.281 200.699 127.571 200.844 127.763 201.039C127.954 201.232 128.05 201.481 128.05 201.786C128.05 202.036 127.978 202.26 127.834 202.457C127.692 202.654 127.493 202.809 127.237 202.923C126.982 203.036 126.684 203.093 126.345 203.093C125.9 203.093 125.532 202.997 125.24 202.803C124.948 202.61 124.764 202.328 124.686 201.957L125.322 201.798C125.383 202.033 125.498 202.209 125.666 202.326C125.837 202.444 126.059 202.502 126.334 202.502C126.646 202.502 126.894 202.436 127.078 202.303C127.264 202.169 127.357 202.008 127.357 201.82C127.357 201.669 127.304 201.542 127.197 201.44C127.091 201.336 126.929 201.258 126.709 201.207L125.982 201.036C125.582 200.942 125.288 200.795 125.101 200.596C124.915 200.395 124.822 200.144 124.822 199.843C124.822 199.597 124.892 199.379 125.03 199.19C125.17 199 125.36 198.852 125.601 198.744C125.843 198.636 126.118 198.582 126.425 198.582C126.857 198.582 127.196 198.677 127.442 198.866C127.69 199.055 127.866 199.305 127.97 199.616ZM130.888 203.093C130.468 203.093 130.105 203 129.8 202.815C129.497 202.627 129.263 202.366 129.099 202.031C128.936 201.694 128.854 201.302 128.854 200.855C128.854 200.408 128.936 200.014 129.099 199.673C129.263 199.33 129.493 199.063 129.786 198.872C130.082 198.678 130.426 198.582 130.82 198.582C131.048 198.582 131.272 198.62 131.494 198.695C131.715 198.771 131.917 198.894 132.099 199.065C132.281 199.233 132.425 199.457 132.533 199.735C132.641 200.014 132.695 200.356 132.695 200.764V201.048H129.332V200.468H132.013C132.013 200.222 131.964 200.002 131.866 199.809C131.769 199.616 131.631 199.463 131.451 199.352C131.273 199.24 131.063 199.184 130.82 199.184C130.553 199.184 130.322 199.25 130.127 199.383C129.934 199.514 129.785 199.684 129.681 199.894C129.577 200.105 129.525 200.33 129.525 200.57V200.957C129.525 201.286 129.582 201.566 129.695 201.795C129.811 202.022 129.971 202.195 130.175 202.315C130.38 202.432 130.618 202.491 130.888 202.491C131.065 202.491 131.224 202.466 131.366 202.417C131.51 202.366 131.634 202.29 131.738 202.19C131.842 202.087 131.923 201.961 131.979 201.809L132.627 201.991C132.559 202.211 132.444 202.404 132.283 202.57C132.122 202.735 131.924 202.864 131.687 202.957C131.45 203.048 131.184 203.093 130.888 203.093Z" fill="#059669"/>
<rect x="0.25" y="0.25" width="99.5" height="29.5" rx="4.75" stroke="#D97706" stroke-width="0.5"/>
<path d="M10.6818 14C10.6193 13.8087 10.5369 13.6373 10.4347 13.4858C10.3343 13.3324 10.214 13.2017 10.0739 13.0938C9.93561 12.9858 9.77841 12.9034 9.60227 12.8466C9.42614 12.7898 9.23295 12.7614 9.02273 12.7614C8.67803 12.7614 8.36458 12.8504 8.08239 13.0284C7.80019 13.2064 7.57576 13.4688 7.40909 13.8153C7.24242 14.1619 7.15909 14.5871 7.15909 15.0909C7.15909 15.5947 7.24337 16.0199 7.41193 16.3665C7.58049 16.7131 7.80871 16.9754 8.09659 17.1534C8.38447 17.3314 8.70833 17.4205 9.06818 17.4205C9.40152 17.4205 9.69508 17.3494 9.94886 17.2074C10.2045 17.0634 10.4034 16.8608 10.5455 16.5994C10.6894 16.3362 10.7614 16.0265 10.7614 15.6705L10.9773 15.7159H9.22727V15.0909H11.4432V15.7159C11.4432 16.1951 11.3409 16.6117 11.1364 16.9659C10.9337 17.3201 10.6534 17.5947 10.2955 17.7898C9.93939 17.983 9.5303 18.0795 9.06818 18.0795C8.55303 18.0795 8.10038 17.9583 7.71023 17.7159C7.32197 17.4735 7.01894 17.1288 6.80114 16.6818C6.58523 16.2348 6.47727 15.7045 6.47727 15.0909C6.47727 14.6307 6.53883 14.2169 6.66193 13.8494C6.78693 13.4801 6.96307 13.1657 7.19034 12.9062C7.41761 12.6468 7.68655 12.4479 7.99716 12.3097C8.30777 12.1714 8.64962 12.1023 9.02273 12.1023C9.32955 12.1023 9.61553 12.1487 9.88068 12.2415C10.1477 12.3324 10.3854 12.4621 10.5938 12.6307C10.804 12.7973 10.9792 12.9972 11.1193 13.2301C11.2595 13.4612 11.3561 13.7178 11.4091 14H10.6818ZM14.3885 18.0909C13.968 18.0909 13.6054 17.9981 13.3004 17.8125C12.9974 17.625 12.7635 17.3636 12.5987 17.0284C12.4358 16.6913 12.3544 16.2992 12.3544 15.8523C12.3544 15.4053 12.4358 15.0114 12.5987 14.6705C12.7635 14.3277 12.9927 14.0606 13.2862 13.8693C13.5817 13.6761 13.9264 13.5795 14.3203 13.5795C14.5476 13.5795 14.772 13.6174 14.9936 13.6932C15.2152 13.7689 15.4169 13.892 15.5987 14.0625C15.7805 14.2311 15.9254 14.4545 16.0334 14.733C16.1413 15.0114 16.1953 15.3542 16.1953 15.7614V16.0455H12.8317V15.4659H15.5135C15.5135 15.2197 15.4643 15 15.3658 14.8068C15.2692 14.6136 15.1309 14.4612 14.951 14.3494C14.773 14.2377 14.5627 14.1818 14.3203 14.1818C14.0533 14.1818 13.8222 14.2481 13.6271 14.3807C13.4339 14.5114 13.2853 14.6818 13.1811 14.892C13.0769 15.1023 13.0249 15.3277 13.0249 15.5682V15.9545C13.0249 16.2841 13.0817 16.5634 13.1953 16.7926C13.3108 17.0199 13.4709 17.1932 13.6754 17.3125C13.88 17.4299 14.1177 17.4886 14.3885 17.4886C14.5646 17.4886 14.7237 17.464 14.8658 17.4148C15.0097 17.3636 15.1338 17.2879 15.2379 17.1875C15.3421 17.0852 15.4226 16.9583 15.4794 16.8068L16.1271 16.9886C16.0589 17.2083 15.9444 17.4015 15.7834 17.5682C15.6224 17.733 15.4235 17.8617 15.1868 17.9545C14.95 18.0455 14.6839 18.0909 14.3885 18.0909ZM19.1129 13.6364V14.2045H16.8516V13.6364H19.1129ZM17.5107 12.5909H18.1811V16.75C18.1811 16.9394 18.2086 17.0814 18.2635 17.1761C18.3203 17.2689 18.3923 17.3314 18.4794 17.3636C18.5684 17.3939 18.6622 17.4091 18.7607 17.4091C18.8345 17.4091 18.8951 17.4053 18.9425 17.3977C18.9898 17.3883 19.0277 17.3807 19.0561 17.375L19.1925 17.9773C19.147 17.9943 19.0836 18.0114 19.0021 18.0284C18.9207 18.0473 18.8175 18.0568 18.6925 18.0568C18.5031 18.0568 18.3175 18.0161 18.1357 17.9347C17.9557 17.8532 17.8061 17.7292 17.6868 17.5625C17.5694 17.3958 17.5107 17.1856 17.5107 16.9318V12.5909ZM22.3714 18V13.6364H23.0419V18H22.3714ZM22.7124 12.9091C22.5817 12.9091 22.469 12.8646 22.3743 12.7756C22.2815 12.6866 22.2351 12.5795 22.2351 12.4545C22.2351 12.3295 22.2815 12.2225 22.3743 12.1335C22.469 12.0445 22.5817 12 22.7124 12C22.843 12 22.9548 12.0445 23.0476 12.1335C23.1423 12.2225 23.1896 12.3295 23.1896 12.4545C23.1896 12.5795 23.1423 12.6866 23.0476 12.7756C22.9548 12.8646 22.843 12.9091 22.7124 12.9091ZM24.9403 15.375V18H24.2699V13.6364H24.9176V14.3182H24.9744C25.0767 14.0966 25.232 13.9186 25.4403 13.7841C25.6487 13.6477 25.9176 13.5795 26.2472 13.5795C26.5426 13.5795 26.8011 13.6402 27.0227 13.7614C27.2443 13.8807 27.4167 14.0625 27.5398 14.3068C27.6629 14.5492 27.7244 14.8561 27.7244 15.2273V18H27.054V15.2727C27.054 14.9299 26.965 14.6629 26.7869 14.4716C26.6089 14.2784 26.3646 14.1818 26.054 14.1818C25.84 14.1818 25.6487 14.2282 25.4801 14.321C25.3134 14.4138 25.1818 14.5492 25.0852 14.7273C24.9886 14.9053 24.9403 15.1212 24.9403 15.375ZM32.3615 13.6364L30.7479 18H30.0661L28.4524 13.6364H29.1797L30.3842 17.1136H30.4297L31.6342 13.6364H32.3615ZM34.9197 18.0909C34.4993 18.0909 34.1366 17.9981 33.8317 17.8125C33.5286 17.625 33.2947 17.3636 33.13 17.0284C32.9671 16.6913 32.8857 16.2992 32.8857 15.8523C32.8857 15.4053 32.9671 15.0114 33.13 14.6705C33.2947 14.3277 33.5239 14.0606 33.8175 13.8693C34.1129 13.6761 34.4576 13.5795 34.8516 13.5795C35.0788 13.5795 35.3033 13.6174 35.5249 13.6932C35.7464 13.7689 35.9482 13.892 36.13 14.0625C36.3118 14.2311 36.4567 14.4545 36.5646 14.733C36.6726 15.0114 36.7266 15.3542 36.7266 15.7614V16.0455H33.3629V15.4659H36.0447C36.0447 15.2197 35.9955 15 35.897 14.8068C35.8004 14.6136 35.6622 14.4612 35.4822 14.3494C35.3042 14.2377 35.094 14.1818 34.8516 14.1818C34.5845 14.1818 34.3535 14.2481 34.1584 14.3807C33.9652 14.5114 33.8165 14.6818 33.7124 14.892C33.6082 15.1023 33.5561 15.3277 33.5561 15.5682V15.9545C33.5561 16.2841 33.6129 16.5634 33.7266 16.7926C33.8421 17.0199 34.0021 17.1932 34.2067 17.3125C34.4112 17.4299 34.6489 17.4886 34.9197 17.4886C35.0959 17.4886 35.255 17.464 35.397 17.4148C35.541 17.3636 35.665 17.2879 35.7692 17.1875C35.8733 17.0852 35.9538 16.9583 36.0107 16.8068L36.6584 16.9886C36.5902 17.2083 36.4756 17.4015 36.3146 17.5682C36.1536 17.733 35.9548 17.8617 35.718 17.9545C35.4813 18.0455 35.2152 18.0909 34.9197 18.0909ZM38.4169 15.375V18H37.7464V13.6364H38.3942V14.3182H38.451C38.5533 14.0966 38.7086 13.9186 38.9169 13.7841C39.1252 13.6477 39.3942 13.5795 39.7237 13.5795C40.0192 13.5795 40.2777 13.6402 40.4993 13.7614C40.7209 13.8807 40.8932 14.0625 41.0163 14.3068C41.1394 14.5492 41.201 14.8561 41.201 15.2273V18H40.5305V15.2727C40.5305 14.9299 40.4415 14.6629 40.2635 14.4716C40.0855 14.2784 39.8411 14.1818 39.5305 14.1818C39.3165 14.1818 39.1252 14.2282 38.9567 14.321C38.79 14.4138 38.6584 14.5492 38.5618 14.7273C38.4652 14.9053 38.4169 15.1212 38.4169 15.375ZM44.3239 13.6364V14.2045L42.0625 14.2045V13.6364H44.3239ZM42.7216 12.5909H43.392V16.75C43.392 16.9394 43.4195 17.0814 43.4744 17.1761C43.5313 17.2689 43.6032 17.3314 43.6903 17.3636C43.7794 17.3939 43.8731 17.4091 43.9716 17.4091C44.0455 17.4091 44.1061 17.4053 44.1534 17.3977C44.2008 17.3883 44.2386 17.3807 44.267 17.375L44.4034 17.9773C44.358 17.9943 44.2945 18.0114 44.2131 18.0284C44.1316 18.0473 44.0284 18.0568 43.9034 18.0568C43.714 18.0568 43.5284 18.0161 43.3466 17.9347C43.1667 17.8532 43.017 17.7292 42.8977 17.5625C42.7803 17.3958 42.7216 17.1856 42.7216 16.9318V12.5909ZM47.0582 18.0909C46.6643 18.0909 46.3187 17.9972 46.0213 17.8097C45.7259 17.6222 45.4948 17.3598 45.3281 17.0227C45.1634 16.6856 45.081 16.2917 45.081 15.8409C45.081 15.3864 45.1634 14.9896 45.3281 14.6506C45.4948 14.3116 45.7259 14.0483 46.0213 13.8608C46.3187 13.6733 46.6643 13.5795 47.0582 13.5795C47.4522 13.5795 47.7969 13.6733 48.0923 13.8608C48.3897 14.0483 48.6207 14.3116 48.7855 14.6506C48.9522 14.9896 49.0355 15.3864 49.0355 15.8409C49.0355 16.2917 48.9522 16.6856 48.7855 17.0227C48.6207 17.3598 48.3897 17.6222 48.0923 17.8097C47.7969 17.9972 47.4522 18.0909 47.0582 18.0909ZM47.0582 17.4886C47.3575 17.4886 47.6037 17.4119 47.7969 17.2585C47.9901 17.1051 48.133 16.9034 48.2259 16.6534C48.3187 16.4034 48.3651 16.1326 48.3651 15.8409C48.3651 15.5492 48.3187 15.2775 48.2259 15.0256C48.133 14.7737 47.9901 14.5701 47.7969 14.4148C47.6037 14.2595 47.3575 14.1818 47.0582 14.1818C46.759 14.1818 46.5128 14.2595 46.3196 14.4148C46.1264 14.5701 45.9834 14.7737 45.8906 15.0256C45.7978 15.2775 45.7514 15.5492 45.7514 15.8409C45.7514 16.1326 45.7978 16.4034 45.8906 16.6534C45.9834 16.9034 46.1264 17.1051 46.3196 17.2585C46.5128 17.4119 46.759 17.4886 47.0582 17.4886ZM50.0589 18V13.6364H50.7067V14.2955H50.7521C50.8317 14.0795 50.9756 13.9044 51.1839 13.7699C51.3923 13.6354 51.6271 13.5682 51.8885 13.5682C51.9377 13.5682 51.9993 13.5691 52.0732 13.571C52.147 13.5729 52.2029 13.5758 52.2408 13.5795V14.2614C52.218 14.2557 52.166 14.2472 52.0845 14.2358C52.005 14.2225 51.9207 14.2159 51.8317 14.2159C51.6196 14.2159 51.4302 14.2604 51.2635 14.3494C51.0987 14.4366 50.968 14.5578 50.8714 14.7131C50.7768 14.8665 50.7294 15.0417 50.7294 15.2386V18H50.0589ZM53.6001 19.6364C53.4865 19.6364 53.3852 19.6269 53.2962 19.608C53.2071 19.5909 53.1456 19.5739 53.1115 19.5568L53.282 18.9659C53.4448 19.0076 53.5888 19.0227 53.7138 19.0114C53.8388 19 53.9496 18.9441 54.0462 18.8438C54.1446 18.7453 54.2346 18.5852 54.3161 18.3636L54.4411 18.0227L52.8274 13.6364H53.5547L54.7592 17.1136H54.8047L56.0092 13.6364H56.7365L54.8842 18.6364C54.8009 18.8617 54.6977 19.0483 54.5746 19.196C54.4515 19.3456 54.3085 19.4564 54.1456 19.5284C53.9846 19.6004 53.8028 19.6364 53.6001 19.6364ZM61.8146 13.6364V14.2045H59.4624V13.6364H61.8146ZM60.1669 18V13.0341C60.1669 12.7841 60.2256 12.5758 60.343 12.4091C60.4605 12.2424 60.6129 12.1174 60.8004 12.0341C60.9879 11.9508 61.1858 11.9091 61.3942 11.9091C61.5589 11.9091 61.6934 11.9223 61.7976 11.9489C61.9018 11.9754 61.9794 12 62.0305 12.0227L61.8374 12.6023C61.8033 12.5909 61.7559 12.5767 61.6953 12.5597C61.6366 12.5426 61.5589 12.5341 61.4624 12.5341C61.2408 12.5341 61.0807 12.59 60.9822 12.7017C60.8857 12.8134 60.8374 12.9773 60.8374 13.1932V18H60.1669ZM62.7543 18V13.6364H63.402V14.2955H63.4474C63.527 14.0795 63.6709 13.9044 63.8793 13.7699C64.0876 13.6354 64.3224 13.5682 64.5838 13.5682C64.633 13.5682 64.6946 13.5691 64.7685 13.571C64.8423 13.5729 64.8982 13.5758 64.9361 13.5795V14.2614C64.9134 14.2557 64.8613 14.2472 64.7798 14.2358C64.7003 14.2225 64.616 14.2159 64.527 14.2159C64.3149 14.2159 64.1255 14.2604 63.9588 14.3494C63.794 14.4366 63.6634 14.5578 63.5668 14.7131C63.4721 14.8665 63.4247 15.0417 63.4247 15.2386V18H62.7543ZM67.3707 18.0909C66.9768 18.0909 66.6312 17.9972 66.3338 17.8097C66.0384 17.6222 65.8073 17.3598 65.6406 17.0227C65.4759 16.6856 65.3935 16.2917 65.3935 15.8409C65.3935 15.3864 65.4759 14.9896 65.6406 14.6506C65.8073 14.3116 66.0384 14.0483 66.3338 13.8608C66.6312 13.6733 66.9768 13.5795 67.3707 13.5795C67.7647 13.5795 68.1094 13.6733 68.4048 13.8608C68.7022 14.0483 68.9332 14.3116 69.098 14.6506C69.2647 14.9896 69.348 15.3864 69.348 15.8409C69.348 16.2917 69.2647 16.6856 69.098 17.0227C68.9332 17.3598 68.7022 17.6222 68.4048 17.8097C68.1094 17.9972 67.7647 18.0909 67.3707 18.0909ZM67.3707 17.4886C67.67 17.4886 67.9162 17.4119 68.1094 17.2585C68.3026 17.1051 68.4455 16.9034 68.5384 16.6534C68.6312 16.4034 68.6776 16.1326 68.6776 15.8409C68.6776 15.5492 68.6312 15.2775 68.5384 15.0256C68.4455 14.7737 68.3026 14.5701 68.1094 14.4148C67.9162 14.2595 67.67 14.1818 67.3707 14.1818C67.0715 14.1818 66.8253 14.2595 66.6321 14.4148C66.4389 14.5701 66.2959 14.7737 66.2031 15.0256C66.1103 15.2775 66.0639 15.5492 66.0639 15.8409C66.0639 16.1326 66.1103 16.4034 66.2031 16.6534C66.2959 16.9034 66.4389 17.1051 66.6321 17.2585C66.8253 17.4119 67.0715 17.4886 67.3707 17.4886ZM70.3714 18V13.6364H71.0192V14.3182H71.076C71.1669 14.0852 71.3137 13.9044 71.5163 13.7756C71.719 13.6449 71.9624 13.5795 72.2464 13.5795C72.5343 13.5795 72.7739 13.6449 72.9652 13.7756C73.1584 13.9044 73.3089 14.0852 73.4169 14.3182H73.4624C73.5741 14.0928 73.7417 13.9138 73.9652 13.7813C74.1887 13.6468 74.4567 13.5795 74.7692 13.5795C75.1593 13.5795 75.4785 13.7017 75.7266 13.946C75.9747 14.1884 76.0987 14.5663 76.0987 15.0795V18H75.4283V15.0795C75.4283 14.7576 75.3402 14.5275 75.1641 14.3892C74.9879 14.2509 74.7805 14.1818 74.5419 14.1818C74.2351 14.1818 73.9974 14.2746 73.8288 14.4602C73.6603 14.6439 73.576 14.8769 73.576 15.1591V18H72.8942V15.0114C72.8942 14.7633 72.8137 14.5634 72.6527 14.4119C72.4917 14.2585 72.2843 14.1818 72.0305 14.1818C71.8563 14.1818 71.6934 14.2282 71.5419 14.321C71.3923 14.4138 71.2711 14.5426 71.1783 14.7074C71.0874 14.8703 71.0419 15.0587 71.0419 15.2727V18H70.3714ZM79.6655 18V12.1818H83.1768V12.8068H80.37V14.7727H82.995V15.3977H80.37V17.375H83.2223V18H79.6655ZM84.4467 18V12.1818H86.4126C86.8672 12.1818 87.2403 12.2595 87.532 12.4148C87.8236 12.5682 88.0395 12.7794 88.1797 13.0483C88.3198 13.3172 88.3899 13.6231 88.3899 13.9659C88.3899 14.3087 88.3198 14.6127 88.1797 14.8778C88.0395 15.143 87.8246 15.3513 87.5348 15.5028C87.245 15.6525 86.8748 15.7273 86.424 15.7273H84.8331V15.0909H86.4013C86.7119 15.0909 86.9619 15.0455 87.1513 14.9545C87.3426 14.8636 87.4808 14.7348 87.5661 14.5682C87.6532 14.3996 87.6967 14.1989 87.6967 13.9659C87.6967 13.733 87.6532 13.5294 87.5661 13.3551C87.4789 13.1809 87.3397 13.0464 87.1484 12.9517C86.9571 12.8551 86.7043 12.8068 86.3899 12.8068H85.1513V18H84.4467ZM87.1854 15.3864L88.6172 18H87.799L86.3899 15.3864H87.1854ZM89.5639 18V12.1818H91.5298C91.9863 12.1818 92.3594 12.2642 92.6491 12.429C92.9408 12.5919 93.1567 12.8125 93.2969 13.0909C93.437 13.3693 93.5071 13.6799 93.5071 14.0227C93.5071 14.3655 93.437 14.6771 93.2969 14.9574C93.1586 15.2377 92.9446 15.4612 92.6548 15.6278C92.3651 15.7926 91.9938 15.875 91.5412 15.875H90.1321V15.25H91.5185C91.831 15.25 92.0819 15.196 92.2713 15.0881C92.4607 14.9801 92.598 14.8343 92.6832 14.6506C92.7704 14.465 92.8139 14.2557 92.8139 14.0227C92.8139 13.7898 92.7704 13.5814 92.6832 13.3977C92.598 13.214 92.4598 13.0701 92.2685 12.9659C92.0772 12.8598 91.8234 12.8068 91.5071 12.8068H90.2685V18H89.5639Z" fill="#D97706"/>
<path d="M166 30V30C166 52.0914 148.091 70 126 70L116 70" stroke="#D9D9E0" stroke-width="0.5"/>
<path d="M66 30V30C66 52.0914 83.9086 70 106 70L116 70" stroke="#D9D9E0" stroke-width="0.5"/>
<line x1="116.25" y1="70" x2="116.25" y2="110" stroke="#D9D9E0" stroke-width="0.5"/>
<line x1="116.25" y1="140" x2="116.25" y2="180" stroke="#D9D9E0" stroke-width="0.5"/>
</svg>
