<svg width="280" height="280" viewBox="0 0 280 280" fill="none" xmlns="http://www.w3.org/2000/svg">
<circle cx="140" cy="140" r="139.5" fill="#181818" stroke="#282928"/>
<circle cx="140" cy="140" r="119.5" fill="#1D1D1D" stroke="#282928"/>
<mask id="mask0_211_473" style="mask-type:alpha" maskUnits="userSpaceOnUse" x="80" y="90" width="120" height="100">
<rect x="80" y="90" width="120" height="100" fill="#D9D9D9"/>
</mask>
<g mask="url(#mask0_211_473)">
<path d="M130 90C116.739 90 104.021 95.2678 94.6447 104.645C85.2678 114.021 80 126.739 80 140C80 153.261 85.2678 165.979 94.6447 175.355C104.021 184.732 116.739 190 130 190L130 140V90Z" fill="#3C3C3C"/>
<path d="M170 100C159.391 100 149.217 104.214 141.716 111.716C134.214 119.217 130 129.391 130 140C130 150.609 134.214 160.783 141.716 168.284C149.217 175.786 159.391 180 170 180L170 140V100Z" fill="#3C3C3C"/>
<path d="M200 110C192.044 110 184.413 113.161 178.787 118.787C173.161 124.413 170 132.044 170 140C170 147.956 173.161 155.587 178.787 161.213C184.413 166.839 192.044 170 200 170L200 140V110Z" fill="#3C3C3C"/>
</g>
</svg>
