<svg width="712" height="281" viewBox="0 0 712 281" fill="none" xmlns="http://www.w3.org/2000/svg">
<rect x="0.5" y="0.5" width="711" height="279" rx="7.5" fill="#1D1D1D" stroke="#282928"/>
<path d="M34.5914 42.4624C34.5914 37.5631 38.5631 33.5914 43.4624 33.5914H668.538C673.437 33.5914 677.409 37.5631 677.409 42.4624V279.409H34.5914V42.4624Z" fill="#181818" stroke="#282928" stroke-width="1.18279"/>
<path d="M58.1779 78.7441L63.5817 63.4167H66.7557L72.1595 78.7441H69.1261L68.0815 75.5903H62.2358L61.2113 78.7441H58.1779ZM67.278 73.0591L65.691 68.258C65.4499 67.4812 65.3294 66.8317 65.3294 66.3094H65.008C65.008 66.7915 64.8808 67.441 64.6263 68.258L63.0594 73.0591H67.278ZM78.5721 78.9651C77.4471 78.9651 76.4494 78.7174 75.5789 78.2218C74.7218 77.7263 74.0522 77.0299 73.5701 76.1326C73.0879 75.2354 72.8469 74.2042 72.8469 73.039C72.8469 71.9141 73.0879 70.9096 73.5701 70.0258C74.0522 69.1419 74.7218 68.4589 75.5789 67.9767C76.4494 67.4812 77.4471 67.2335 78.5721 67.2335C79.9247 67.2335 81.0698 67.5817 82.0072 68.2781C82.9581 68.9611 83.5741 69.8918 83.8554 71.0704H80.9024C80.7283 70.5481 80.4403 70.1463 80.0385 69.865C79.6368 69.5838 79.148 69.4432 78.5721 69.4432C77.6882 69.4432 76.9717 69.7713 76.4226 70.4275C75.8869 71.0837 75.6191 71.9542 75.6191 73.039C75.6191 74.164 75.8869 75.068 76.4226 75.751C76.9717 76.4206 77.6882 76.7554 78.5721 76.7554C79.2149 76.7554 79.7372 76.6014 80.139 76.2933C80.5408 75.9719 80.8153 75.5233 80.9626 74.9474H83.8955C83.6411 76.1929 83.0317 77.1772 82.0675 77.9004C81.1032 78.6102 79.9381 78.9651 78.5721 78.9651ZM89.3213 78.7441C87.5669 78.7441 86.6897 77.9205 86.6897 76.2733V69.6441H85.0224V67.4745H86.6897V63.4167H89.4016V67.4745H91.5712V69.6441H89.4016V75.4496C89.4016 75.7978 89.4552 76.059 89.5624 76.2331C89.6829 76.4072 89.9373 76.4942 90.3257 76.4942H91.5511V78.7441H89.3213ZM93.4758 78.7441V67.4745H96.1878V78.7441H93.4758ZM94.8419 66.229C94.3731 66.229 93.978 66.0884 93.6566 65.8072C93.3352 65.5259 93.1745 65.151 93.1745 64.6822C93.1745 64.2403 93.3352 63.872 93.6566 63.5774C93.978 63.2827 94.3731 63.1354 94.8419 63.1354C95.2972 63.1354 95.6856 63.2827 96.007 63.5774C96.3418 63.872 96.5092 64.2403 96.5092 64.6822C96.5092 65.1376 96.3485 65.5125 96.0271 65.8072C95.7057 66.0884 95.3106 66.229 94.8419 66.229ZM97.6706 67.4745H100.563L102.411 73.1194C102.532 73.5078 102.612 73.856 102.652 74.164C102.706 74.472 102.746 74.8269 102.773 75.2287H103.014C103.014 75.1483 103.027 74.9742 103.054 74.7064C103.081 74.4251 103.121 74.1573 103.175 73.9028C103.228 73.635 103.295 73.3738 103.376 73.1194L105.264 67.4745H108.157L103.978 78.7441H101.829L97.6706 67.4745ZM109.621 78.7441V67.4745H112.333V78.7441H109.621ZM110.987 66.229C110.518 66.229 110.123 66.0884 109.802 65.8072C109.481 65.5259 109.32 65.151 109.32 64.6822C109.32 64.2403 109.481 63.872 109.802 63.5774C110.123 63.2827 110.518 63.1354 110.987 63.1354C111.442 63.1354 111.831 63.2827 112.152 63.5774C112.487 63.872 112.654 64.2403 112.654 64.6822C112.654 65.1376 112.494 65.5125 112.172 65.8072C111.851 66.0884 111.456 66.229 110.987 66.229ZM118.336 78.7441C116.581 78.7441 115.704 77.9205 115.704 76.2733V69.6441H114.037V67.4745H115.704V63.4167H118.416V67.4745H120.586V69.6441H118.416V75.4496C118.416 75.7978 118.47 76.059 118.577 76.2331C118.697 76.4072 118.952 76.4942 119.34 76.4942H120.566V78.7441H118.336ZM122.671 80.5119H123.896C124.298 80.5119 124.6 80.4517 124.8 80.3311C125.015 80.224 125.196 79.9762 125.343 79.5879L125.644 78.7843L121.486 67.4745H124.419L126.608 74.3247C126.783 74.8336 126.876 75.3023 126.89 75.7309H127.151C127.164 75.3827 127.245 74.9139 127.392 74.3247L129.421 67.4745H132.334L127.954 80.07C127.606 81.0744 127.178 81.7775 126.669 82.1793C126.173 82.5944 125.463 82.802 124.539 82.802H122.671V80.5119Z" fill="white"/>
<path d="M59.1301 204.461V192.199H61.4443V204.461H59.1301ZM63.5218 195.445H65.6914V195.735C65.6914 195.906 65.6753 196.045 65.6432 196.152C65.611 196.259 65.5467 196.367 65.4503 196.474L65.6753 196.634C66.0182 196.131 66.3824 195.777 66.7681 195.574C67.1645 195.36 67.6252 195.252 68.1502 195.252C68.6859 195.252 69.1734 195.376 69.6126 195.622C70.0519 195.858 70.3251 196.217 70.4323 196.699H70.6412C70.834 196.163 71.1608 195.788 71.6215 195.574C72.0929 195.36 72.6072 195.252 73.1643 195.252C74.15 195.252 74.8892 195.542 75.382 196.12C75.8749 196.699 76.1213 197.508 76.1213 198.547V204.461H73.9518V198.82C73.9518 197.631 73.4803 197.036 72.5375 197.036C72.0875 197.036 71.7286 197.181 71.4608 197.47C71.2572 197.695 71.1126 197.984 71.0269 198.338C70.9519 198.692 70.9144 199.142 70.9144 199.688V204.461H68.7448V198.82C68.7448 198.22 68.6216 197.776 68.3752 197.486C68.1288 197.186 67.7752 197.036 67.3145 197.036C66.8645 197.036 66.5003 197.192 66.2217 197.502C66.0396 197.706 65.9057 197.979 65.8199 198.322C65.7342 198.665 65.6914 199.12 65.6914 199.688V204.461H63.5218V195.445ZM82.7797 195.268C83.5619 195.268 84.2529 195.467 84.8529 195.863C85.4528 196.259 85.9189 196.817 86.251 197.534C86.5832 198.242 86.7492 199.05 86.7492 199.961C86.7492 200.872 86.5832 201.686 86.251 202.404C85.9189 203.111 85.4528 203.663 84.8529 204.059C84.2529 204.456 83.5619 204.654 82.7797 204.654C82.2012 204.654 81.7137 204.552 81.3173 204.348C80.9209 204.134 80.5513 203.775 80.2084 203.272L79.9834 203.432C80.0691 203.55 80.1281 203.663 80.1602 203.77C80.2031 203.877 80.2245 204.011 80.2245 204.172V207.707H78.0549V195.445H80.2245V195.735C80.2245 195.895 80.2031 196.035 80.1602 196.152C80.1281 196.259 80.0691 196.372 79.9834 196.49L80.2084 196.634C80.5513 196.131 80.9209 195.777 81.3173 195.574C81.7137 195.37 82.2012 195.268 82.7797 195.268ZM82.2816 197.133C81.5959 197.133 81.0334 197.395 80.5941 197.92C80.1656 198.445 79.9513 199.125 79.9513 199.961C79.9513 200.797 80.1656 201.477 80.5941 202.002C81.0334 202.527 81.5959 202.79 82.2816 202.79C82.9672 202.79 83.519 202.527 83.9368 202.002C84.3547 201.466 84.5636 200.786 84.5636 199.961C84.5636 199.136 84.3547 198.461 83.9368 197.936C83.519 197.401 82.9672 197.133 82.2816 197.133ZM90.4226 204.461C89.737 204.461 89.2173 204.306 88.8638 203.995C88.5102 203.673 88.3334 203.17 88.3334 202.484V192.199H90.503V201.841C90.503 202.141 90.5566 202.356 90.6637 202.484C90.7816 202.602 90.9744 202.661 91.2423 202.661H91.8208V204.461H90.4226ZM95.8185 204.638C94.94 204.638 94.2275 204.407 93.6811 203.947C93.1347 203.475 92.8615 202.822 92.8615 201.986C92.8615 201.086 93.2044 200.4 93.89 199.929C94.3829 199.586 95.0846 199.329 95.9953 199.158L98.6791 198.659C98.6791 198.124 98.5345 197.701 98.2452 197.39C97.9774 197.101 97.5756 196.956 97.0399 196.956C96.6221 196.956 96.2524 197.079 95.931 197.326C95.6203 197.572 95.4275 197.904 95.3525 198.322H93.199C93.349 197.326 93.7883 196.565 94.5168 196.04C95.2453 195.515 96.0917 195.252 97.056 195.252C97.6024 195.252 98.1113 195.333 98.5827 195.493C99.0541 195.643 99.4559 195.868 99.788 196.168C100.12 196.458 100.361 196.795 100.511 197.181C100.661 197.567 100.752 197.952 100.784 198.338C100.827 198.724 100.849 199.2 100.849 199.768V204.461H98.6791V204.204C98.6791 203.925 98.7488 203.641 98.888 203.352L98.647 203.223C98.4541 203.62 98.1863 203.931 97.8434 204.156C97.3613 204.477 96.6864 204.638 95.8185 204.638ZM96.3489 202.934C96.7453 202.934 97.131 202.849 97.506 202.677C97.8488 202.516 98.122 202.281 98.3256 201.97C98.422 201.809 98.497 201.654 98.5506 201.504C98.6041 201.343 98.6631 201.124 98.7273 200.845C98.7488 200.716 98.7809 200.625 98.8238 200.572C98.8773 200.508 98.9523 200.47 99.0488 200.459L99.0005 200.202C98.1434 200.374 97.5917 200.486 97.3453 200.54L96.5739 200.684C95.9953 200.791 95.5775 200.963 95.3203 201.199C95.1275 201.391 95.0311 201.627 95.0311 201.906C95.0311 202.238 95.1489 202.495 95.3846 202.677C95.631 202.849 95.9525 202.934 96.3489 202.934ZM111.992 204.686C111.135 204.686 110.315 204.547 109.533 204.268C108.751 203.99 108.087 203.54 107.541 202.918C107.005 202.286 106.689 201.472 106.592 200.475H108.987C109.169 201.279 109.533 201.852 110.08 202.195C110.626 202.538 111.269 202.709 112.008 202.709C112.683 202.709 113.224 202.57 113.631 202.291C114.038 202.002 114.242 201.579 114.242 201.022C114.242 200.625 114.113 200.309 113.856 200.074C113.599 199.827 113.272 199.645 112.876 199.527C112.49 199.399 111.96 199.259 111.285 199.109C110.364 198.906 109.619 198.697 109.051 198.483C108.494 198.268 108.012 197.931 107.605 197.47C107.198 197.009 106.994 196.377 106.994 195.574C106.994 194.802 107.182 194.149 107.557 193.613C107.932 193.067 108.446 192.66 109.099 192.392C109.753 192.113 110.498 191.974 111.333 191.974C112.147 191.974 112.903 192.119 113.599 192.408C114.296 192.686 114.88 193.12 115.351 193.71C115.822 194.288 116.122 195.001 116.251 195.847H113.888C113.738 195.215 113.428 194.743 112.956 194.433C112.496 194.111 111.939 193.951 111.285 193.951C110.685 193.951 110.203 194.079 109.839 194.336C109.474 194.583 109.292 194.931 109.292 195.381C109.292 195.735 109.415 196.018 109.662 196.233C109.908 196.447 110.214 196.613 110.578 196.731C110.942 196.849 111.451 196.983 112.105 197.133C113.037 197.336 113.797 197.551 114.387 197.776C114.987 198 115.501 198.365 115.929 198.868C116.358 199.372 116.572 200.052 116.572 200.909C116.572 202.077 116.165 202.998 115.351 203.673C114.547 204.348 113.428 204.686 111.992 204.686ZM122.941 195.268C123.723 195.268 124.414 195.467 125.014 195.863C125.614 196.259 126.08 196.817 126.412 197.534C126.744 198.242 126.91 199.05 126.91 199.961C126.91 200.872 126.744 201.686 126.412 202.404C126.08 203.111 125.614 203.663 125.014 204.059C124.414 204.456 123.723 204.654 122.941 204.654C122.362 204.654 121.875 204.552 121.479 204.348C121.082 204.134 120.712 203.775 120.37 203.272L120.145 203.432C120.23 203.55 120.289 203.663 120.321 203.77C120.364 203.877 120.386 204.011 120.386 204.172V207.707H118.216V195.445H120.386V195.735C120.386 195.895 120.364 196.035 120.321 196.152C120.289 196.259 120.23 196.372 120.145 196.49L120.37 196.634C120.712 196.131 121.082 195.777 121.479 195.574C121.875 195.37 122.362 195.268 122.941 195.268ZM122.443 197.133C121.757 197.133 121.195 197.395 120.755 197.92C120.327 198.445 120.113 199.125 120.113 199.961C120.113 200.797 120.327 201.477 120.755 202.002C121.195 202.527 121.757 202.79 122.443 202.79C123.128 202.79 123.68 202.527 124.098 202.002C124.516 201.466 124.725 200.786 124.725 199.961C124.725 199.136 124.516 198.461 124.098 197.936C123.68 197.401 123.128 197.133 122.443 197.133ZM131.13 204.638C130.252 204.638 129.539 204.407 128.993 203.947C128.446 203.475 128.173 202.822 128.173 201.986C128.173 201.086 128.516 200.4 129.202 199.929C129.695 199.586 130.396 199.329 131.307 199.158L133.991 198.659C133.991 198.124 133.846 197.701 133.557 197.39C133.289 197.101 132.887 196.956 132.352 196.956C131.934 196.956 131.564 197.079 131.243 197.326C130.932 197.572 130.739 197.904 130.664 198.322H128.511C128.661 197.326 129.1 196.565 129.829 196.04C130.557 195.515 131.403 195.252 132.368 195.252C132.914 195.252 133.423 195.333 133.894 195.493C134.366 195.643 134.768 195.868 135.1 196.168C135.432 196.458 135.673 196.795 135.823 197.181C135.973 197.567 136.064 197.952 136.096 198.338C136.139 198.724 136.16 199.2 136.16 199.768V204.461H133.991V204.204C133.991 203.925 134.061 203.641 134.2 203.352L133.959 203.223C133.766 203.62 133.498 203.931 133.155 204.156C132.673 204.477 131.998 204.638 131.13 204.638ZM131.661 202.934C132.057 202.934 132.443 202.849 132.818 202.677C133.161 202.516 133.434 202.281 133.637 201.97C133.734 201.809 133.809 201.654 133.862 201.504C133.916 201.343 133.975 201.124 134.039 200.845C134.061 200.716 134.093 200.625 134.135 200.572C134.189 200.508 134.264 200.47 134.36 200.459L134.312 200.202C133.455 200.374 132.903 200.486 132.657 200.54L131.886 200.684C131.307 200.791 130.889 200.963 130.632 201.199C130.439 201.391 130.343 201.627 130.343 201.906C130.343 202.238 130.461 202.495 130.696 202.677C130.943 202.849 131.264 202.934 131.661 202.934ZM142.232 204.638C141.332 204.638 140.534 204.44 139.838 204.043C139.152 203.647 138.616 203.09 138.231 202.372C137.845 201.654 137.652 200.829 137.652 199.897C137.652 198.997 137.845 198.193 138.231 197.486C138.616 196.779 139.152 196.233 139.838 195.847C140.534 195.451 141.332 195.252 142.232 195.252C143.314 195.252 144.23 195.531 144.98 196.088C145.741 196.634 146.234 197.379 146.459 198.322H144.096C143.957 197.904 143.727 197.583 143.405 197.358C143.084 197.133 142.693 197.02 142.232 197.02C141.525 197.02 140.952 197.283 140.513 197.808C140.084 198.333 139.87 199.029 139.87 199.897C139.87 200.797 140.084 201.52 140.513 202.066C140.952 202.602 141.525 202.87 142.232 202.87C142.747 202.87 143.164 202.747 143.486 202.5C143.807 202.243 144.027 201.884 144.145 201.424H146.491C146.287 202.42 145.8 203.207 145.029 203.786C144.257 204.354 143.325 204.638 142.232 204.638ZM152.23 204.638C151.319 204.638 150.516 204.44 149.819 204.043C149.123 203.647 148.582 203.1 148.196 202.404C147.821 201.697 147.634 200.899 147.634 200.009C147.634 199.184 147.8 198.413 148.132 197.695C148.475 196.967 148.984 196.377 149.658 195.927C150.344 195.477 151.18 195.252 152.166 195.252C152.98 195.252 153.73 195.424 154.415 195.767C155.101 196.099 155.653 196.618 156.071 197.326C156.489 198.022 156.697 198.89 156.697 199.929V200.395H150.976C150.912 200.395 150.735 200.395 150.446 200.395C150.157 200.395 149.926 200.379 149.755 200.347L149.691 200.588C149.776 200.609 149.841 200.652 149.883 200.716C149.937 200.781 149.98 200.872 150.012 200.99C150.098 201.215 150.167 201.37 150.221 201.456C150.435 201.874 150.719 202.2 151.073 202.436C151.437 202.661 151.849 202.774 152.31 202.774C152.803 202.774 153.226 202.65 153.58 202.404C153.933 202.147 154.185 201.82 154.335 201.424H156.553C156.264 202.377 155.755 203.154 155.026 203.754C154.298 204.343 153.365 204.638 152.23 204.638ZM149.948 199.013C150.108 198.917 150.253 198.852 150.382 198.82C150.51 198.788 150.655 198.772 150.816 198.772H153.612C153.783 198.772 153.933 198.788 154.062 198.82C154.201 198.852 154.356 198.917 154.528 199.013L154.656 198.788C154.581 198.745 154.528 198.708 154.496 198.675C154.464 198.633 154.437 198.59 154.415 198.547C154.405 198.504 154.399 198.477 154.399 198.467C154.356 198.284 154.271 198.108 154.142 197.936C153.939 197.626 153.671 197.39 153.339 197.229C153.007 197.058 152.637 196.972 152.23 196.972C151.823 196.972 151.453 197.052 151.121 197.213C150.8 197.374 150.537 197.615 150.333 197.936C150.194 198.108 150.103 198.284 150.06 198.467C150.06 198.477 150.05 198.509 150.028 198.563C150.007 198.606 149.98 198.649 149.948 198.692C149.916 198.724 149.867 198.756 149.803 198.788L149.948 199.013Z" fill="white"/>
<path d="M63.9996 268.547C63.1424 268.547 62.3228 268.408 61.5407 268.129C60.7586 267.851 60.0944 267.401 59.548 266.779C59.0123 266.147 58.6962 265.333 58.5998 264.337H60.9943C61.1765 265.14 61.5407 265.713 62.0871 266.056C62.6335 266.399 63.2764 266.571 64.0156 266.571C64.6906 266.571 65.2316 266.431 65.6388 266.153C66.0459 265.863 66.2495 265.44 66.2495 264.883C66.2495 264.487 66.1209 264.171 65.8638 263.935C65.6066 263.689 65.2799 263.506 64.8834 263.389C64.4977 263.26 63.9674 263.121 63.2924 262.971C62.371 262.767 61.6264 262.558 61.0586 262.344C60.5015 262.13 60.0194 261.792 59.6122 261.331C59.2051 260.871 59.0015 260.239 59.0015 259.435C59.0015 258.664 59.189 258.01 59.564 257.475C59.939 256.928 60.4533 256.521 61.1068 256.253C61.7604 255.975 62.505 255.835 63.3407 255.835C64.1549 255.835 64.9102 255.98 65.6066 256.269C66.303 256.548 66.8869 256.982 67.3583 257.571C67.8298 258.149 68.1297 258.862 68.2583 259.708H65.8959C65.7459 259.076 65.4352 258.605 64.9638 258.294C64.5031 257.973 63.946 257.812 63.2924 257.812C62.6925 257.812 62.2103 257.941 61.8461 258.198C61.4818 258.444 61.2997 258.792 61.2997 259.242C61.2997 259.596 61.4229 259.88 61.6693 260.094C61.9157 260.308 62.2211 260.474 62.5853 260.592C62.9496 260.71 63.4585 260.844 64.112 260.994C65.0442 261.198 65.8048 261.412 66.3941 261.637C66.9941 261.862 67.5083 262.226 67.9369 262.73C68.3654 263.233 68.5797 263.914 68.5797 264.771C68.5797 265.938 68.1726 266.86 67.3583 267.535C66.5548 268.21 65.4352 268.547 63.9996 268.547ZM70.2236 256.06H72.3931V261.171C72.3931 261.428 72.3824 261.658 72.361 261.862C72.3503 262.065 72.3074 262.312 72.2324 262.601L72.4253 262.681C72.6074 262.446 72.8753 262.14 73.2288 261.765L75.6876 259.307H78.4357L75.0609 262.601C74.8573 262.805 74.6109 262.971 74.3216 263.099V263.324C74.6109 263.474 74.8573 263.683 75.0609 263.951L78.725 268.322H76.0573L73.2288 264.899C72.7681 264.299 72.5003 263.946 72.4253 263.839L72.2324 263.903C72.3074 264.203 72.3503 264.46 72.361 264.674C72.3824 264.888 72.3931 265.13 72.3931 265.397V268.322H70.2236V256.06ZM82.868 268.499C81.4645 268.499 80.527 268.001 80.0556 267.004C79.8842 266.651 79.7771 266.292 79.7342 265.928C79.6914 265.553 79.6699 265.076 79.6699 264.497V259.307H81.8395V264.513C81.8395 264.974 81.8716 265.349 81.9359 265.638C82.0109 265.917 82.1234 266.142 82.2734 266.313C82.5091 266.581 82.8894 266.715 83.4144 266.715C84.0251 266.715 84.4858 266.533 84.7965 266.169C84.9786 265.965 85.1072 265.687 85.1822 265.333C85.2679 264.969 85.3108 264.487 85.3108 263.887V259.307H87.4803V268.322H85.3108V268.033C85.3108 267.872 85.3268 267.738 85.359 267.631C85.4018 267.513 85.4661 267.396 85.5518 267.278L85.3268 267.133C84.984 267.626 84.6197 267.979 84.234 268.194C83.8483 268.397 83.393 268.499 82.868 268.499ZM89.6088 269.736H90.5891C90.9105 269.736 91.1516 269.688 91.3123 269.592C91.4837 269.506 91.6284 269.308 91.7462 268.997L91.9873 268.354L88.6606 259.307H91.007L92.7587 264.787C92.898 265.194 92.973 265.569 92.9837 265.912H93.1926C93.2033 265.633 93.2676 265.258 93.3854 264.787L95.0086 259.307H97.3389L93.8354 269.383C93.5569 270.186 93.214 270.749 92.8069 271.07C92.4105 271.402 91.8427 271.569 91.1034 271.569H89.6088V269.736ZM100.608 268.322C99.9224 268.322 99.4028 268.167 99.0493 267.856C98.6957 267.535 98.5189 267.031 98.5189 266.346V256.06H100.688V265.703C100.688 266.003 100.742 266.217 100.849 266.346C100.967 266.463 101.16 266.522 101.428 266.522H102.006V268.322H100.608ZM106.004 268.499C105.125 268.499 104.413 268.269 103.867 267.808C103.32 267.337 103.047 266.683 103.047 265.847C103.047 264.947 103.39 264.262 104.076 263.79C104.568 263.447 105.27 263.19 106.181 263.019L108.865 262.521C108.865 261.985 108.72 261.562 108.431 261.251C108.163 260.962 107.761 260.817 107.225 260.817C106.808 260.817 106.438 260.94 106.117 261.187C105.806 261.433 105.613 261.765 105.538 262.183H103.384C103.534 261.187 103.974 260.426 104.702 259.901C105.431 259.376 106.277 259.114 107.241 259.114C107.788 259.114 108.297 259.194 108.768 259.355C109.24 259.505 109.641 259.73 109.973 260.03C110.306 260.319 110.547 260.657 110.697 261.042C110.847 261.428 110.938 261.814 110.97 262.199C111.013 262.585 111.034 263.062 111.034 263.63V268.322H108.865V268.065C108.865 267.787 108.934 267.503 109.074 267.213L108.832 267.085C108.64 267.481 108.372 267.792 108.029 268.017C107.547 268.338 106.872 268.499 106.004 268.499ZM106.534 266.796C106.931 266.796 107.316 266.71 107.691 266.538C108.034 266.378 108.307 266.142 108.511 265.831C108.607 265.671 108.682 265.515 108.736 265.365C108.79 265.205 108.849 264.985 108.913 264.706C108.934 264.578 108.966 264.487 109.009 264.433C109.063 264.369 109.138 264.331 109.234 264.321L109.186 264.064C108.329 264.235 107.777 264.347 107.531 264.401L106.759 264.546C106.181 264.653 105.763 264.824 105.506 265.06C105.313 265.253 105.217 265.488 105.217 265.767C105.217 266.099 105.334 266.356 105.57 266.538C105.817 266.71 106.138 266.796 106.534 266.796ZM122.178 268.547C121.32 268.547 120.501 268.408 119.719 268.129C118.937 267.851 118.272 267.401 117.726 266.779C117.19 266.147 116.874 265.333 116.778 264.337H119.172C119.354 265.14 119.719 265.713 120.265 266.056C120.812 266.399 121.454 266.571 122.194 266.571C122.869 266.571 123.41 266.431 123.817 266.153C124.224 265.863 124.428 265.44 124.428 264.883C124.428 264.487 124.299 264.171 124.042 263.935C123.785 263.689 123.458 263.506 123.061 263.389C122.676 263.26 122.145 263.121 121.47 262.971C120.549 262.767 119.804 262.558 119.237 262.344C118.68 262.13 118.197 261.792 117.79 261.331C117.383 260.871 117.18 260.239 117.18 259.435C117.18 258.664 117.367 258.01 117.742 257.475C118.117 256.928 118.631 256.521 119.285 256.253C119.938 255.975 120.683 255.835 121.519 255.835C122.333 255.835 123.088 255.98 123.785 256.269C124.481 256.548 125.065 256.982 125.536 257.571C126.008 258.149 126.308 258.862 126.436 259.708H124.074C123.924 259.076 123.613 258.605 123.142 258.294C122.681 257.973 122.124 257.812 121.47 257.812C120.871 257.812 120.388 257.941 120.024 258.198C119.66 258.444 119.478 258.792 119.478 259.242C119.478 259.596 119.601 259.88 119.847 260.094C120.094 260.308 120.399 260.474 120.763 260.592C121.128 260.71 121.637 260.844 122.29 260.994C123.222 261.198 123.983 261.412 124.572 261.637C125.172 261.862 125.686 262.226 126.115 262.73C126.543 263.233 126.758 263.914 126.758 264.771C126.758 265.938 126.351 266.86 125.536 267.535C124.733 268.21 123.613 268.547 122.178 268.547ZM133.126 259.13C133.909 259.13 134.6 259.328 135.2 259.724C135.8 260.121 136.266 260.678 136.598 261.396C136.93 262.103 137.096 262.912 137.096 263.822C137.096 264.733 136.93 265.547 136.598 266.265C136.266 266.972 135.8 267.524 135.2 267.92C134.6 268.317 133.909 268.515 133.126 268.515C132.548 268.515 132.06 268.413 131.664 268.21C131.268 267.995 130.898 267.637 130.555 267.133L130.33 267.294C130.416 267.412 130.475 267.524 130.507 267.631C130.55 267.738 130.571 267.872 130.571 268.033V271.569H128.402V259.307H130.571V259.596C130.571 259.757 130.55 259.896 130.507 260.014C130.475 260.121 130.416 260.233 130.33 260.351L130.555 260.496C130.898 259.992 131.268 259.639 131.664 259.435C132.06 259.232 132.548 259.13 133.126 259.13ZM132.628 260.994C131.943 260.994 131.38 261.256 130.941 261.781C130.512 262.306 130.298 262.987 130.298 263.822C130.298 264.658 130.512 265.338 130.941 265.863C131.38 266.388 131.943 266.651 132.628 266.651C133.314 266.651 133.866 266.388 134.284 265.863C134.701 265.328 134.91 264.647 134.91 263.822C134.91 262.997 134.701 262.323 134.284 261.798C133.866 261.262 133.314 260.994 132.628 260.994ZM141.316 268.499C140.437 268.499 139.725 268.269 139.178 267.808C138.632 267.337 138.359 266.683 138.359 265.847C138.359 264.947 138.702 264.262 139.387 263.79C139.88 263.447 140.582 263.19 141.493 263.019L144.176 262.521C144.176 261.985 144.032 261.562 143.742 261.251C143.475 260.962 143.073 260.817 142.537 260.817C142.119 260.817 141.75 260.94 141.428 261.187C141.118 261.433 140.925 261.765 140.85 262.183H138.696C138.846 261.187 139.285 260.426 140.014 259.901C140.743 259.376 141.589 259.114 142.553 259.114C143.1 259.114 143.609 259.194 144.08 259.355C144.551 259.505 144.953 259.73 145.285 260.03C145.617 260.319 145.858 260.657 146.008 261.042C146.158 261.428 146.249 261.814 146.282 262.199C146.324 262.585 146.346 263.062 146.346 263.63V268.322H144.176V268.065C144.176 267.787 144.246 267.503 144.385 267.213L144.144 267.085C143.951 267.481 143.684 267.792 143.341 268.017C142.859 268.338 142.184 268.499 141.316 268.499ZM141.846 266.796C142.242 266.796 142.628 266.71 143.003 266.538C143.346 266.378 143.619 266.142 143.823 265.831C143.919 265.671 143.994 265.515 144.048 265.365C144.101 265.205 144.16 264.985 144.225 264.706C144.246 264.578 144.278 264.487 144.321 264.433C144.375 264.369 144.45 264.331 144.546 264.321L144.498 264.064C143.641 264.235 143.089 264.347 142.842 264.401L142.071 264.546C141.493 264.653 141.075 264.824 140.818 265.06C140.625 265.253 140.528 265.488 140.528 265.767C140.528 266.099 140.646 266.356 140.882 266.538C141.128 266.71 141.45 266.796 141.846 266.796ZM152.418 268.499C151.518 268.499 150.72 268.301 150.023 267.904C149.338 267.508 148.802 266.951 148.416 266.233C148.03 265.515 147.838 264.69 147.838 263.758C147.838 262.858 148.03 262.055 148.416 261.348C148.802 260.64 149.338 260.094 150.023 259.708C150.72 259.312 151.518 259.114 152.418 259.114C153.5 259.114 154.416 259.392 155.166 259.949C155.927 260.496 156.419 261.24 156.644 262.183H154.282C154.143 261.765 153.912 261.444 153.591 261.219C153.269 260.994 152.878 260.882 152.418 260.882C151.711 260.882 151.137 261.144 150.698 261.669C150.27 262.194 150.055 262.89 150.055 263.758C150.055 264.658 150.27 265.381 150.698 265.928C151.137 266.463 151.711 266.731 152.418 266.731C152.932 266.731 153.35 266.608 153.671 266.362C153.993 266.105 154.212 265.746 154.33 265.285H156.676C156.473 266.281 155.985 267.069 155.214 267.647C154.443 268.215 153.511 268.499 152.418 268.499ZM162.415 268.499C161.505 268.499 160.701 268.301 160.005 267.904C159.308 267.508 158.767 266.962 158.382 266.265C158.007 265.558 157.819 264.76 157.819 263.871C157.819 263.046 157.985 262.274 158.317 261.556C158.66 260.828 159.169 260.239 159.844 259.789C160.53 259.339 161.365 259.114 162.351 259.114C163.165 259.114 163.915 259.285 164.601 259.628C165.287 259.96 165.838 260.48 166.256 261.187C166.674 261.883 166.883 262.751 166.883 263.79V264.256H161.162C161.097 264.256 160.921 264.256 160.631 264.256C160.342 264.256 160.112 264.24 159.94 264.208L159.876 264.449C159.962 264.471 160.026 264.513 160.069 264.578C160.123 264.642 160.165 264.733 160.198 264.851C160.283 265.076 160.353 265.231 160.406 265.317C160.621 265.735 160.905 266.062 161.258 266.297C161.622 266.522 162.035 266.635 162.496 266.635C162.988 266.635 163.412 266.512 163.765 266.265C164.119 266.008 164.371 265.681 164.521 265.285H166.738C166.449 266.238 165.94 267.015 165.212 267.615C164.483 268.204 163.551 268.499 162.415 268.499ZM160.133 262.874C160.294 262.778 160.439 262.714 160.567 262.681C160.696 262.649 160.84 262.633 161.001 262.633H163.797C163.969 262.633 164.119 262.649 164.247 262.681C164.387 262.714 164.542 262.778 164.713 262.874L164.842 262.649C164.767 262.606 164.713 262.569 164.681 262.537C164.649 262.494 164.622 262.451 164.601 262.408C164.59 262.365 164.585 262.339 164.585 262.328C164.542 262.146 164.456 261.969 164.328 261.798C164.124 261.487 163.856 261.251 163.524 261.09C163.192 260.919 162.822 260.833 162.415 260.833C162.008 260.833 161.639 260.914 161.306 261.074C160.985 261.235 160.722 261.476 160.519 261.798C160.38 261.969 160.289 262.146 160.246 262.328C160.246 262.339 160.235 262.371 160.214 262.424C160.192 262.467 160.165 262.51 160.133 262.553C160.101 262.585 160.053 262.617 159.989 262.649L160.133 262.874Z" fill="white"/>
<path d="M248.424 204.461V192.199H250.738V197.277H255.993V192.199H258.308V204.461H255.993V199.35H250.738V204.461H248.424ZM260.396 204.461V195.445H262.566V204.461H260.396ZM261.489 194.449C261.114 194.449 260.798 194.336 260.541 194.111C260.284 193.886 260.155 193.586 260.155 193.211C260.155 192.858 260.284 192.563 260.541 192.328C260.798 192.092 261.114 191.974 261.489 191.974C261.853 191.974 262.164 192.092 262.421 192.328C262.689 192.563 262.823 192.858 262.823 193.211C262.823 193.576 262.694 193.876 262.437 194.111C262.18 194.336 261.864 194.449 261.489 194.449ZM268.686 207.884C267.614 207.884 266.693 207.659 265.921 207.209C265.161 206.77 264.689 206.014 264.507 204.943H266.693C266.832 205.382 267.062 205.698 267.384 205.891C267.705 206.095 268.134 206.197 268.67 206.197C269.377 206.197 269.902 206.036 270.244 205.714C270.587 205.393 270.759 204.954 270.759 204.397V203.979C270.759 203.797 270.775 203.657 270.807 203.561C270.839 203.454 270.903 203.341 271 203.223L270.775 203.079C270.421 203.582 270.046 203.936 269.65 204.14C269.253 204.343 268.766 204.445 268.187 204.445C267.416 204.445 266.73 204.252 266.13 203.866C265.53 203.47 265.064 202.924 264.732 202.227C264.4 201.531 264.234 200.749 264.234 199.881C264.234 198.992 264.4 198.199 264.732 197.502C265.064 196.795 265.53 196.243 266.13 195.847C266.73 195.451 267.416 195.252 268.187 195.252C268.766 195.252 269.253 195.36 269.65 195.574C270.057 195.777 270.432 196.131 270.775 196.634L271 196.474C270.903 196.367 270.839 196.259 270.807 196.152C270.775 196.045 270.759 195.906 270.759 195.735V195.445H272.928V203.882C272.928 205.329 272.548 206.357 271.787 206.968C271.037 207.579 270.003 207.884 268.686 207.884ZM268.702 202.581C269.152 202.581 269.553 202.463 269.907 202.227C270.261 201.991 270.534 201.665 270.727 201.247C270.93 200.829 271.032 200.363 271.032 199.849C271.032 199.334 270.93 198.868 270.727 198.45C270.534 198.033 270.261 197.706 269.907 197.47C269.553 197.234 269.152 197.117 268.702 197.117C268.016 197.117 267.464 197.379 267.046 197.904C266.629 198.418 266.42 199.067 266.42 199.849C266.42 200.631 266.629 201.284 267.046 201.809C267.464 202.324 268.016 202.581 268.702 202.581ZM274.898 192.199H277.067V195.735C277.067 195.895 277.046 196.029 277.003 196.136C276.971 196.243 276.912 196.356 276.826 196.474L277.051 196.634C277.383 196.131 277.742 195.777 278.128 195.574C278.524 195.36 278.985 195.252 279.51 195.252C280.924 195.252 281.862 195.756 282.322 196.763C282.494 197.117 282.601 197.476 282.644 197.84C282.687 198.204 282.708 198.681 282.708 199.27V204.461H280.539V199.238C280.539 198.777 280.501 198.408 280.426 198.129C280.362 197.84 280.255 197.609 280.105 197.438C279.848 197.17 279.467 197.036 278.964 197.036C278.353 197.036 277.892 197.218 277.582 197.583C277.399 197.797 277.266 198.081 277.18 198.434C277.105 198.788 277.067 199.265 277.067 199.865V204.461H274.898V192.199ZM287.284 204.461C285.88 204.461 285.178 203.802 285.178 202.484V197.181H283.844V195.445H285.178V192.199H287.348V195.445H289.084V197.181H287.348V201.825C287.348 202.104 287.391 202.313 287.476 202.452C287.573 202.591 287.776 202.661 288.087 202.661H289.067V204.461H287.284ZM289.73 200.17V198.322H294.793V200.17H289.73ZM300.405 204.638C299.495 204.638 298.691 204.44 297.995 204.043C297.298 203.647 296.757 203.1 296.371 202.404C295.996 201.697 295.809 200.899 295.809 200.009C295.809 199.184 295.975 198.413 296.307 197.695C296.65 196.967 297.159 196.377 297.834 195.927C298.52 195.477 299.355 195.252 300.341 195.252C301.155 195.252 301.905 195.424 302.591 195.767C303.277 196.099 303.828 196.618 304.246 197.326C304.664 198.022 304.873 198.89 304.873 199.929V200.395H299.152C299.087 200.395 298.911 200.395 298.621 200.395C298.332 200.395 298.102 200.379 297.93 200.347L297.866 200.588C297.952 200.609 298.016 200.652 298.059 200.716C298.112 200.781 298.155 200.872 298.187 200.99C298.273 201.215 298.343 201.37 298.396 201.456C298.611 201.874 298.895 202.2 299.248 202.436C299.612 202.661 300.025 202.774 300.486 202.774C300.978 202.774 301.402 202.65 301.755 202.404C302.109 202.147 302.361 201.82 302.511 201.424H304.728C304.439 202.377 303.93 203.154 303.202 203.754C302.473 204.343 301.541 204.638 300.405 204.638ZM298.123 199.013C298.284 198.917 298.429 198.852 298.557 198.82C298.686 198.788 298.83 198.772 298.991 198.772H301.787C301.959 198.772 302.109 198.788 302.237 198.82C302.377 198.852 302.532 198.917 302.703 199.013L302.832 198.788C302.757 198.745 302.703 198.708 302.671 198.675C302.639 198.633 302.612 198.59 302.591 198.547C302.58 198.504 302.575 198.477 302.575 198.467C302.532 198.284 302.446 198.108 302.318 197.936C302.114 197.626 301.846 197.39 301.514 197.229C301.182 197.058 300.812 196.972 300.405 196.972C299.998 196.972 299.628 197.052 299.296 197.213C298.975 197.374 298.712 197.615 298.509 197.936C298.37 198.108 298.279 198.284 298.236 198.467C298.236 198.477 298.225 198.509 298.204 198.563C298.182 198.606 298.155 198.649 298.123 198.692C298.091 198.724 298.043 198.756 297.979 198.788L298.123 199.013ZM306.458 195.445H308.628V195.735C308.628 195.906 308.612 196.045 308.58 196.152C308.547 196.259 308.483 196.367 308.387 196.474L308.612 196.634C308.955 196.131 309.319 195.777 309.705 195.574C310.101 195.36 310.562 195.252 311.087 195.252C312.479 195.252 313.417 195.756 313.899 196.763C314.06 197.117 314.162 197.476 314.204 197.84C314.247 198.204 314.269 198.681 314.269 199.27V204.461H312.115V199.238C312.115 198.37 311.965 197.77 311.665 197.438C311.408 197.17 311.028 197.036 310.524 197.036C309.924 197.036 309.469 197.218 309.158 197.583C308.976 197.797 308.842 198.086 308.756 198.45C308.671 198.804 308.628 199.275 308.628 199.865V204.461H306.458V195.445ZM319.821 204.638C319.038 204.638 318.347 204.44 317.747 204.043C317.148 203.647 316.681 203.095 316.349 202.388C316.017 201.67 315.851 200.856 315.851 199.945C315.851 199.034 316.017 198.225 316.349 197.518C316.681 196.801 317.148 196.243 317.747 195.847C318.347 195.451 319.038 195.252 319.821 195.252C320.399 195.252 320.887 195.36 321.283 195.574C321.679 195.777 322.049 196.131 322.392 196.634L322.617 196.474C322.531 196.356 322.467 196.243 322.424 196.136C322.392 196.029 322.376 195.895 322.376 195.735V192.199H324.545V204.461H322.376V204.172C322.376 204.011 322.392 203.877 322.424 203.77C322.467 203.652 322.531 203.534 322.617 203.416L322.392 203.272C322.049 203.775 321.679 204.129 321.283 204.332C320.887 204.536 320.399 204.638 319.821 204.638ZM320.319 202.774C321.004 202.774 321.562 202.511 321.99 201.986C322.429 201.461 322.649 200.781 322.649 199.945C322.649 199.109 322.429 198.429 321.99 197.904C321.562 197.379 321.004 197.117 320.319 197.117C319.633 197.117 319.081 197.384 318.664 197.92C318.246 198.445 318.037 199.12 318.037 199.945C318.037 200.77 318.246 201.45 318.664 201.986C319.081 202.511 319.633 202.774 320.319 202.774Z" fill="white"/>
<path d="M253.573 268.225C252.266 268.225 251.168 267.941 250.278 267.373C249.389 266.795 248.725 266.023 248.286 265.059C247.846 264.095 247.627 263.029 247.627 261.861C247.627 260.693 247.846 259.632 248.286 258.679C248.725 257.715 249.389 256.949 250.278 256.381C251.168 255.802 252.266 255.513 253.573 255.513C255.051 255.513 256.246 255.883 257.157 256.622C258.067 257.361 258.608 258.347 258.78 259.579H256.257C256.15 258.936 255.85 258.443 255.357 258.1C254.864 257.758 254.248 257.586 253.509 257.586C252.405 257.586 251.548 257.977 250.937 258.759C250.337 259.531 250.037 260.565 250.037 261.861C250.037 263.168 250.337 264.213 250.937 264.995C251.548 265.766 252.405 266.152 253.509 266.152C254.259 266.152 254.875 265.975 255.357 265.622C255.839 265.257 256.139 264.722 256.257 264.014H258.78C258.608 265.311 258.067 266.339 257.157 267.1C256.257 267.85 255.062 268.225 253.573 268.225ZM264.543 268.177C263.643 268.177 262.845 267.979 262.148 267.582C261.452 267.186 260.906 266.629 260.509 265.911C260.123 265.193 259.931 264.368 259.931 263.436C259.931 262.536 260.123 261.732 260.509 261.025C260.906 260.318 261.452 259.772 262.148 259.386C262.845 258.99 263.643 258.791 264.543 258.791C265.443 258.791 266.241 258.99 266.937 259.386C267.645 259.782 268.191 260.334 268.577 261.041C268.973 261.738 269.171 262.536 269.171 263.436C269.171 264.368 268.978 265.193 268.593 265.911C268.207 266.629 267.661 267.186 266.953 267.582C266.257 267.979 265.454 268.177 264.543 268.177ZM264.543 266.313C265.25 266.313 265.823 266.045 266.262 265.509C266.702 264.973 266.921 264.282 266.921 263.436C266.921 262.622 266.702 261.957 266.262 261.443C265.823 260.918 265.25 260.656 264.543 260.656C264.082 260.656 263.67 260.774 263.305 261.009C262.941 261.245 262.657 261.577 262.454 262.006C262.25 262.423 262.148 262.9 262.148 263.436C262.148 264.293 262.368 264.989 262.807 265.525C263.257 266.05 263.836 266.313 264.543 266.313ZM270.784 258.984H272.953V259.274C272.953 259.445 272.937 259.584 272.905 259.691C272.873 259.799 272.809 259.906 272.712 260.013L272.937 260.174C273.269 259.681 273.639 259.327 274.046 259.113C274.453 258.899 274.946 258.791 275.525 258.791H275.782V260.881H275.284C274.598 260.881 274.062 261.063 273.677 261.427C273.43 261.673 273.248 261.99 273.13 262.375C273.012 262.75 272.953 263.232 272.953 263.822V268H270.784V258.984ZM281.802 258.808C282.584 258.808 283.276 259.006 283.875 259.402C284.475 259.799 284.942 260.356 285.274 261.074C285.606 261.781 285.772 262.59 285.772 263.5C285.772 264.411 285.606 265.225 285.274 265.943C284.942 266.65 284.475 267.202 283.875 267.598C283.276 267.995 282.584 268.193 281.802 268.193C281.224 268.193 280.736 268.091 280.34 267.888C279.944 267.673 279.574 267.314 279.231 266.811L279.006 266.971C279.092 267.089 279.151 267.202 279.183 267.309C279.226 267.416 279.247 267.55 279.247 267.711V271.246H277.078V258.984H279.247V259.274C279.247 259.434 279.226 259.574 279.183 259.691C279.151 259.799 279.092 259.911 279.006 260.029L279.231 260.174C279.574 259.67 279.944 259.316 280.34 259.113C280.736 258.909 281.224 258.808 281.802 258.808ZM281.304 260.672C280.618 260.672 280.056 260.934 279.617 261.459C279.188 261.984 278.974 262.665 278.974 263.5C278.974 264.336 279.188 265.016 279.617 265.541C280.056 266.066 280.618 266.329 281.304 266.329C281.99 266.329 282.542 266.066 282.959 265.541C283.377 265.005 283.586 264.325 283.586 263.5C283.586 262.675 283.377 262 282.959 261.475C282.542 260.94 281.99 260.672 281.304 260.672ZM291.631 268.177C290.731 268.177 289.933 267.979 289.236 267.582C288.54 267.186 287.994 266.629 287.597 265.911C287.211 265.193 287.019 264.368 287.019 263.436C287.019 262.536 287.211 261.732 287.597 261.025C287.994 260.318 288.54 259.772 289.236 259.386C289.933 258.99 290.731 258.791 291.631 258.791C292.531 258.791 293.329 258.99 294.025 259.386C294.733 259.782 295.279 260.334 295.665 261.041C296.061 261.738 296.259 262.536 296.259 263.436C296.259 264.368 296.066 265.193 295.681 265.911C295.295 266.629 294.749 267.186 294.042 267.582C293.345 267.979 292.542 268.177 291.631 268.177ZM291.631 266.313C292.338 266.313 292.911 266.045 293.35 265.509C293.79 264.973 294.009 264.282 294.009 263.436C294.009 262.622 293.79 261.957 293.35 261.443C292.911 260.918 292.338 260.656 291.631 260.656C291.17 260.656 290.758 260.774 290.393 261.009C290.029 261.245 289.745 261.577 289.542 262.006C289.338 262.423 289.236 262.9 289.236 263.436C289.236 264.293 289.456 264.989 289.895 265.525C290.345 266.05 290.924 266.313 291.631 266.313ZM297.872 258.984H300.041V259.274C300.041 259.445 300.025 259.584 299.993 259.691C299.961 259.799 299.897 259.906 299.8 260.013L300.025 260.174C300.357 259.681 300.727 259.327 301.134 259.113C301.541 258.899 302.034 258.791 302.613 258.791H302.87V260.881H302.372C301.686 260.881 301.15 261.063 300.765 261.427C300.518 261.673 300.336 261.99 300.218 262.375C300.1 262.75 300.041 263.232 300.041 263.822V268H297.872V258.984ZM306.659 268.177C305.78 268.177 305.068 267.946 304.521 267.486C303.975 267.014 303.702 266.361 303.702 265.525C303.702 264.625 304.045 263.939 304.73 263.468C305.223 263.125 305.925 262.868 306.836 262.697L309.519 262.198C309.519 261.663 309.375 261.24 309.086 260.929C308.818 260.64 308.416 260.495 307.88 260.495C307.462 260.495 307.093 260.618 306.771 260.865C306.461 261.111 306.268 261.443 306.193 261.861H304.039C304.189 260.865 304.629 260.104 305.357 259.579C306.086 259.054 306.932 258.791 307.896 258.791C308.443 258.791 308.952 258.872 309.423 259.033C309.894 259.183 310.296 259.407 310.628 259.707C310.96 259.997 311.201 260.334 311.351 260.72C311.501 261.106 311.593 261.491 311.625 261.877C311.668 262.263 311.689 262.74 311.689 263.307V268H309.519V267.743C309.519 267.464 309.589 267.18 309.728 266.891L309.487 266.763C309.294 267.159 309.027 267.47 308.684 267.695C308.202 268.016 307.527 268.177 306.659 268.177ZM307.189 266.473C307.586 266.473 307.971 266.388 308.346 266.216C308.689 266.055 308.962 265.82 309.166 265.509C309.262 265.348 309.337 265.193 309.391 265.043C309.444 264.882 309.503 264.663 309.568 264.384C309.589 264.256 309.621 264.164 309.664 264.111C309.718 264.047 309.793 264.009 309.889 263.998L309.841 263.741C308.984 263.913 308.432 264.025 308.186 264.079L307.414 264.223C306.836 264.331 306.418 264.502 306.161 264.738C305.968 264.93 305.871 265.166 305.871 265.445C305.871 265.777 305.989 266.034 306.225 266.216C306.471 266.388 306.793 266.473 307.189 266.473ZM316.379 268C314.975 268 314.273 267.341 314.273 266.023V260.72H312.94V258.984H314.273V255.738H316.443V258.984H318.179V260.72H316.443V265.364C316.443 265.643 316.486 265.852 316.572 265.991C316.668 266.13 316.872 266.2 317.182 266.2H318.163V268H316.379ZM323.788 268.177C322.877 268.177 322.074 267.979 321.377 267.582C320.681 267.186 320.14 266.639 319.754 265.943C319.379 265.236 319.191 264.438 319.191 263.548C319.191 262.723 319.358 261.952 319.69 261.234C320.033 260.506 320.541 259.916 321.216 259.466C321.902 259.016 322.738 258.791 323.723 258.791C324.538 258.791 325.288 258.963 325.973 259.306C326.659 259.638 327.211 260.157 327.629 260.865C328.046 261.561 328.255 262.429 328.255 263.468V263.934H322.534C322.47 263.934 322.293 263.934 322.004 263.934C321.715 263.934 321.484 263.918 321.313 263.886L321.249 264.127C321.334 264.148 321.399 264.191 321.441 264.256C321.495 264.32 321.538 264.411 321.57 264.529C321.656 264.754 321.725 264.909 321.779 264.995C321.993 265.413 322.277 265.739 322.631 265.975C322.995 266.2 323.407 266.313 323.868 266.313C324.361 266.313 324.784 266.189 325.138 265.943C325.491 265.686 325.743 265.359 325.893 264.963H328.111C327.821 265.916 327.313 266.693 326.584 267.293C325.856 267.882 324.923 268.177 323.788 268.177ZM321.506 262.552C321.666 262.456 321.811 262.391 321.94 262.359C322.068 262.327 322.213 262.311 322.374 262.311H325.17C325.341 262.311 325.491 262.327 325.62 262.359C325.759 262.391 325.914 262.456 326.086 262.552L326.214 262.327C326.139 262.284 326.086 262.247 326.054 262.215C326.022 262.172 325.995 262.129 325.973 262.086C325.963 262.043 325.957 262.016 325.957 262.006C325.914 261.823 325.829 261.647 325.7 261.475C325.497 261.165 325.229 260.929 324.897 260.768C324.564 260.597 324.195 260.511 323.788 260.511C323.381 260.511 323.011 260.591 322.679 260.752C322.357 260.913 322.095 261.154 321.891 261.475C321.752 261.647 321.661 261.823 321.618 262.006C321.618 262.016 321.607 262.048 321.586 262.102C321.565 262.145 321.538 262.188 321.506 262.231C321.474 262.263 321.425 262.295 321.361 262.327L321.506 262.552Z" fill="white"/>
<path d="M591.144 204.654C589.901 204.515 588.835 204.107 587.946 203.432C587.068 202.747 586.559 201.761 586.419 200.475H588.798C588.98 201.172 589.312 201.697 589.794 202.05C589.88 202.125 590.073 202.249 590.373 202.42C590.426 202.452 590.528 202.516 590.678 202.613C590.839 202.709 590.989 202.822 591.128 202.95L591.305 202.822C591.23 202.511 591.182 202.259 591.16 202.066C591.15 201.874 591.144 201.654 591.144 201.407V199.125C590.201 198.922 589.419 198.692 588.798 198.434C588.187 198.167 587.705 197.802 587.351 197.342C586.998 196.87 586.821 196.27 586.821 195.542C586.821 194.792 587.009 194.149 587.384 193.613C587.759 193.077 588.273 192.676 588.926 192.408C589.58 192.129 590.319 191.985 591.144 191.974V190.062H592.108V192.006C593.169 192.199 594.048 192.622 594.744 193.276C595.451 193.919 595.874 194.776 596.014 195.847H593.732C593.624 195.397 593.421 195.001 593.121 194.658L592.783 194.352C592.462 194.063 592.248 193.865 592.141 193.758L591.948 193.886C592.055 194.251 592.108 194.588 592.108 194.899V197.181C593.041 197.374 593.812 197.609 594.423 197.888C595.044 198.167 595.526 198.552 595.869 199.045C596.223 199.527 596.399 200.149 596.399 200.909C596.399 202.034 596.019 202.934 595.258 203.609C594.508 204.273 593.458 204.627 592.108 204.67V206.743H591.144V204.654ZM591.337 197.084C591.251 196.817 591.198 196.602 591.176 196.442C591.155 196.27 591.144 196.088 591.144 195.895V194.77C591.144 194.449 591.198 194.101 591.305 193.726L591.128 193.581C590.85 193.763 590.56 193.908 590.26 194.015L589.955 194.16C589.687 194.277 589.478 194.438 589.328 194.642C589.189 194.845 589.119 195.076 589.119 195.333C589.119 195.89 589.435 196.313 590.067 196.602C590.282 196.688 590.458 196.768 590.598 196.843C590.737 196.918 590.925 197.047 591.16 197.229L591.337 197.084ZM592.124 202.998C592.285 202.881 592.542 202.741 592.896 202.581C593.121 202.495 593.308 202.399 593.458 202.291C593.887 201.991 594.101 201.579 594.101 201.054C594.101 200.775 594.042 200.54 593.924 200.347C593.807 200.143 593.63 199.956 593.394 199.784C593.244 199.699 593.121 199.634 593.024 199.591C592.66 199.42 592.36 199.243 592.124 199.061L591.948 199.19C592.023 199.468 592.066 199.693 592.076 199.865C592.098 200.036 592.108 200.229 592.108 200.443V201.536C592.108 201.761 592.098 201.97 592.076 202.163C592.066 202.345 592.023 202.575 591.948 202.854L592.124 202.998ZM602.832 196.024C603.593 196.024 604.268 196.201 604.857 196.554C605.457 196.908 605.918 197.406 606.239 198.049C606.571 198.681 606.737 199.409 606.737 200.234C606.737 201.102 606.55 201.874 606.175 202.549C605.811 203.223 605.291 203.748 604.616 204.123C603.941 204.498 603.164 204.686 602.286 204.686C601.493 204.686 600.775 204.531 600.132 204.22C599.5 203.898 598.986 203.454 598.59 202.886C598.204 202.307 597.968 201.638 597.882 200.877H600.213C600.331 201.445 600.572 201.879 600.936 202.179C601.311 202.468 601.782 202.613 602.35 202.613C602.982 202.613 603.486 202.399 603.861 201.97C604.236 201.531 604.423 200.958 604.423 200.25C604.423 199.575 604.23 199.029 603.845 198.611C603.459 198.183 602.955 197.968 602.334 197.968C601.423 197.968 600.748 198.392 600.309 199.238H598.059L599.361 192.199H606.175V194.272H601.064L600.775 195.751C600.689 196.179 600.582 196.543 600.454 196.843L600.631 196.956C601.188 196.334 601.922 196.024 602.832 196.024ZM613.027 204.686C611.538 204.686 610.391 204.166 609.588 203.127C608.795 202.077 608.399 200.588 608.399 198.659C608.399 196.559 608.8 194.92 609.604 193.742C610.418 192.563 611.581 191.974 613.091 191.974C614.27 191.974 615.218 192.301 615.936 192.954C616.664 193.597 617.104 194.486 617.254 195.622H615.18C615.052 195.076 614.811 194.663 614.457 194.385C614.104 194.106 613.648 193.967 613.091 193.967C612.384 193.967 611.838 194.181 611.452 194.61C611.066 195.027 610.804 195.633 610.665 196.426C610.654 196.458 610.627 196.602 610.584 196.859C610.541 197.117 610.461 197.39 610.343 197.679L610.536 197.776C610.911 197.229 611.334 196.854 611.806 196.651C612.277 196.447 612.781 196.345 613.316 196.345C614.088 196.345 614.768 196.511 615.357 196.843C615.957 197.165 616.423 197.631 616.755 198.242C617.088 198.842 617.254 199.549 617.254 200.363C617.254 201.199 617.071 201.949 616.707 202.613C616.354 203.266 615.855 203.775 615.213 204.14C614.57 204.504 613.841 204.686 613.027 204.686ZM612.995 202.709C613.606 202.709 614.082 202.495 614.425 202.066C614.768 201.627 614.939 201.07 614.939 200.395C614.939 199.72 614.768 199.179 614.425 198.772C614.082 198.365 613.606 198.161 612.995 198.161C612.352 198.161 611.832 198.37 611.436 198.788C611.05 199.195 610.857 199.731 610.857 200.395C610.857 201.081 611.05 201.638 611.436 202.066C611.832 202.495 612.352 202.709 612.995 202.709ZM618.741 202.709L622.598 199.334C623.359 198.67 623.921 198.065 624.285 197.518C624.65 196.961 624.832 196.404 624.832 195.847C624.832 195.268 624.677 194.813 624.366 194.481C624.066 194.138 623.605 193.967 622.984 193.967C621.623 193.967 620.895 194.813 620.798 196.506H618.661C618.714 195.049 619.111 193.935 619.85 193.163C620.6 192.381 621.65 191.99 623 191.99C623.771 191.99 624.457 192.14 625.057 192.44C625.657 192.729 626.123 193.152 626.455 193.71C626.798 194.256 626.969 194.899 626.969 195.638C626.969 196.592 626.691 197.486 626.134 198.322C625.587 199.158 624.896 199.945 624.06 200.684L622.791 201.825C622.544 202.061 622.234 202.286 621.859 202.5L621.971 202.693C622.239 202.575 622.453 202.495 622.614 202.452C622.775 202.409 622.978 202.388 623.225 202.388H627.516V204.461H618.741V202.709Z" fill="white"/>
<path d="M629.049 206.084C629.66 206.041 630.121 205.859 630.432 205.538C630.742 205.227 630.871 204.804 630.817 204.268H630.624C630.549 204.515 630.351 204.638 630.03 204.638C629.74 204.638 629.489 204.525 629.274 204.3C629.06 204.065 628.953 203.765 628.953 203.4C628.953 203.004 629.082 202.682 629.339 202.436C629.596 202.19 629.933 202.066 630.351 202.066C630.876 202.066 631.283 202.265 631.573 202.661C631.862 203.047 632.006 203.561 632.006 204.204C632.006 204.986 631.765 205.661 631.283 206.229C630.801 206.807 630.057 207.129 629.049 207.193V206.084ZM637.815 191.99C639.304 191.99 640.445 192.515 641.238 193.565C642.041 194.604 642.443 196.088 642.443 198.017C642.443 200.116 642.036 201.756 641.222 202.934C640.418 204.113 639.261 204.702 637.75 204.702C636.572 204.702 635.618 204.381 634.89 203.738C634.172 203.084 633.738 202.19 633.588 201.054H635.661C635.79 201.6 636.031 202.013 636.384 202.291C636.738 202.57 637.193 202.709 637.75 202.709C638.457 202.709 639.004 202.5 639.39 202.082C639.775 201.654 640.038 201.043 640.177 200.25C640.188 200.218 640.215 200.074 640.257 199.816C640.3 199.559 640.381 199.286 640.498 198.997L640.306 198.9C639.931 199.447 639.507 199.822 639.036 200.025C638.565 200.229 638.061 200.331 637.525 200.331C636.754 200.331 636.068 200.17 635.468 199.849C634.879 199.516 634.418 199.05 634.086 198.45C633.754 197.84 633.588 197.127 633.588 196.313C633.588 195.477 633.765 194.733 634.118 194.079C634.483 193.415 634.986 192.901 635.629 192.536C636.272 192.172 637 191.99 637.815 191.99ZM637.847 193.967C637.236 193.967 636.759 194.186 636.416 194.626C636.074 195.054 635.902 195.606 635.902 196.281C635.902 196.956 636.074 197.497 636.416 197.904C636.759 198.311 637.236 198.515 637.847 198.515C638.49 198.515 639.004 198.311 639.39 197.904C639.786 197.486 639.984 196.945 639.984 196.281C639.984 195.595 639.786 195.038 639.39 194.61C639.004 194.181 638.49 193.967 637.847 193.967ZM648.745 204.686C645.745 204.686 644.245 202.554 644.245 198.29C644.245 196.115 644.625 194.518 645.386 193.501C646.157 192.483 647.255 191.974 648.68 191.974C651.68 191.974 653.18 194.106 653.18 198.37C653.18 202.581 651.702 204.686 648.745 204.686ZM648.696 202.613C649.393 202.613 649.928 202.291 650.303 201.649C650.678 201.006 650.866 199.902 650.866 198.338C650.866 196.774 650.673 195.67 650.287 195.027C649.902 194.385 649.361 194.063 648.664 194.063C647.968 194.063 647.443 194.385 647.089 195.027C646.736 195.66 646.559 196.758 646.559 198.322C646.559 199.897 646.741 201.006 647.105 201.649C647.47 202.291 648 202.613 648.696 202.613Z" fill="#989898"/>
<path d="M591.144 268.515C589.901 268.376 588.835 267.969 587.946 267.294C587.068 266.608 586.559 265.622 586.419 264.337H588.798C588.98 265.033 589.312 265.558 589.794 265.912C589.88 265.987 590.073 266.11 590.373 266.281C590.426 266.313 590.528 266.378 590.678 266.474C590.839 266.571 590.989 266.683 591.128 266.812L591.305 266.683C591.23 266.372 591.182 266.121 591.16 265.928C591.15 265.735 591.144 265.515 591.144 265.269V262.987C590.201 262.783 589.419 262.553 588.798 262.296C588.187 262.028 587.705 261.664 587.351 261.203C586.998 260.732 586.821 260.132 586.821 259.403C586.821 258.653 587.009 258.01 587.384 257.475C587.759 256.939 588.273 256.537 588.926 256.269C589.58 255.991 590.319 255.846 591.144 255.835V253.923H592.108V255.867C593.169 256.06 594.048 256.483 594.744 257.137C595.451 257.78 595.874 258.637 596.014 259.708H593.732C593.624 259.258 593.421 258.862 593.121 258.519L592.783 258.214C592.462 257.924 592.248 257.726 592.141 257.619L591.948 257.748C592.055 258.112 592.108 258.449 592.108 258.76V261.042C593.041 261.235 593.812 261.471 594.423 261.749C595.044 262.028 595.526 262.414 595.869 262.906C596.223 263.389 596.399 264.01 596.399 264.771C596.399 265.896 596.019 266.796 595.258 267.471C594.508 268.135 593.458 268.488 592.108 268.531V270.604H591.144V268.515ZM591.337 260.946C591.251 260.678 591.198 260.464 591.176 260.303C591.155 260.132 591.144 259.949 591.144 259.757V258.632C591.144 258.31 591.198 257.962 591.305 257.587L591.128 257.442C590.85 257.624 590.56 257.769 590.26 257.876L589.955 258.021C589.687 258.139 589.478 258.299 589.328 258.503C589.189 258.707 589.119 258.937 589.119 259.194C589.119 259.751 589.435 260.174 590.067 260.464C590.282 260.549 590.458 260.63 590.598 260.705C590.737 260.78 590.925 260.908 591.16 261.09L591.337 260.946ZM592.124 266.86C592.285 266.742 592.542 266.603 592.896 266.442C593.121 266.356 593.308 266.26 593.458 266.153C593.887 265.853 594.101 265.44 594.101 264.915C594.101 264.637 594.042 264.401 593.924 264.208C593.807 264.005 593.63 263.817 593.394 263.646C593.244 263.56 593.121 263.496 593.024 263.453C592.66 263.281 592.36 263.105 592.124 262.922L591.948 263.051C592.023 263.33 592.066 263.555 592.076 263.726C592.098 263.897 592.108 264.09 592.108 264.305V265.397C592.108 265.622 592.098 265.831 592.076 266.024C592.066 266.206 592.023 266.437 591.948 266.715L592.124 266.86ZM602.961 268.322V265.558H597.657V263.34L603.009 256.06H605.275V263.485H606.834V265.558H605.275V268.322H602.961ZM599.682 263.694C599.95 263.608 600.17 263.555 600.341 263.533C600.523 263.501 600.727 263.485 600.952 263.485H602.961V260.351C602.961 260.083 602.966 259.864 602.977 259.692C602.998 259.521 603.047 259.301 603.122 259.033L602.929 258.969C602.747 259.29 602.532 259.623 602.286 259.965L600.486 262.537C600.25 262.88 599.95 263.201 599.586 263.501L599.682 263.694ZM612.839 268.547C611.349 268.547 610.203 268.028 609.4 266.988C608.607 265.938 608.21 264.449 608.21 262.521C608.21 260.421 608.612 258.782 609.416 257.603C610.23 256.425 611.392 255.835 612.903 255.835C614.081 255.835 615.03 256.162 615.747 256.816C616.476 257.458 616.915 258.348 617.065 259.483H614.992C614.864 258.937 614.623 258.524 614.269 258.246C613.915 257.967 613.46 257.828 612.903 257.828C612.196 257.828 611.649 258.042 611.264 258.471C610.878 258.889 610.616 259.494 610.476 260.287C610.466 260.319 610.439 260.464 610.396 260.721C610.353 260.978 610.273 261.251 610.155 261.54L610.348 261.637C610.723 261.09 611.146 260.715 611.617 260.512C612.089 260.308 612.592 260.207 613.128 260.207C613.899 260.207 614.58 260.373 615.169 260.705C615.769 261.026 616.235 261.492 616.567 262.103C616.899 262.703 617.065 263.41 617.065 264.224C617.065 265.06 616.883 265.81 616.519 266.474C616.165 267.128 615.667 267.637 615.024 268.001C614.381 268.365 613.653 268.547 612.839 268.547ZM612.807 266.571C613.417 266.571 613.894 266.356 614.237 265.928C614.58 265.488 614.751 264.931 614.751 264.256C614.751 263.581 614.58 263.04 614.237 262.633C613.894 262.226 613.417 262.023 612.807 262.023C612.164 262.023 611.644 262.231 611.248 262.649C610.862 263.056 610.669 263.592 610.669 264.256C610.669 264.942 610.862 265.499 611.248 265.928C611.644 266.356 612.164 266.571 612.807 266.571ZM623.21 268.547C622.31 268.547 621.512 268.381 620.815 268.049C620.13 267.717 619.589 267.246 619.192 266.635C618.796 266.013 618.576 265.285 618.533 264.449H620.847C621.019 265.863 621.817 266.571 623.242 266.571C623.896 266.571 624.404 266.399 624.769 266.056C625.133 265.713 625.315 265.242 625.315 264.642C625.315 264.031 625.101 263.576 624.672 263.276C624.254 262.976 623.654 262.826 622.872 262.826H622.133V260.946H622.792C623.328 260.946 623.772 260.807 624.126 260.528C624.479 260.239 624.656 259.842 624.656 259.339C624.656 258.867 624.512 258.498 624.222 258.23C623.933 257.962 623.526 257.828 623.001 257.828C622.476 257.828 622.047 257.978 621.715 258.278C621.383 258.567 621.18 259.017 621.105 259.628H618.983C619.026 258.878 619.224 258.219 619.578 257.651C619.931 257.073 620.403 256.628 620.992 256.317C621.592 256.007 622.267 255.851 623.017 255.851C623.778 255.851 624.453 255.996 625.042 256.285C625.631 256.575 626.087 256.971 626.408 257.475C626.729 257.978 626.89 258.546 626.89 259.178C626.89 259.821 626.713 260.373 626.36 260.833C626.006 261.283 625.529 261.514 624.929 261.524V261.781C625.797 261.814 626.461 262.103 626.922 262.649C627.394 263.185 627.629 263.86 627.629 264.674C627.629 265.424 627.442 266.094 627.067 266.683C626.703 267.272 626.183 267.733 625.508 268.065C624.844 268.387 624.078 268.547 623.21 268.547Z" fill="white"/>
<path d="M629.222 269.945C629.833 269.903 630.293 269.72 630.604 269.399C630.915 269.088 631.043 268.665 630.99 268.129H630.797C630.722 268.376 630.524 268.499 630.202 268.499C629.913 268.499 629.661 268.387 629.447 268.162C629.233 267.926 629.126 267.626 629.126 267.262C629.126 266.865 629.254 266.544 629.511 266.297C629.768 266.051 630.106 265.928 630.524 265.928C631.049 265.928 631.456 266.126 631.745 266.522C632.034 266.908 632.179 267.422 632.179 268.065C632.179 268.847 631.938 269.522 631.456 270.09C630.974 270.669 630.229 270.99 629.222 271.054V269.945ZM638.775 268.322V265.558H633.471V263.34L638.823 256.06H641.089V263.485H642.648V265.558H641.089V268.322H638.775ZM635.496 263.694C635.764 263.608 635.984 263.555 636.155 263.533C636.337 263.501 636.541 263.485 636.766 263.485H638.775V260.351C638.775 260.083 638.78 259.864 638.791 259.692C638.812 259.521 638.86 259.301 638.935 259.033L638.743 258.969C638.56 259.29 638.346 259.623 638.1 259.965L636.3 262.537C636.064 262.88 635.764 263.201 635.4 263.501L635.496 263.694ZM648.603 268.547C647.703 268.547 646.905 268.381 646.208 268.049C645.523 267.717 644.982 267.246 644.585 266.635C644.189 266.013 643.969 265.285 643.926 264.449H646.241C646.412 265.863 647.21 266.571 648.635 266.571C649.289 266.571 649.797 266.399 650.162 266.056C650.526 265.713 650.708 265.242 650.708 264.642C650.708 264.031 650.494 263.576 650.065 263.276C649.648 262.976 649.048 262.826 648.265 262.826H647.526V260.946H648.185C648.721 260.946 649.165 260.807 649.519 260.528C649.872 260.239 650.049 259.842 650.049 259.339C650.049 258.867 649.905 258.498 649.615 258.23C649.326 257.962 648.919 257.828 648.394 257.828C647.869 257.828 647.44 257.978 647.108 258.278C646.776 258.567 646.573 259.017 646.498 259.628H644.376C644.419 258.878 644.617 258.219 644.971 257.651C645.324 257.073 645.796 256.628 646.385 256.317C646.985 256.007 647.66 255.851 648.41 255.851C649.171 255.851 649.846 255.996 650.435 256.285C651.024 256.575 651.48 256.971 651.801 257.475C652.122 257.978 652.283 258.546 652.283 259.178C652.283 259.821 652.106 260.373 651.753 260.833C651.399 261.283 650.922 261.514 650.322 261.524V261.781C651.19 261.814 651.855 262.103 652.315 262.649C652.787 263.185 653.022 263.86 653.022 264.674C653.022 265.424 652.835 266.094 652.46 266.683C652.096 267.272 651.576 267.733 650.901 268.065C650.237 268.387 649.471 268.547 648.603 268.547Z" fill="#989898"/>
<path d="M59.1482 119.884H61.0325L65.1526 127.956C65.3776 128.387 65.5557 128.832 65.687 129.291L65.912 129.249C65.8745 128.837 65.8557 128.41 65.8557 127.97V119.884H67.1354V130.613H65.2511L61.1309 122.542C61.0091 122.298 60.9106 122.087 60.8356 121.909C60.7606 121.731 60.6856 121.506 60.6106 121.234L60.3856 121.276C60.4231 121.689 60.4419 122.12 60.4419 122.57V130.613H59.1482V119.884ZM68.451 130.613L72.4024 119.884H73.8649L77.8163 130.613H76.5085L75.5664 127.984H70.7009L69.7588 130.613H68.451ZM75.1304 126.831L73.4993 122.232C73.4149 121.989 73.3493 121.787 73.3024 121.628C73.2649 121.468 73.2461 121.29 73.2461 121.093H73.0212C73.0212 121.29 72.9977 121.468 72.9508 121.628C72.9133 121.787 72.8524 121.989 72.768 122.232L71.1369 126.831H75.1304ZM79.1287 119.884H81.449L83.9239 127.717C84.0364 128.073 84.1113 128.359 84.1488 128.574C84.1957 128.79 84.2192 129.085 84.2192 129.46H84.4441C84.4441 129.085 84.4629 128.79 84.5004 128.574C84.5473 128.359 84.627 128.073 84.7394 127.717L87.2143 119.884H89.5486V130.613H88.2549V122.317C88.2549 121.895 88.2737 121.417 88.3112 120.882L88.0862 120.854C88.0018 121.332 87.8753 121.82 87.7065 122.317L84.9785 130.613H83.6989L80.9427 122.317C80.8021 121.886 80.6802 121.398 80.5771 120.854L80.3662 120.882C80.4037 121.417 80.4224 121.895 80.4224 122.317V130.613H79.1287V119.884ZM91.7762 130.613V119.884H98.7088V121.051H93.0699V124.651H98.0478V125.804H93.0699V129.446H98.7088V130.613H91.7762Z" fill="#868686"/>
<path d="M251.156 130.613V121.051H247.528V119.884H256.092V121.051H252.45V130.613H251.156ZM260.363 126.507L256.341 119.884H257.846L260.475 124.314C260.653 124.614 260.771 124.829 260.827 124.96C260.883 125.092 260.911 125.27 260.911 125.495H261.136C261.136 125.27 261.164 125.087 261.221 124.946C261.286 124.796 261.403 124.581 261.572 124.299L264.216 119.884H265.692L261.713 126.507V130.613H260.363V126.507ZM266.871 119.884H270.865C271.924 119.884 272.754 120.147 273.354 120.672C273.963 121.187 274.268 121.946 274.268 122.95C274.268 123.924 273.958 124.693 273.339 125.256C272.73 125.809 271.905 126.085 270.865 126.085H268.165V130.613H266.871V119.884ZM270.696 124.932C271.436 124.932 272.004 124.768 272.397 124.44C272.791 124.103 272.988 123.62 272.988 122.992C272.988 122.373 272.786 121.895 272.383 121.557C271.98 121.22 271.418 121.051 270.696 121.051H268.165V124.932H270.696ZM275.866 130.613V119.884H282.798V121.051H277.159V124.651H282.137V125.804H277.159V129.446H282.798V130.613H275.866Z" fill="#868686"/>
<path d="M414.575 130.754C413.432 130.754 412.452 130.473 411.636 129.91C410.83 129.348 410.343 128.499 410.174 127.365H411.482C411.641 128.152 412.011 128.724 412.593 129.081C413.183 129.427 413.863 129.601 414.631 129.601C415.4 129.601 415.991 129.441 416.403 129.123C416.825 128.804 417.036 128.331 417.036 127.702C417.036 127.224 416.905 126.849 416.642 126.578C416.38 126.296 416.052 126.09 415.658 125.959C415.264 125.818 414.735 125.678 414.069 125.537C413.319 125.378 412.714 125.218 412.255 125.059C411.796 124.89 411.407 124.618 411.088 124.243C410.769 123.868 410.61 123.353 410.61 122.696C410.61 122.096 410.755 121.576 411.046 121.136C411.346 120.686 411.758 120.343 412.283 120.109C412.817 119.865 413.432 119.743 414.125 119.743C415.11 119.743 415.963 120.001 416.685 120.517C417.406 121.023 417.852 121.796 418.02 122.837H416.769C416.628 122.153 416.314 121.661 415.827 121.361C415.339 121.051 414.767 120.896 414.111 120.896C413.399 120.896 412.85 121.046 412.466 121.346C412.091 121.646 411.903 122.059 411.903 122.584C411.903 122.996 412.021 123.325 412.255 123.568C412.499 123.803 412.799 123.981 413.155 124.103C413.521 124.224 414.017 124.351 414.646 124.482C415.442 124.651 416.085 124.829 416.572 125.017C417.06 125.195 417.472 125.49 417.809 125.903C418.156 126.315 418.33 126.887 418.33 127.618C418.33 128.584 418.002 129.348 417.345 129.91C416.699 130.473 415.775 130.754 414.575 130.754ZM422.471 130.613V121.051H418.843V119.884H427.407V121.051H423.765V130.613H422.471ZM426.465 130.613L430.416 119.884H431.879L435.83 130.613H434.522L433.58 127.984H428.715L427.773 130.613H426.465ZM433.144 126.831L431.513 122.232C431.429 121.989 431.363 121.787 431.316 121.628C431.279 121.468 431.26 121.29 431.26 121.093H431.035C431.035 121.29 431.012 121.468 430.965 121.628C430.927 121.787 430.866 121.989 430.782 122.232L429.151 126.831H433.144ZM438.552 130.613V121.051H434.924V119.884H443.488V121.051H439.846V130.613H438.552ZM448.673 130.754C447.351 130.754 446.357 130.416 445.692 129.741C445.026 129.066 444.693 128.12 444.693 126.901V119.884H445.987V126.901C445.987 127.763 446.207 128.429 446.648 128.898C447.088 129.366 447.763 129.601 448.673 129.601C449.582 129.601 450.257 129.366 450.698 128.898C451.138 128.429 451.358 127.763 451.358 126.901V119.884H452.652V126.901C452.652 128.12 452.319 129.066 451.654 129.741C450.988 130.416 449.994 130.754 448.673 130.754ZM458.67 130.754C457.526 130.754 456.546 130.473 455.731 129.91C454.925 129.348 454.437 128.499 454.268 127.365H455.576C455.736 128.152 456.106 128.724 456.687 129.081C457.278 129.427 457.957 129.601 458.726 129.601C459.495 129.601 460.085 129.441 460.498 129.123C460.92 128.804 461.131 128.331 461.131 127.702C461.131 127.224 460.999 126.849 460.737 126.578C460.474 126.296 460.146 126.09 459.753 125.959C459.359 125.818 458.829 125.678 458.164 125.537C457.414 125.378 456.809 125.218 456.35 125.059C455.89 124.89 455.501 124.618 455.182 124.243C454.864 123.868 454.704 123.353 454.704 122.696C454.704 122.096 454.85 121.576 455.14 121.136C455.44 120.686 455.853 120.343 456.378 120.109C456.912 119.865 457.526 119.743 458.22 119.743C459.204 119.743 460.057 120.001 460.779 120.517C461.501 121.023 461.946 121.796 462.115 122.837H460.863C460.723 122.153 460.409 121.661 459.921 121.361C459.434 121.051 458.862 120.896 458.206 120.896C457.493 120.896 456.945 121.046 456.56 121.346C456.186 121.646 455.998 122.059 455.998 122.584C455.998 122.996 456.115 123.325 456.35 123.568C456.593 123.803 456.893 123.981 457.25 124.103C457.615 124.224 458.112 124.351 458.74 124.482C459.537 124.651 460.179 124.829 460.667 125.017C461.154 125.195 461.567 125.49 461.904 125.903C462.251 126.315 462.424 126.887 462.424 127.618C462.424 128.584 462.096 129.348 461.44 129.91C460.793 130.473 459.87 130.754 458.67 130.754Z" fill="#868686"/>
<path d="M586.968 130.613V119.884H588.261V130.613H586.968ZM590.497 119.884H592.381L596.501 127.956C596.726 128.387 596.905 128.832 597.036 129.291L597.261 129.249C597.223 128.837 597.205 128.41 597.205 127.97V119.884H598.484V130.613H596.6L592.48 122.542C592.358 122.298 592.259 122.087 592.184 121.909C592.109 121.731 592.034 121.506 591.959 121.234L591.734 121.276C591.772 121.689 591.791 122.12 591.791 122.57V130.613H590.497V119.884ZM605.256 130.754C604.168 130.754 603.254 130.505 602.514 130.009C601.773 129.502 601.22 128.832 600.854 127.998C600.489 127.163 600.306 126.245 600.306 125.242C600.306 124.239 600.489 123.32 600.854 122.485C601.22 121.651 601.773 120.986 602.514 120.489C603.254 119.992 604.168 119.743 605.256 119.743C606.034 119.743 606.728 119.875 607.337 120.137C607.946 120.4 608.439 120.765 608.813 121.234C609.188 121.703 609.432 122.242 609.545 122.851H608.139C608.007 122.251 607.679 121.778 607.154 121.431C606.639 121.075 605.996 120.896 605.228 120.896C604.45 120.896 603.789 121.084 603.245 121.459C602.701 121.825 602.289 122.335 602.008 122.992C601.736 123.648 601.6 124.398 601.6 125.242C601.6 126.095 601.736 126.849 602.008 127.506C602.289 128.162 602.701 128.677 603.245 129.052C603.789 129.418 604.45 129.601 605.228 129.601C606.015 129.601 606.662 129.413 607.168 129.038C607.684 128.654 608.007 128.096 608.139 127.365H609.545C609.376 128.415 608.912 129.245 608.153 129.854C607.403 130.454 606.437 130.754 605.256 130.754ZM615.803 130.754C614.725 130.754 613.811 130.505 613.061 130.009C612.311 129.512 611.748 128.846 611.373 128.012C611.008 127.168 610.825 126.245 610.825 125.242C610.825 124.239 611.008 123.32 611.373 122.485C611.748 121.651 612.311 120.986 613.061 120.489C613.811 119.992 614.725 119.743 615.803 119.743C616.89 119.743 617.809 119.992 618.559 120.489C619.318 120.986 619.881 121.651 620.246 122.485C620.621 123.31 620.809 124.229 620.809 125.242C620.809 126.254 620.621 127.177 620.246 128.012C619.881 128.846 619.318 129.512 618.559 130.009C617.809 130.505 616.89 130.754 615.803 130.754ZM615.803 129.587C616.59 129.587 617.261 129.404 617.814 129.038C618.376 128.663 618.798 128.148 619.079 127.492C619.37 126.835 619.515 126.085 619.515 125.242C619.515 124.398 619.37 123.653 619.079 123.006C618.798 122.35 618.376 121.839 617.814 121.473C617.261 121.098 616.59 120.911 615.803 120.911C615.025 120.911 614.359 121.098 613.806 121.473C613.253 121.839 612.831 122.35 612.541 123.006C612.259 123.653 612.119 124.398 612.119 125.242C612.119 126.085 612.259 126.835 612.541 127.492C612.831 128.148 613.253 128.663 613.806 129.038C614.359 129.404 615.025 129.587 615.803 129.587ZM622.631 119.884H624.951L627.426 127.717C627.538 128.073 627.613 128.359 627.651 128.574C627.698 128.79 627.721 129.085 627.721 129.46H627.946C627.946 129.085 627.965 128.79 628.002 128.574C628.049 128.359 628.129 128.073 628.241 127.717L630.716 119.884H633.051V130.613H631.757V122.317C631.757 121.895 631.776 121.417 631.813 120.882L631.588 120.854C631.504 121.332 631.377 121.82 631.208 122.317L628.48 130.613H627.201L624.445 122.317C624.304 121.886 624.182 121.398 624.079 120.854L623.868 120.882C623.906 121.417 623.924 121.895 623.924 122.317V130.613H622.631V119.884ZM635.278 130.613V119.884H642.211V121.051H636.572V124.651H641.55V125.804H636.572V129.446H642.211V130.613H635.278Z" fill="#868686"/>
<rect x="34" y="152.535" width="619.963" height="0.997826" fill="#282928"/>
<rect x="409.583" y="180.473" width="64.0995" height="35.9217" rx="4.01769" fill="#1F1F1F"/>
<path d="M422.695 192.197H427.548C429.048 192.197 430.13 192.529 430.794 193.193C431.298 193.708 431.55 194.399 431.55 195.267C431.55 196.038 431.362 196.67 430.987 197.163C430.612 197.645 430.13 197.886 429.541 197.886V198.143C430.034 198.143 430.478 198.256 430.875 198.481C431.271 198.706 431.587 199.027 431.823 199.445C432.059 199.863 432.176 200.345 432.176 200.891C432.176 202.006 431.812 202.873 431.084 203.495C430.612 203.87 430.071 204.127 429.46 204.266C428.86 204.395 428.293 204.459 427.757 204.459H422.695V192.197ZM427.403 197.291C428.003 197.291 428.453 197.163 428.753 196.906C429.064 196.638 429.219 196.258 429.219 195.765C429.219 195.293 429.075 194.94 428.785 194.704C428.443 194.415 427.859 194.27 427.034 194.27H425.009V197.291H427.403ZM427.468 202.386C427.875 202.386 428.239 202.354 428.561 202.289C428.893 202.225 429.171 202.097 429.396 201.904C429.696 201.657 429.846 201.261 429.846 200.714C429.846 200.082 429.653 199.67 429.268 199.477C428.882 199.273 428.368 199.172 427.725 199.172H425.009V202.386H427.468ZM436.953 204.636C435.55 204.636 434.612 204.138 434.141 203.141C433.97 202.788 433.862 202.429 433.82 202.064C433.777 201.689 433.755 201.213 433.755 200.634V195.443H435.925V200.65C435.925 201.111 435.957 201.486 436.021 201.775C436.096 202.054 436.209 202.279 436.359 202.45C436.594 202.718 436.975 202.852 437.5 202.852C438.11 202.852 438.571 202.67 438.882 202.306C439.064 202.102 439.193 201.823 439.268 201.47C439.353 201.106 439.396 200.623 439.396 200.023V195.443H441.566V204.459H439.396V204.17C439.396 204.009 439.412 203.875 439.444 203.768C439.487 203.65 439.551 203.532 439.637 203.414L439.412 203.27C439.069 203.763 438.705 204.116 438.319 204.33C437.934 204.534 437.478 204.636 436.953 204.636ZM447.455 204.636C446.34 204.636 445.376 204.368 444.562 203.832C443.748 203.297 443.271 202.493 443.132 201.422H445.269C445.408 201.904 445.665 202.279 446.04 202.547C446.415 202.804 446.882 202.932 447.439 202.932C447.91 202.932 448.29 202.841 448.58 202.659C448.88 202.477 449.03 202.22 449.03 201.888C449.03 201.523 448.853 201.261 448.499 201.1C448.156 200.939 447.621 200.789 446.892 200.65C446.196 200.511 445.617 200.361 445.157 200.2C444.696 200.04 444.305 199.782 443.983 199.429C443.662 199.065 443.501 198.572 443.501 197.95C443.501 197.061 443.828 196.391 444.482 195.941C445.146 195.481 445.982 195.25 446.989 195.25C448.049 195.25 448.928 195.518 449.624 196.054C450.331 196.59 450.765 197.345 450.926 198.32H448.885C448.767 197.849 448.537 197.506 448.194 197.291C447.851 197.066 447.444 196.954 446.973 196.954C446.544 196.954 446.201 197.04 445.944 197.211C445.698 197.372 445.574 197.591 445.574 197.87C445.574 198.202 445.74 198.438 446.073 198.577C446.405 198.716 446.93 198.856 447.648 198.995C448.387 199.134 448.987 199.284 449.447 199.445C449.919 199.595 450.321 199.852 450.653 200.216C450.996 200.581 451.167 201.084 451.167 201.727C451.167 202.616 450.835 203.323 450.171 203.848C449.517 204.373 448.612 204.636 447.455 204.636ZM452.954 205.873H453.934C454.255 205.873 454.496 205.825 454.657 205.729C454.829 205.643 454.973 205.445 455.091 205.134L455.332 204.491L452.005 195.443H454.352L456.104 200.923C456.243 201.331 456.318 201.706 456.329 202.048H456.537C456.548 201.77 456.612 201.395 456.73 200.923L458.353 195.443H460.684L457.18 205.52C456.902 206.323 456.559 206.886 456.152 207.207C455.755 207.539 455.188 207.705 454.448 207.705H452.954V205.873Z" fill="white"/>
<rect x="409.583" y="244.334" width="96.1493" height="35.9217" rx="4.01769" fill="#1F1F1F"/>
<path d="M421.714 268.322L426.037 256.06H428.577L432.9 268.322H430.473L429.637 265.799H424.961L424.141 268.322H421.714ZM428.994 263.774L427.725 259.933C427.532 259.312 427.436 258.792 427.436 258.374H427.178C427.178 258.76 427.077 259.28 426.873 259.933L425.62 263.774H428.994ZM432.357 259.307H434.671L436.15 263.822C436.246 264.133 436.31 264.412 436.342 264.658C436.385 264.905 436.417 265.188 436.439 265.51H436.632C436.632 265.446 436.642 265.306 436.664 265.092C436.685 264.867 436.717 264.653 436.76 264.449C436.803 264.235 436.857 264.026 436.921 263.822L438.432 259.307H440.746L437.403 268.322H435.683L432.357 259.307ZM444.27 268.499C443.391 268.499 442.679 268.269 442.132 267.808C441.586 267.337 441.313 266.683 441.313 265.847C441.313 264.947 441.656 264.262 442.341 263.79C442.834 263.447 443.536 263.19 444.446 263.019L447.13 262.521C447.13 261.985 446.986 261.562 446.696 261.251C446.429 260.962 446.027 260.817 445.491 260.817C445.073 260.817 444.704 260.94 444.382 261.187C444.071 261.433 443.879 261.765 443.804 262.183H441.65C441.8 261.187 442.239 260.426 442.968 259.901C443.696 259.376 444.543 259.114 445.507 259.114C446.054 259.114 446.562 259.194 447.034 259.355C447.505 259.505 447.907 259.73 448.239 260.03C448.571 260.319 448.812 260.657 448.962 261.042C449.112 261.428 449.203 261.814 449.236 262.199C449.278 262.585 449.3 263.062 449.3 263.63V268.322H447.13V268.065C447.13 267.787 447.2 267.503 447.339 267.213L447.098 267.085C446.905 267.481 446.637 267.792 446.295 268.017C445.812 268.338 445.137 268.499 444.27 268.499ZM444.8 266.796C445.196 266.796 445.582 266.71 445.957 266.538C446.3 266.378 446.573 266.142 446.777 265.831C446.873 265.671 446.948 265.515 447.002 265.365C447.055 265.205 447.114 264.985 447.178 264.706C447.2 264.578 447.232 264.487 447.275 264.433C447.328 264.369 447.403 264.331 447.5 264.321L447.452 264.064C446.595 264.235 446.043 264.347 445.796 264.401L445.025 264.546C444.446 264.653 444.029 264.824 443.771 265.06C443.579 265.253 443.482 265.488 443.482 265.767C443.482 266.099 443.6 266.356 443.836 266.538C444.082 266.71 444.404 266.796 444.8 266.796ZM451.161 268.322V259.307H453.331V268.322H451.161ZM452.254 258.31C451.879 258.31 451.563 258.198 451.306 257.973C451.049 257.748 450.92 257.448 450.92 257.073C450.92 256.719 451.049 256.425 451.306 256.189C451.563 255.953 451.879 255.835 452.254 255.835C452.618 255.835 452.929 255.953 453.186 256.189C453.454 256.425 453.588 256.719 453.588 257.073C453.588 257.437 453.459 257.737 453.202 257.973C452.945 258.198 452.629 258.31 452.254 258.31ZM457.361 268.322C456.676 268.322 456.156 268.167 455.803 267.856C455.449 267.535 455.272 267.031 455.272 266.346V256.06H457.442V265.703C457.442 266.003 457.495 266.217 457.603 266.346C457.72 266.463 457.913 266.522 458.181 266.522H458.76V268.322H457.361ZM462.757 268.499C461.879 268.499 461.166 268.269 460.62 267.808C460.074 267.337 459.8 266.683 459.8 265.847C459.8 264.947 460.143 264.262 460.829 263.79C461.322 263.447 462.023 263.19 462.934 263.019L465.618 262.521C465.618 261.985 465.473 261.562 465.184 261.251C464.916 260.962 464.514 260.817 463.979 260.817C463.561 260.817 463.191 260.94 462.87 261.187C462.559 261.433 462.366 261.765 462.291 262.183H460.138C460.288 261.187 460.727 260.426 461.456 259.901C462.184 259.376 463.031 259.114 463.995 259.114C464.541 259.114 465.05 259.194 465.522 259.355C465.993 259.505 466.395 259.73 466.727 260.03C467.059 260.319 467.3 260.657 467.45 261.042C467.6 261.428 467.691 261.814 467.723 262.199C467.766 262.585 467.787 263.062 467.787 263.63V268.322H465.618V268.065C465.618 267.787 465.688 267.503 465.827 267.213L465.586 267.085C465.393 267.481 465.125 267.792 464.782 268.017C464.3 268.338 463.625 268.499 462.757 268.499ZM463.288 266.796C463.684 266.796 464.07 266.71 464.445 266.538C464.788 266.378 465.061 266.142 465.264 265.831C465.361 265.671 465.436 265.515 465.489 265.365C465.543 265.205 465.602 264.985 465.666 264.706C465.688 264.578 465.72 264.487 465.763 264.433C465.816 264.369 465.891 264.331 465.988 264.321L465.939 264.064C465.082 264.235 464.53 264.347 464.284 264.401L463.513 264.546C462.934 264.653 462.516 264.824 462.259 265.06C462.066 265.253 461.97 265.488 461.97 265.767C461.97 266.099 462.088 266.356 462.323 266.538C462.57 266.71 462.891 266.796 463.288 266.796ZM474.39 268.499C473.811 268.499 473.324 268.397 472.927 268.194C472.531 267.99 472.161 267.637 471.818 267.133L471.593 267.278C471.679 267.396 471.738 267.513 471.77 267.631C471.813 267.738 471.834 267.872 471.834 268.033V268.322H469.665V256.06H471.834V259.596C471.834 259.757 471.813 259.89 471.77 259.998C471.738 260.105 471.679 260.217 471.593 260.335L471.818 260.496C472.161 259.992 472.531 259.639 472.927 259.435C473.324 259.221 473.811 259.114 474.39 259.114C475.172 259.114 475.863 259.312 476.463 259.708C477.063 260.105 477.529 260.662 477.861 261.38C478.193 262.087 478.359 262.896 478.359 263.806C478.359 264.717 478.193 265.531 477.861 266.249C477.529 266.956 477.063 267.508 476.463 267.904C475.863 268.301 475.172 268.499 474.39 268.499ZM473.891 266.635C474.577 266.635 475.129 266.372 475.547 265.847C475.965 265.312 476.174 264.631 476.174 263.806C476.174 262.981 475.965 262.306 475.547 261.781C475.129 261.246 474.577 260.978 473.891 260.978C473.206 260.978 472.643 261.24 472.204 261.765C471.776 262.29 471.561 262.971 471.561 263.806C471.561 264.642 471.776 265.322 472.204 265.847C472.643 266.372 473.206 266.635 473.891 266.635ZM482.033 268.322C481.347 268.322 480.827 268.167 480.474 267.856C480.12 267.535 479.943 267.031 479.943 266.346V256.06H482.113V265.703C482.113 266.003 482.167 266.217 482.274 266.346C482.391 266.463 482.584 266.522 482.852 266.522H483.431V268.322H482.033ZM488.769 268.499C487.858 268.499 487.055 268.301 486.359 267.904C485.662 267.508 485.121 266.962 484.735 266.265C484.36 265.558 484.173 264.76 484.173 263.871C484.173 263.046 484.339 262.274 484.671 261.556C485.014 260.828 485.523 260.239 486.198 259.789C486.883 259.339 487.719 259.114 488.705 259.114C489.519 259.114 490.269 259.285 490.955 259.628C491.64 259.96 492.192 260.48 492.61 261.187C493.028 261.883 493.237 262.751 493.237 263.79V264.256H487.516C487.451 264.256 487.275 264.256 486.985 264.256C486.696 264.256 486.466 264.24 486.294 264.208L486.23 264.449C486.316 264.471 486.38 264.513 486.423 264.578C486.476 264.642 486.519 264.733 486.551 264.851C486.637 265.076 486.707 265.231 486.76 265.317C486.975 265.735 487.258 266.062 487.612 266.297C487.976 266.522 488.389 266.635 488.849 266.635C489.342 266.635 489.766 266.512 490.119 266.265C490.473 266.008 490.724 265.681 490.874 265.285H493.092C492.803 266.238 492.294 267.015 491.565 267.615C490.837 268.204 489.905 268.499 488.769 268.499ZM486.487 262.874C486.648 262.778 486.792 262.714 486.921 262.681C487.05 262.649 487.194 262.633 487.355 262.633H490.151C490.323 262.633 490.473 262.649 490.601 262.681C490.74 262.714 490.896 262.778 491.067 262.874L491.196 262.649C491.121 262.606 491.067 262.569 491.035 262.537C491.003 262.494 490.976 262.451 490.955 262.408C490.944 262.365 490.939 262.339 490.939 262.328C490.896 262.146 490.81 261.969 490.682 261.798C490.478 261.487 490.21 261.251 489.878 261.09C489.546 260.919 489.176 260.833 488.769 260.833C488.362 260.833 487.992 260.914 487.66 261.074C487.339 261.235 487.076 261.476 486.873 261.798C486.733 261.969 486.642 262.146 486.6 262.328C486.6 262.339 486.589 262.371 486.567 262.424C486.546 262.467 486.519 262.51 486.487 262.553C486.455 262.585 486.407 262.617 486.342 262.649L486.487 262.874Z" fill="white"/>
<path d="M639.941 73.7699C639.334 73.7699 638.741 73.5907 638.237 73.2549C637.732 72.9191 637.339 72.4418 637.107 71.8835C636.875 71.3251 636.814 70.7107 636.932 70.1179C637.051 69.5251 637.343 68.9806 637.772 68.5532C638.201 68.1259 638.747 67.8348 639.342 67.7169C639.937 67.599 640.554 67.6595 641.115 67.8908C641.675 68.1221 642.154 68.5138 642.491 69.0163C642.828 69.5188 643.008 70.1097 643.008 70.714C643.008 71.5245 642.685 72.3018 642.11 72.8749C641.534 73.4479 640.754 73.7699 639.941 73.7699ZM645.637 70.714C645.637 71.3184 645.817 71.9093 646.154 72.4118C646.491 72.9143 646.97 73.306 647.531 73.5373C648.091 73.7686 648.708 73.8291 649.303 73.7112C649.898 73.5933 650.444 73.3022 650.873 72.8749C651.302 72.4475 651.594 71.903 651.713 71.3102C651.831 70.7174 651.77 70.103 651.538 69.5446C651.306 68.9862 650.913 68.509 650.408 68.1732C649.904 67.8374 649.311 67.6582 648.704 67.6582C647.891 67.6582 647.111 67.9802 646.536 68.5532C645.96 69.1263 645.637 69.9036 645.637 70.714ZM634.244 70.714C634.244 70.1097 634.065 69.5188 633.728 69.0163C633.39 68.5138 632.911 68.1221 632.351 67.8908C631.791 67.6595 631.174 67.599 630.579 67.7169C629.984 67.8348 629.437 68.1259 629.008 68.5532C628.579 68.9806 628.287 69.5251 628.169 70.1179C628.051 70.7107 628.111 71.3251 628.343 71.8835C628.576 72.4418 628.969 72.9191 629.473 73.2549C629.978 73.5907 630.571 73.7699 631.177 73.7699C631.991 73.7699 632.771 73.4479 633.346 72.8749C633.921 72.3018 634.244 71.5245 634.244 70.714Z" fill="#5A5A5A"/>
</svg>
