<svg width="312" height="280" viewBox="0 0 312 280" fill="none" xmlns="http://www.w3.org/2000/svg">
<rect x="0.5" y="0.5" width="311" height="279" rx="7.5" fill="#1D1D1D" stroke="#282928"/>
<rect x="86" y="182" width="64" height="64" rx="8" fill="url(#paint0_linear_211_487)"/>
<rect x="10" y="182" width="64" height="64" rx="8" fill="url(#paint1_linear_211_487)"/>
<rect x="162" y="182" width="64" height="64" rx="8" fill="url(#paint2_linear_211_487)"/>
<rect x="238" y="182" width="64" height="64" rx="8" fill="url(#paint3_linear_211_487)"/>
<rect x="74" y="108" width="64" height="64" rx="8" transform="rotate(90 74 108)" fill="url(#paint4_linear_211_487)"/>
<rect x="162" y="108" width="64" height="64" rx="8" fill="#252525"/>
<rect x="86" y="108" width="64" height="64" rx="8" fill="#252525"/>
<rect width="64" height="64" rx="8" transform="matrix(0 1 1 0 238 108)" fill="url(#paint5_linear_211_487)"/>
<g filter="url(#filter0_bii_211_487)">
<rect x="162" y="108" width="64" height="64" rx="8" fill="#252525" fill-opacity="0.12"/>
</g>
<g filter="url(#filter1_bii_211_487)">
<rect x="86" y="108" width="64" height="64" rx="8" fill="#252525" fill-opacity="0.12"/>
</g>
<rect x="226" y="98" width="64" height="64" rx="8" transform="rotate(180 226 98)" fill="url(#paint6_linear_211_487)"/>
<rect x="302" y="98" width="64" height="64" rx="8" transform="rotate(180 302 98)" fill="url(#paint7_linear_211_487)"/>
<rect x="74" y="98" width="64" height="64" rx="8" transform="rotate(180 74 98)" fill="url(#paint8_linear_211_487)"/>
<rect x="150" y="98" width="64" height="64" rx="8" transform="rotate(180 150 98)" fill="url(#paint9_linear_211_487)"/>
<path d="M192 136H196V134.5C196 132.567 197.567 131 199.5 131C201.433 131 203 132.567 203 134.5C203 136.433 201.433 138 199.5 138H198V142H199.5C201.433 142 203 143.567 203 145.5C203 147.433 201.433 149 199.5 149C197.567 149 196 147.433 196 145.5V144H192V145.5C192 147.433 190.433 149 188.5 149C186.567 149 185 147.433 185 145.5C185 143.567 186.567 142 188.5 142H190V138H188.5C186.567 138 185 136.433 185 134.5C185 132.567 186.567 131 188.5 131C190.433 131 192 132.567 192 134.5V136ZM190 136V134.5C190 133.672 189.328 133 188.5 133C187.672 133 187 133.672 187 134.5C187 135.328 187.672 136 188.5 136H190ZM190 144H188.5C187.672 144 187 144.672 187 145.5C187 146.328 187.672 147 188.5 147C189.328 147 190 146.328 190 145.5V144ZM198 136H199.5C200.328 136 201 135.328 201 134.5C201 133.672 200.328 133 199.5 133C198.672 133 198 133.672 198 134.5V136ZM198 144V145.5C198 146.328 198.672 147 199.5 147C200.328 147 201 146.328 201 145.5C201 144.672 200.328 144 199.5 144H198ZM192 138V142H196V138H192Z" fill="#565656"/>
<path d="M110.904 150V130.4H114.488V138.324L121.74 130.4H126.164L118.94 138.184L126.36 150H121.964L116.364 140.928L114.488 142.972V150H110.904Z" fill="#565656"/>
<defs>
<filter id="filter0_bii_211_487" x="150.992" y="96.992" width="86.016" height="86.016" filterUnits="userSpaceOnUse" color-interpolation-filters="sRGB">
<feFlood flood-opacity="0" result="BackgroundImageFix"/>
<feGaussianBlur in="BackgroundImageFix" stdDeviation="5.504"/>
<feComposite in2="SourceAlpha" operator="in" result="effect1_backgroundBlur_211_487"/>
<feBlend mode="normal" in="SourceGraphic" in2="effect1_backgroundBlur_211_487" result="shape"/>
<feColorMatrix in="SourceAlpha" type="matrix" values="0 0 0 0 0 0 0 0 0 0 0 0 0 0 0 0 0 0 127 0" result="hardAlpha"/>
<feOffset dx="-4.26667" dy="4.26667"/>
<feGaussianBlur stdDeviation="2.13333"/>
<feComposite in2="hardAlpha" operator="arithmetic" k2="-1" k3="1"/>
<feColorMatrix type="matrix" values="0 0 0 0 1 0 0 0 0 1 0 0 0 0 1 0 0 0 0.12 0"/>
<feBlend mode="normal" in2="shape" result="effect2_innerShadow_211_487"/>
<feColorMatrix in="SourceAlpha" type="matrix" values="0 0 0 0 0 0 0 0 0 0 0 0 0 0 0 0 0 0 127 0" result="hardAlpha"/>
<feOffset dx="4.26667" dy="-4.26667"/>
<feGaussianBlur stdDeviation="2.13333"/>
<feComposite in2="hardAlpha" operator="arithmetic" k2="-1" k3="1"/>
<feColorMatrix type="matrix" values="0 0 0 0 0.110833 0 0 0 0 0.110833 0 0 0 0 0.110833 0 0 0 0.12 0"/>
<feBlend mode="normal" in2="effect2_innerShadow_211_487" result="effect3_innerShadow_211_487"/>
</filter>
<filter id="filter1_bii_211_487" x="74.992" y="96.992" width="86.016" height="86.016" filterUnits="userSpaceOnUse" color-interpolation-filters="sRGB">
<feFlood flood-opacity="0" result="BackgroundImageFix"/>
<feGaussianBlur in="BackgroundImageFix" stdDeviation="5.504"/>
<feComposite in2="SourceAlpha" operator="in" result="effect1_backgroundBlur_211_487"/>
<feBlend mode="normal" in="SourceGraphic" in2="effect1_backgroundBlur_211_487" result="shape"/>
<feColorMatrix in="SourceAlpha" type="matrix" values="0 0 0 0 0 0 0 0 0 0 0 0 0 0 0 0 0 0 127 0" result="hardAlpha"/>
<feOffset dx="-4.26667" dy="4.26667"/>
<feGaussianBlur stdDeviation="2.13333"/>
<feComposite in2="hardAlpha" operator="arithmetic" k2="-1" k3="1"/>
<feColorMatrix type="matrix" values="0 0 0 0 1 0 0 0 0 1 0 0 0 0 1 0 0 0 0.12 0"/>
<feBlend mode="normal" in2="shape" result="effect2_innerShadow_211_487"/>
<feColorMatrix in="SourceAlpha" type="matrix" values="0 0 0 0 0 0 0 0 0 0 0 0 0 0 0 0 0 0 127 0" result="hardAlpha"/>
<feOffset dx="4.26667" dy="-4.26667"/>
<feGaussianBlur stdDeviation="2.13333"/>
<feComposite in2="hardAlpha" operator="arithmetic" k2="-1" k3="1"/>
<feColorMatrix type="matrix" values="0 0 0 0 0.110833 0 0 0 0 0.110833 0 0 0 0 0.110833 0 0 0 0.12 0"/>
<feBlend mode="normal" in2="effect2_innerShadow_211_487" result="effect3_innerShadow_211_487"/>
</filter>
<linearGradient id="paint0_linear_211_487" x1="118" y1="182" x2="118" y2="246" gradientUnits="userSpaceOnUse">
<stop stop-color="#222222"/>
<stop offset="1" stop-color="#222222" stop-opacity="0"/>
</linearGradient>
<linearGradient id="paint1_linear_211_487" x1="42" y1="182" x2="42" y2="246" gradientUnits="userSpaceOnUse">
<stop stop-color="#222222"/>
<stop offset="1" stop-color="#222222" stop-opacity="0"/>
</linearGradient>
<linearGradient id="paint2_linear_211_487" x1="194" y1="182" x2="194" y2="246" gradientUnits="userSpaceOnUse">
<stop stop-color="#222222"/>
<stop offset="1" stop-color="#222222" stop-opacity="0"/>
</linearGradient>
<linearGradient id="paint3_linear_211_487" x1="270" y1="182" x2="270" y2="246" gradientUnits="userSpaceOnUse">
<stop stop-color="#222222"/>
<stop offset="1" stop-color="#222222" stop-opacity="0"/>
</linearGradient>
<linearGradient id="paint4_linear_211_487" x1="106" y1="108" x2="106" y2="172" gradientUnits="userSpaceOnUse">
<stop stop-color="#222222"/>
<stop offset="1" stop-color="#222222" stop-opacity="0"/>
</linearGradient>
<linearGradient id="paint5_linear_211_487" x1="32" y1="0" x2="32" y2="64" gradientUnits="userSpaceOnUse">
<stop stop-color="#222222"/>
<stop offset="1" stop-color="#222222" stop-opacity="0"/>
</linearGradient>
<linearGradient id="paint6_linear_211_487" x1="258" y1="98" x2="258" y2="162" gradientUnits="userSpaceOnUse">
<stop stop-color="#222222"/>
<stop offset="1" stop-color="#222222" stop-opacity="0"/>
</linearGradient>
<linearGradient id="paint7_linear_211_487" x1="334" y1="98" x2="334" y2="162" gradientUnits="userSpaceOnUse">
<stop stop-color="#222222"/>
<stop offset="1" stop-color="#222222" stop-opacity="0"/>
</linearGradient>
<linearGradient id="paint8_linear_211_487" x1="106" y1="98" x2="106" y2="162" gradientUnits="userSpaceOnUse">
<stop stop-color="#222222"/>
<stop offset="1" stop-color="#222222" stop-opacity="0"/>
</linearGradient>
<linearGradient id="paint9_linear_211_487" x1="182" y1="98" x2="182" y2="162" gradientUnits="userSpaceOnUse">
<stop stop-color="#222222"/>
<stop offset="1" stop-color="#222222" stop-opacity="0"/>
</linearGradient>
</defs>
</svg>
