<svg width="312" height="280" viewBox="0 0 312 280" fill="none" xmlns="http://www.w3.org/2000/svg">
<rect x="0.5" y="0.5" width="311" height="279" rx="7.5" fill="#1D1D1D" stroke="#282928"/>
<mask id="mask0_211_456" style="mask-type:alpha" maskUnits="userSpaceOnUse" x="0" y="0" width="312" height="280">
<rect x="0.5" y="0.5" width="311" height="279" rx="7.5" fill="#1D1D1D" stroke="#282928"/>
</mask>
<g mask="url(#mask0_211_456)">
<path d="M28.5 199C5.1705 208.484 -14 247.5 -14 247.5V329H322V48.5C322 48.5 305.965 80.3016 288 92.5C278.24 99.1267 270.008 98.0165 260.5 105C239.667 120.302 255.327 156.806 230.5 164C211.106 169.619 201.683 146.929 181.5 147.5C142.159 148.612 147.431 209.016 109 217.5C77.5017 224.454 58.3819 186.852 28.5 199Z" fill="url(#paint0_linear_211_456)" stroke="#E7D1B0"/>
<path d="M-22.8 263.953C-22.8 263.953 0.948257 227.542 25.2535 220.949C56.3851 212.505 70.8173 252.142 102.925 249.049C142.1 245.275 144.172 184.677 183.359 188.33C203.463 190.205 210.073 213.868 230.004 210.635C255.519 206.497 244.388 168.366 266.919 155.696C277.201 149.914 285.239 152.011 295.728 146.613C315.037 136.677 334.8 107.048 334.8 107.048" stroke="#3F3F3F"/>
</g>
<path d="M33 25.5C37.14 25.5 40.5 28.86 40.5 33C40.5 37.14 37.14 40.5 33 40.5C28.86 40.5 25.5 37.14 25.5 33C25.5 28.86 28.86 25.5 33 25.5ZM33 39C36.315 39 39 36.315 39 33C39 29.685 36.315 27 33 27C29.685 27 27 29.685 27 33C27 36.315 29.685 39 33 39ZM33.75 33V36H32.25V33H30L33 30L36 33H33.75Z" fill="white"/>
<path d="M54.6335 27.8182V38H53.4006V29.1108H53.3409L50.8551 30.7614V29.5085L53.4006 27.8182H54.6335ZM60.8232 38.1392C60.1404 38.1392 59.5372 38.0182 59.0135 37.7763C58.4931 37.531 58.0871 37.1946 57.7955 36.767C57.5038 36.3362 57.3596 35.8456 57.3629 35.2955C57.3596 34.8646 57.4441 34.4669 57.6165 34.1023C57.7888 33.7344 58.0241 33.4278 58.3224 33.1825C58.6241 32.9339 58.9605 32.7765 59.3317 32.7102V32.6506C58.8445 32.5246 58.4567 32.2512 58.1683 31.8303C57.88 31.406 57.7375 30.9238 57.7408 30.3835C57.7375 29.8665 57.8684 29.4041 58.1335 28.9964C58.3987 28.5888 58.7633 28.2673 59.2273 28.032C59.6946 27.7966 60.2266 27.679 60.8232 27.679C61.4131 27.679 61.9401 27.7966 62.4041 28.032C62.8681 28.2673 63.2327 28.5888 63.4979 28.9964C63.7663 29.4041 63.9022 29.8665 63.9055 30.3835C63.9022 30.9238 63.7547 31.406 63.4631 31.8303C63.1747 32.2512 62.7919 32.5246 62.3146 32.6506V32.7102C62.6825 32.7765 63.014 32.9339 63.3089 33.1825C63.6039 33.4278 63.8393 33.7344 64.0149 34.1023C64.1906 34.4669 64.2801 34.8646 64.2834 35.2955C64.2801 35.8456 64.1309 36.3362 63.8359 36.767C63.5443 37.1946 63.1383 37.531 62.6179 37.7763C62.1009 38.0182 61.5026 38.1392 60.8232 38.1392ZM60.8232 37.0455C61.2839 37.0455 61.6816 36.9709 62.0163 36.8217C62.3511 36.6726 62.6096 36.4621 62.7919 36.1903C62.9742 35.9186 63.067 35.6004 63.0703 35.2358C63.067 34.8513 62.9676 34.5116 62.772 34.2166C62.5765 33.9216 62.3097 33.6896 61.9716 33.5206C61.6368 33.3516 61.254 33.267 60.8232 33.267C60.389 33.267 60.0012 33.3516 59.6598 33.5206C59.3217 33.6896 59.0549 33.9216 58.8594 34.2166C58.6671 34.5116 58.5727 34.8513 58.576 35.2358C58.5727 35.6004 58.6605 35.9186 58.8395 36.1903C59.0218 36.4621 59.282 36.6726 59.62 36.8217C59.9581 36.9709 60.3591 37.0455 60.8232 37.0455ZM60.8232 32.2131C61.1877 32.2131 61.5109 32.1402 61.7926 31.9943C62.0777 31.8485 62.3014 31.6446 62.4638 31.3828C62.6262 31.121 62.709 30.8144 62.7124 30.4631C62.709 30.1184 62.6278 29.8184 62.4688 29.5632C62.3097 29.3047 62.0893 29.1058 61.8075 28.9666C61.5258 28.8241 61.1977 28.7528 60.8232 28.7528C60.442 28.7528 60.1089 28.8241 59.8239 28.9666C59.5388 29.1058 59.3184 29.3047 59.1626 29.5632C59.0069 29.8184 58.9306 30.1184 58.9339 30.4631C58.9306 30.8144 59.0085 31.121 59.1676 31.3828C59.33 31.6446 59.5537 31.8485 59.8388 31.9943C60.1238 32.1402 60.4519 32.2131 60.8232 32.2131ZM66.7493 38.0795C66.504 38.0795 66.2936 37.9917 66.1179 37.8161C65.9422 37.6404 65.8544 37.4299 65.8544 37.1847C65.8544 36.9394 65.9422 36.7289 66.1179 36.5533C66.2936 36.3776 66.504 36.2898 66.7493 36.2898C66.9946 36.2898 67.205 36.3776 67.3807 36.5533C67.5563 36.7289 67.6442 36.9394 67.6442 37.1847C67.6442 37.3471 67.6027 37.4962 67.5199 37.6321C67.4403 37.768 67.3326 37.8774 67.1967 37.9602C67.0642 38.0398 66.915 38.0795 66.7493 38.0795ZM72.0925 27.8182V38H70.8596V29.1108H70.7999L68.3141 30.7614V29.5085L70.8596 27.8182H72.0925ZM74.7821 35.9119V34.8977L79.2566 27.8182H79.9924V29.3892H79.4952L76.1145 34.7386V34.8182H82.1401V35.9119H74.7821ZM79.5748 38V35.6037V35.1314V27.8182H80.748V38H79.5748ZM89.1935 36.0909V35.554C89.1935 35.1828 89.2698 34.843 89.4222 34.5348C89.578 34.2232 89.8034 33.9747 90.0984 33.7891C90.3967 33.6001 90.7579 33.5057 91.1822 33.5057C91.613 33.5057 91.9743 33.6001 92.266 33.7891C92.5576 33.9747 92.7781 34.2232 92.9272 34.5348C93.0763 34.843 93.1509 35.1828 93.1509 35.554V36.0909C93.1509 36.4621 93.0747 36.8035 92.9222 37.1151C92.7731 37.4233 92.551 37.6719 92.256 37.8608C91.9644 38.0464 91.6064 38.1392 91.1822 38.1392C90.7513 38.1392 90.3884 38.0464 90.0934 37.8608C89.7984 37.6719 89.5747 37.4233 89.4222 37.1151C89.2698 36.8035 89.1935 36.4621 89.1935 36.0909ZM90.2077 35.554V36.0909C90.2077 36.3991 90.2807 36.6759 90.4265 36.9212C90.5723 37.1631 90.8242 37.2841 91.1822 37.2841C91.5302 37.2841 91.7754 37.1631 91.918 36.9212C92.0638 36.6759 92.1367 36.3991 92.1367 36.0909V35.554C92.1367 35.2457 92.0671 34.9706 91.9279 34.7287C91.7887 34.4834 91.5401 34.3608 91.1822 34.3608C90.8342 34.3608 90.5839 34.4834 90.4315 34.7287C90.2823 34.9706 90.2077 35.2457 90.2077 35.554ZM84.1225 30.2642V29.7273C84.1225 29.3561 84.1987 29.0163 84.3512 28.7081C84.507 28.3965 84.7324 28.148 85.0273 27.9624C85.3256 27.7734 85.6869 27.679 86.1112 27.679C86.542 27.679 86.9033 27.7734 87.195 27.9624C87.4866 28.148 87.707 28.3965 87.8562 28.7081C88.0053 29.0163 88.0799 29.3561 88.0799 29.7273V30.2642C88.0799 30.6354 88.0037 30.9768 87.8512 31.2884C87.7021 31.5966 87.48 31.8452 87.185 32.0341C86.8933 32.2197 86.5354 32.3125 86.1112 32.3125C85.6803 32.3125 85.3174 32.2197 85.0224 32.0341C84.7274 31.8452 84.5037 31.5966 84.3512 31.2884C84.1987 30.9768 84.1225 30.6354 84.1225 30.2642ZM85.1367 29.7273V30.2642C85.1367 30.5724 85.2096 30.8492 85.3555 31.0945C85.5013 31.3364 85.7532 31.4574 86.1112 31.4574C86.4592 31.4574 86.7044 31.3364 86.8469 31.0945C86.9928 30.8492 87.0657 30.5724 87.0657 30.2642V29.7273C87.0657 29.419 86.9961 29.1439 86.8569 28.902C86.7177 28.6567 86.4691 28.5341 86.1112 28.5341C85.7631 28.5341 85.5129 28.6567 85.3604 28.902C85.2113 29.1439 85.1367 29.419 85.1367 29.7273ZM84.5004 38L91.5004 27.8182H92.6339L85.6339 38H84.5004Z" fill="white"/>
<circle cx="182" cy="147" r="5" fill="#E7D1B0"/>
<defs>
<linearGradient id="paint0_linear_211_456" x1="154" y1="48.5" x2="154" y2="329" gradientUnits="userSpaceOnUse">
<stop stop-color="#E7D1B0" stop-opacity="0.1"/>
<stop offset="1" stop-color="#E7D1B0" stop-opacity="0"/>
</linearGradient>
</defs>
</svg>
