<svg width="1024" height="1024" viewBox="0 0 1024 1024" fill="none" xmlns="http://www.w3.org/2000/svg">
<rect width="1024" height="1024" rx="512" fill="#3E63DD"/>
<path d="M514.627 744.727V279.273M672.581 366.545C696.681 366.545 716.218 347.009 716.218 322.909C716.218 298.809 696.681 279.273 672.581 279.273C648.482 279.273 628.945 298.809 628.945 322.909C628.945 347.009 648.482 366.545 672.581 366.545ZM672.581 366.545V424.727L614.4 471.273V552.727L672.581 599.273V657.454M672.581 657.454C648.482 657.454 628.945 676.991 628.945 701.091C628.945 725.19 648.482 744.727 672.581 744.727C696.681 744.727 716.218 725.19 716.218 701.091C716.218 676.991 696.681 657.454 672.581 657.454ZM352.582 366.545C328.482 366.545 308.945 347.009 308.945 322.909C308.945 298.809 328.482 279.273 352.582 279.273C376.681 279.273 396.218 298.809 396.218 322.909C396.218 347.009 376.681 366.545 352.582 366.545ZM352.582 366.545V424.727L410.764 471.273V552.727L352.582 599.273V657.454M352.582 657.454C376.681 657.454 396.218 676.991 396.218 701.091C396.218 725.19 376.681 744.727 352.582 744.727C328.482 744.727 308.945 725.19 308.945 701.091C308.945 676.991 328.482 657.454 352.582 657.454ZM556.218 235.636C556.218 259.736 536.682 279.273 512.582 279.273C488.482 279.273 468.945 259.736 468.945 235.636C468.945 211.537 488.482 192 512.582 192C536.682 192 556.218 211.537 556.218 235.636ZM556.218 788.364C556.218 812.463 536.682 832 512.582 832C488.482 832 468.946 812.463 468.946 788.364C468.946 764.264 488.482 744.727 512.582 744.727C536.682 744.727 556.218 764.264 556.218 788.364ZM192 511.418C192 535.518 211.537 555.055 235.636 555.055C259.736 555.055 279.273 535.518 279.273 511.418C279.273 487.318 259.736 467.782 235.636 467.782C211.537 467.782 192 487.318 192 511.418ZM744.727 511.418C744.727 535.518 764.264 555.055 788.364 555.055C812.463 555.055 832 535.518 832 511.418C832 487.318 812.463 467.782 788.364 467.782C764.264 467.782 744.727 487.318 744.727 511.418Z" stroke="white" stroke-width="25"/>
</svg>
