<svg width="1024" height="1024" viewBox="0 0 1024 1024" fill="none" xmlns="http://www.w3.org/2000/svg">
<circle cx="512.582" cy="235.636" r="43.6364" stroke="#3E63DD" stroke-width="25"/>
<circle cx="512.582" cy="788.364" r="43.6364" stroke="#3E63DD" stroke-width="25"/>
<line x1="514.629" y1="744.727" x2="514.629" y2="279.273" stroke="#3E63DD" stroke-width="25"/>
<circle cx="672.582" cy="322.909" r="43.6364" stroke="#3E63DD" stroke-width="25"/>
<circle cx="672.582" cy="701.091" r="43.6364" stroke="#3E63DD" stroke-width="25"/>
<path d="M672.58 657.454V599.273L614.398 552.727V471.273L672.58 424.727L672.58 366.545" stroke="#3E63DD" stroke-width="25"/>
<circle cx="43.6364" cy="43.6364" r="43.6364" transform="matrix(-1 0 0 1 396.215 279.273)" stroke="#3E63DD" stroke-width="25"/>
<circle cx="43.6364" cy="43.6364" r="43.6364" transform="matrix(-1 0 0 1 396.215 657.454)" stroke="#3E63DD" stroke-width="25"/>
<path d="M352.58 657.454V599.273L410.762 552.727L410.762 471.273L352.58 424.727V366.545" stroke="#3E63DD" stroke-width="25"/>
<circle cx="43.6364" cy="43.6364" r="43.6364" transform="matrix(-1 0 0 1 279.273 467.782)" stroke="#3E63DD" stroke-width="25"/>
<circle cx="43.6364" cy="43.6364" r="43.6364" transform="matrix(-1 0 0 1 832 467.782)" stroke="#3E63DD" stroke-width="25"/>
</svg>
